<mxfile host="app.diagrams.net" modified="2024-07-16T11:23:45.783Z" agent="Mozilla/5.0 (X11; Linux x86_64) AppleWebKit/537.36 (KHTML, like Gecko) Chrome/125.0.0.0 Safari/537.36" etag="ycCwrhhKYk4COq1lS_tL" version="24.6.3" type="device">
  <diagram id="C5RBs43oDa-KdzZeNtuy" name="Page-1">
    <mxGraphModel dx="2433" dy="4256" grid="1" gridSize="10" guides="1" tooltips="1" connect="1" arrows="1" fold="1" page="1" pageScale="1" pageWidth="827" pageHeight="1169" math="0" shadow="0">
      <root>
        <mxCell id="WIyWlLk6GJQsqaUBKTNV-0" />
        <mxCell id="WIyWlLk6GJQsqaUBKTNV-1" parent="WIyWlLk6GJQsqaUBKTNV-0" />
        <mxCell id="v2UdAhtHkne79LI9UoaM-0" value="&lt;div&gt;&lt;font style=&quot;font-size: 12px;&quot;&gt;&lt;br&gt;&lt;/font&gt;&lt;/div&gt;&lt;div&gt;&lt;span id=&quot;docs-internal-guid-155c2fbc-7fff-fd87-1349-fb3f16c8b0c0&quot;&gt;&lt;p style=&quot;line-height:1.38;margin-top:0pt;margin-bottom:0pt;&quot; dir=&quot;ltr&quot;&gt;&lt;span style=&quot;font-family: Arial, sans-serif; background-color: transparent; font-variant-numeric: normal; font-variant-east-asian: normal; font-variant-alternates: normal; font-variant-position: normal; vertical-align: baseline; white-space-collapse: preserve;&quot;&gt;&lt;font style=&quot;font-size: 12px;&quot;&gt;Região {id_regiao(PK), nome_regiao(SK)}&lt;/font&gt;&lt;/span&gt;&lt;/p&gt;&lt;p style=&quot;line-height:1.38;margin-top:0pt;margin-bottom:0pt;&quot; dir=&quot;ltr&quot;&gt;&lt;span style=&quot;font-family: Arial, sans-serif; background-color: transparent; font-variant-numeric: normal; font-variant-east-asian: normal; font-variant-alternates: normal; font-variant-position: normal; vertical-align: baseline; white-space-collapse: preserve;&quot;&gt;&lt;font style=&quot;font-size: 12px;&quot;&gt;Área {id_area(PK), nome_area(SK), id_regiao(FK)}&lt;/font&gt;&lt;/span&gt;&lt;/p&gt;&lt;font style=&quot;font-size: 12px;&quot;&gt;&lt;br&gt;&lt;/font&gt;&lt;p style=&quot;line-height:1.38;margin-top:0pt;margin-bottom:0pt;&quot; dir=&quot;ltr&quot;&gt;&lt;span style=&quot;font-family: Arial, sans-serif; background-color: transparent; font-variant-numeric: normal; font-variant-east-asian: normal; font-variant-alternates: normal; font-variant-position: normal; vertical-align: baseline; white-space-collapse: preserve;&quot;&gt;&lt;font style=&quot;font-size: 12px;&quot;&gt;Jogador {id_jogador(PK), nome, hp, vitalidade, vigor, int, fe, destreza, forca, peso_maximo, stamina, mp, nivel, runas, id_classe(FK), id_area(FK), id_classe(FK)}&lt;/font&gt;&lt;/span&gt;&lt;/p&gt;&lt;font style=&quot;font-size: 12px;&quot;&gt;&lt;br&gt;&lt;/font&gt;&lt;p style=&quot;line-height:1.38;margin-top:0pt;margin-bottom:0pt;&quot; dir=&quot;ltr&quot;&gt;&lt;span style=&quot;font-family: Arial, sans-serif; background-color: transparent; font-variant-numeric: normal; font-variant-east-asian: normal; font-variant-alternates: normal; font-variant-position: normal; vertical-align: baseline; white-space-collapse: preserve;&quot;&gt;&lt;font style=&quot;font-size: 12px;&quot;&gt;Subir_Nivel {id_nivel(PK), nmr_nivel (SK), runas_necessarias}&lt;/font&gt;&lt;/span&gt;&lt;/p&gt;&lt;font style=&quot;font-size: 12px;&quot;&gt;&lt;br&gt;&lt;/font&gt;&lt;p style=&quot;line-height:1.38;margin-top:0pt;margin-bottom:0pt;&quot; dir=&quot;ltr&quot;&gt;&lt;span style=&quot;font-family: Arial, sans-serif; background-color: transparent; font-variant-numeric: normal; font-variant-east-asian: normal; font-variant-alternates: normal; font-variant-position: normal; vertical-align: baseline; white-space-collapse: preserve;&quot;&gt;&lt;font style=&quot;font-size: 12px;&quot;&gt;Classe {id_classe(PK), nome, base_vitalidade, base_vigor, base_int, base_fe, base_destreza, base_forca }&lt;/font&gt;&lt;/span&gt;&lt;/p&gt;&lt;font style=&quot;font-size: 12px;&quot;&gt;&lt;br&gt;&lt;/font&gt;&lt;p style=&quot;line-height:1.38;margin-top:0pt;margin-bottom:0pt;&quot; dir=&quot;ltr&quot;&gt;&lt;span style=&quot;font-family: Arial, sans-serif; background-color: transparent; font-variant-numeric: normal; font-variant-east-asian: normal; font-variant-alternates: normal; font-variant-position: normal; vertical-align: baseline; white-space-collapse: preserve;&quot;&gt;&lt;font style=&quot;font-size: 12px;&quot;&gt;Area_de_Morte { id_area_de_morte(PK), runas_dropadas, id_jogador(FK, SK), id_area(FK)}&lt;/font&gt;&lt;/span&gt;&lt;/p&gt;&lt;font style=&quot;font-size: 12px;&quot;&gt;&lt;br&gt;&lt;/font&gt;&lt;p style=&quot;line-height:1.38;margin-top:0pt;margin-bottom:0pt;&quot; dir=&quot;ltr&quot;&gt;&lt;span style=&quot;font-family: Arial, sans-serif; background-color: transparent; font-variant-numeric: normal; font-variant-east-asian: normal; font-variant-alternates: normal; font-variant-position: normal; vertical-align: baseline; white-space-collapse: preserve;&quot;&gt;&lt;font style=&quot;font-size: 12px;&quot;&gt;Inimigo { id_inimigo(PK), funcao, esta_hostil, resistencia, fraqueza, drop_runas, nome, hp, vitalidade, dano_base }&lt;/font&gt;&lt;/span&gt;&lt;/p&gt;&lt;font style=&quot;font-size: 12px;&quot;&gt;&lt;br&gt;&lt;/font&gt;&lt;p style=&quot;line-height:1.38;margin-top:0pt;margin-bottom:0pt;&quot; dir=&quot;ltr&quot;&gt;&lt;span style=&quot;font-family: Arial, sans-serif; background-color: transparent; font-variant-numeric: normal; font-variant-east-asian: normal; font-variant-alternates: normal; font-variant-position: normal; vertical-align: baseline; white-space-collapse: preserve;&quot;&gt;&lt;font style=&quot;font-size: 12px;&quot;&gt;Ferreiro { id_ferreiro (PK), função, esta_hostil, resistencia, fraqueza, drop_runas, nome, hp, vitalidade }&lt;/font&gt;&lt;/span&gt;&lt;/p&gt;&lt;font style=&quot;font-size: 12px;&quot;&gt;&lt;br&gt;&lt;/font&gt;&lt;p style=&quot;line-height:1.38;margin-top:0pt;margin-bottom:0pt;&quot; dir=&quot;ltr&quot;&gt;&lt;span style=&quot;font-family: Arial, sans-serif; background-color: transparent; font-variant-numeric: normal; font-variant-east-asian: normal; font-variant-alternates: normal; font-variant-position: normal; vertical-align: baseline; white-space-collapse: preserve;&quot;&gt;&lt;font style=&quot;font-size: 12px;&quot;&gt;Chefe { id_chefe(PK), funcao, esta_hostil, resistencia, fraqueza, drop_runas, nome, hp, vitalidade, lembranca, dano_base, desperate_move, foi_derrotado_por (FK)}&lt;/font&gt;&lt;/span&gt;&lt;/p&gt;&lt;p style=&quot;line-height:1.38;margin-top:0pt;margin-bottom:0pt;&quot; dir=&quot;ltr&quot;&gt;&lt;span style=&quot;font-family: Arial, sans-serif; background-color: transparent; font-variant-numeric: normal; font-variant-east-asian: normal; font-variant-alternates: normal; font-variant-position: normal; vertical-align: baseline; white-space-collapse: preserve;&quot;&gt;&lt;font style=&quot;font-size: 12px;&quot;&gt;&lt;br&gt;&lt;/font&gt;&lt;/span&gt;&lt;/p&gt;&lt;p style=&quot;line-height:1.38;margin-top:0pt;margin-bottom:0pt;&quot; dir=&quot;ltr&quot;&gt;&lt;span style=&quot;font-family: Arial, sans-serif; background-color: transparent; font-variant-numeric: normal; font-variant-east-asian: normal; font-variant-alternates: normal; font-variant-position: normal; vertical-align: baseline; white-space-collapse: preserve;&quot;&gt;&lt;font style=&quot;font-size: 12px;&quot;&gt;Golpe { id_golpe (PK), multiplicador, dano_final, npc(FK)}&lt;/font&gt;&lt;/span&gt;&lt;/p&gt;&lt;font style=&quot;font-size: 12px;&quot;&gt;&lt;br&gt;&lt;/font&gt;&lt;p style=&quot;line-height:1.38;margin-top:0pt;margin-bottom:0pt;&quot; dir=&quot;ltr&quot;&gt;&lt;span style=&quot;font-family: Arial, sans-serif; background-color: transparent; font-variant-numeric: normal; font-variant-east-asian: normal; font-variant-alternates: normal; font-variant-position: normal; vertical-align: baseline; white-space-collapse: preserve;&quot;&gt;&lt;font style=&quot;font-size: 12px;&quot;&gt;Dialogo {id_dialogo,&amp;nbsp; texto, e_unico, id_npc(FK) }&lt;/font&gt;&lt;/span&gt;&lt;/p&gt;&lt;font style=&quot;font-size: 12px;&quot;&gt;&lt;br&gt;&lt;/font&gt;&lt;p style=&quot;line-height:1.38;margin-top:0pt;margin-bottom:0pt;&quot; dir=&quot;ltr&quot;&gt;&lt;span style=&quot;font-family: Arial, sans-serif; background-color: transparent; font-variant-numeric: normal; font-variant-east-asian: normal; font-variant-alternates: normal; font-variant-position: normal; vertical-align: baseline; white-space-collapse: preserve;&quot;&gt;&lt;font style=&quot;font-size: 12px;&quot;&gt;Chefes_Derrotados { id_chefe(FK, PK), id_jogador(FK, PK) }&lt;/font&gt;&lt;/span&gt;&lt;/p&gt;&lt;font style=&quot;font-size: 12px;&quot;&gt;&lt;br&gt;&lt;/font&gt;&lt;p style=&quot;line-height:1.38;margin-top:0pt;margin-bottom:0pt;&quot; dir=&quot;ltr&quot;&gt;&lt;span style=&quot;font-family: Arial, sans-serif; background-color: transparent; font-variant-numeric: normal; font-variant-east-asian: normal; font-variant-alternates: normal; font-variant-position: normal; vertical-align: baseline; white-space-collapse: preserve;&quot;&gt;&lt;font style=&quot;font-size: 12px;&quot;&gt;Equipados { id_jogador(FK, PK), mao_direita. mão_esquerda, elmo, peitoral, pernas, manopolas}&lt;/font&gt;&lt;/span&gt;&lt;/p&gt;&lt;font style=&quot;font-size: 12px;&quot;&gt;&lt;br&gt;&lt;/font&gt;&lt;p style=&quot;line-height:1.38;margin-top:0pt;margin-bottom:0pt;&quot; dir=&quot;ltr&quot;&gt;&lt;span style=&quot;font-family: Arial, sans-serif; background-color: transparent; font-variant-numeric: normal; font-variant-east-asian: normal; font-variant-alternates: normal; font-variant-position: normal; vertical-align: baseline; white-space-collapse: preserve;&quot;&gt;&lt;font style=&quot;font-size: 12px;&quot;&gt;Inventario { id_usuario(FK, PK), Instancia_Item (FK,PK), seção }&lt;/font&gt;&lt;/span&gt;&lt;/p&gt;&lt;font style=&quot;font-size: 12px;&quot;&gt;&lt;br&gt;&lt;/font&gt;&lt;p style=&quot;line-height:1.38;margin-top:0pt;margin-bottom:0pt;&quot; dir=&quot;ltr&quot;&gt;&lt;span style=&quot;font-family: Arial, sans-serif; background-color: transparent; font-variant-numeric: normal; font-variant-east-asian: normal; font-variant-alternates: normal; font-variant-position: normal; vertical-align: baseline; white-space-collapse: preserve;&quot;&gt;&lt;font style=&quot;font-size: 12px;&quot;&gt;Instancia_Item {id_instancia(PK), id_item(FK), id_area(FK),&amp;nbsp; id_inventario(FK) }&amp;nbsp;&lt;/font&gt;&lt;/span&gt;&lt;/p&gt;&lt;p style=&quot;line-height:1.38;margin-top:0pt;margin-bottom:0pt;&quot; dir=&quot;ltr&quot;&gt;&lt;span style=&quot;font-family: Arial, sans-serif; background-color: transparent; font-style: italic; font-variant-numeric: normal; font-variant-east-asian: normal; font-variant-alternates: normal; font-variant-position: normal; vertical-align: baseline; white-space-collapse: preserve;&quot;&gt;&lt;font style=&quot;font-size: 12px;&quot;&gt;OBS: se uma instância de item estiver em um inventário o id_area sera null e se uma instância de item estiver em uma área o id_inventario será null.&lt;/font&gt;&lt;/span&gt;&lt;/p&gt;&lt;font style=&quot;font-size: 12px;&quot;&gt;&lt;br&gt;&lt;/font&gt;&lt;p style=&quot;line-height:1.38;margin-top:0pt;margin-bottom:0pt;&quot; dir=&quot;ltr&quot;&gt;&lt;span style=&quot;font-family: Arial, sans-serif; background-color: transparent; font-variant-numeric: normal; font-variant-east-asian: normal; font-variant-alternates: normal; font-variant-position: normal; vertical-align: baseline; white-space-collapse: preserve;&quot;&gt;&lt;font style=&quot;font-size: 12px;&quot;&gt;Instancia_Inimigo {id_instancia(PK), id_inimigo(FK), area_id(FK)}&amp;nbsp; &lt;/font&gt;&lt;/span&gt;&lt;/p&gt;&lt;p style=&quot;line-height:1.38;margin-top:0pt;margin-bottom:0pt;&quot; dir=&quot;ltr&quot;&gt;&lt;span style=&quot;font-family: Arial, sans-serif; background-color: transparent; font-variant-numeric: normal; font-variant-east-asian: normal; font-variant-alternates: normal; font-variant-position: normal; vertical-align: baseline; white-space-collapse: preserve;&quot;&gt;&lt;font style=&quot;font-size: 12px;&quot;&gt;&lt;br&gt;&lt;/font&gt;&lt;/span&gt;&lt;/p&gt;&lt;div&gt;&lt;span style=&quot;font-variant-numeric: normal; font-variant-east-asian: normal; font-variant-alternates: normal; font-variant-position: normal; vertical-align: baseline; white-space-collapse: preserve;&quot;&gt;&lt;p style=&quot;line-height: 1.38; margin-top: 0pt; margin-bottom: 0pt;&quot; dir=&quot;ltr&quot;&gt;&lt;span style=&quot;font-variant-numeric: normal; font-variant-east-asian: normal; font-variant-alternates: normal; font-variant-position: normal; vertical-align: baseline;&quot;&gt;Item { &lt;/span&gt;&lt;span style=&quot;font-variant-numeric: normal; font-variant-east-asian: normal; font-variant-alternates: normal; font-variant-position: normal; vertical-align: baseline;&quot;&gt;id_item(PK)&lt;/span&gt;&lt;span style=&quot;font-variant-numeric: normal; font-variant-east-asian: normal; font-variant-alternates: normal; font-variant-position: normal; vertical-align: baseline;&quot;&gt;, raridade, e_chave, nome, valor }&lt;/span&gt;&lt;/p&gt;&lt;br&gt;&lt;p style=&quot;line-height: 1.38; margin-top: 0pt; margin-bottom: 0pt;&quot; dir=&quot;ltr&quot;&gt;&lt;span style=&quot;font-variant-numeric: normal; font-variant-east-asian: normal; font-variant-alternates: normal; font-variant-position: normal; vertical-align: baseline;&quot;&gt;Armadura { &lt;/span&gt;&lt;span style=&quot;font-variant-numeric: normal; font-variant-east-asian: normal; font-variant-alternates: normal; font-variant-position: normal; vertical-align: baseline;&quot;&gt;id_armadura (PK)&lt;/span&gt;&lt;span style=&quot;font-variant-numeric: normal; font-variant-east-asian: normal; font-variant-alternates: normal; font-variant-position: normal; vertical-align: baseline;&quot;&gt;, tipo, requisitos, melhoria, peso, custo_melhoria, resistencia, item_id(FK, SK) }&lt;/span&gt;&lt;/p&gt;&lt;br&gt;&lt;p style=&quot;line-height: 1.38; margin-top: 0pt; margin-bottom: 0pt;&quot; dir=&quot;ltr&quot;&gt;&lt;span style=&quot;font-variant-numeric: normal; font-variant-east-asian: normal; font-variant-alternates: normal; font-variant-position: normal; vertical-align: baseline;&quot;&gt;Escudo { &lt;/span&gt;&lt;span style=&quot;font-variant-numeric: normal; font-variant-east-asian: normal; font-variant-alternates: normal; font-variant-position: normal; vertical-align: baseline;&quot;&gt;id_escudo (PK)&lt;/span&gt;&lt;span style=&quot;font-variant-numeric: normal; font-variant-east-asian: normal; font-variant-alternates: normal; font-variant-position: normal; vertical-align: baseline;&quot;&gt;, defesa, habilidade, tipo, requisitos, melhoria, peso, custo_melhoria, item_id(FK, SK) }&lt;/span&gt;&lt;/p&gt;&lt;br&gt;&lt;p style=&quot;line-height: 1.38; margin-top: 0pt; margin-bottom: 0pt;&quot; dir=&quot;ltr&quot;&gt;&lt;span style=&quot;font-variant-numeric: normal; font-variant-east-asian: normal; font-variant-alternates: normal; font-variant-position: normal; vertical-align: baseline;&quot;&gt;Engaste { &lt;/span&gt;&lt;span style=&quot;font-variant-numeric: normal; font-variant-east-asian: normal; font-variant-alternates: normal; font-variant-position: normal; vertical-align: baseline;&quot;&gt;id_engaste (PK)&lt;/span&gt;&lt;span style=&quot;font-variant-numeric: normal; font-variant-east-asian: normal; font-variant-alternates: normal; font-variant-position: normal; vertical-align: baseline;&quot;&gt;, atributo_extra, id_armadura (FK, SK) }&lt;/span&gt;&lt;/p&gt;&lt;br&gt;&lt;p style=&quot;line-height: 1.38; margin-top: 0pt; margin-bottom: 0pt;&quot; dir=&quot;ltr&quot;&gt;&lt;span style=&quot;font-variant-numeric: normal; font-variant-east-asian: normal; font-variant-alternates: normal; font-variant-position: normal; vertical-align: baseline;&quot;&gt;Cajado { &lt;/span&gt;&lt;span style=&quot;font-variant-numeric: normal; font-variant-east-asian: normal; font-variant-alternates: normal; font-variant-position: normal; vertical-align: baseline;&quot;&gt;id_cajado (PK)&lt;/span&gt;&lt;span style=&quot;font-variant-numeric: normal; font-variant-east-asian: normal; font-variant-alternates: normal; font-variant-position: normal; vertical-align: baseline;&quot;&gt;, tipo, requisitos, melhoria, peso, custo_melhoria, dano, critico, habilidade, item_id(FK, SK), proficiencia }&lt;/span&gt;&lt;/p&gt;&lt;br&gt;&lt;p style=&quot;line-height: 1.38; margin-top: 0pt; margin-bottom: 0pt;&quot; dir=&quot;ltr&quot;&gt;&lt;span style=&quot;font-variant-numeric: normal; font-variant-east-asian: normal; font-variant-alternates: normal; font-variant-position: normal; vertical-align: baseline;&quot;&gt;Selo {&lt;/span&gt;&lt;span style=&quot;font-variant-numeric: normal; font-variant-east-asian: normal; font-variant-alternates: normal; font-variant-position: normal; vertical-align: baseline;&quot;&gt; id_selo (PK)&lt;/span&gt;&lt;span style=&quot;font-variant-numeric: normal; font-variant-east-asian: normal; font-variant-alternates: normal; font-variant-position: normal; vertical-align: baseline;&quot;&gt;, tipo, requisitos, melhoria, peso, custo_melhoria, dano, critico, habilidade, item_id(FK, SK), Milagre }&lt;/span&gt;&lt;/p&gt;&lt;br&gt;&lt;p style=&quot;line-height: 1.38; margin-top: 0pt; margin-bottom: 0pt;&quot; dir=&quot;ltr&quot;&gt;&lt;span style=&quot;font-variant-numeric: normal; font-variant-east-asian: normal; font-variant-alternates: normal; font-variant-position: normal; vertical-align: baseline;&quot;&gt;Arma_Leve { &lt;/span&gt;&lt;span style=&quot;font-variant-numeric: normal; font-variant-east-asian: normal; font-variant-alternates: normal; font-variant-position: normal; vertical-align: baseline;&quot;&gt;id_arma_leve (PK)&lt;/span&gt;&lt;span style=&quot;font-variant-numeric: normal; font-variant-east-asian: normal; font-variant-alternates: normal; font-variant-position: normal; vertical-align: baseline;&quot;&gt;, tipo, requisitos, melhoria, peso, custo_melhoria, dano, critico, habilidade, item_id(FK, SK), destreza }&lt;/span&gt;&lt;/p&gt;&lt;br&gt;&lt;p style=&quot;line-height: 1.38; margin-top: 0pt; margin-bottom: 0pt;&quot; dir=&quot;ltr&quot;&gt;&lt;span style=&quot;font-variant-numeric: normal; font-variant-east-asian: normal; font-variant-alternates: normal; font-variant-position: normal; vertical-align: baseline;&quot;&gt;Arma_Pesada { &lt;/span&gt;&lt;span style=&quot;font-variant-numeric: normal; font-variant-east-asian: normal; font-variant-alternates: normal; font-variant-position: normal; vertical-align: baseline;&quot;&gt;id_arma_pesada (PK)&lt;/span&gt;&lt;span style=&quot;font-variant-numeric: normal; font-variant-east-asian: normal; font-variant-alternates: normal; font-variant-position: normal; vertical-align: baseline;&quot;&gt;, tipo, requisitos, melhoria, peso, custo_melhoria, dano, critico, habilidade, item_id(FK, SK), força }&lt;/span&gt;&lt;/p&gt;&lt;br&gt;&lt;p style=&quot;line-height: 1.38; margin-top: 0pt; margin-bottom: 0pt;&quot; dir=&quot;ltr&quot;&gt;&lt;span style=&quot;font-variant-numeric: normal; font-variant-east-asian: normal; font-variant-alternates: normal; font-variant-position: normal; vertical-align: baseline;&quot;&gt;Consumivel {&lt;/span&gt;&lt;span style=&quot;font-variant-numeric: normal; font-variant-east-asian: normal; font-variant-alternates: normal; font-variant-position: normal; vertical-align: baseline;&quot;&gt; id_consumivel (PK)&lt;/span&gt;&lt;span style=&quot;font-variant-numeric: normal; font-variant-east-asian: normal; font-variant-alternates: normal; font-variant-position: normal; vertical-align: baseline;&quot;&gt;, efeito, descricao, duracao, id_item (FR, SK) }&lt;/span&gt;&lt;/p&gt;&lt;/span&gt;&lt;/div&gt;&lt;/span&gt;&lt;/div&gt;" style="text;strokeColor=none;align=left;fillColor=none;html=1;verticalAlign=middle;whiteSpace=wrap;rounded=0;" parent="WIyWlLk6GJQsqaUBKTNV-1" vertex="1">
          <mxGeometry x="30" y="200" width="480" height="1050" as="geometry" />
        </mxCell>
        <mxCell id="v2UdAhtHkne79LI9UoaM-3" value="&lt;span style=&quot;text-align: left;&quot;&gt;&lt;b&gt;Modelagem por meio de Tuplas&lt;/b&gt;&lt;/span&gt;" style="text;strokeColor=none;align=center;fillColor=none;html=1;verticalAlign=middle;whiteSpace=wrap;rounded=0;" parent="WIyWlLk6GJQsqaUBKTNV-1" vertex="1">
          <mxGeometry x="10" y="160" width="220" height="30" as="geometry" />
        </mxCell>
        <mxCell id="v2UdAhtHkne79LI9UoaM-20" value="Copia e Colar" style="shape=table;startSize=30;container=1;collapsible=0;childLayout=tableLayout;fixedRows=1;rowLines=0;fontStyle=0;strokeColor=default;fontSize=16;" parent="WIyWlLk6GJQsqaUBKTNV-1" vertex="1">
          <mxGeometry x="770" y="530" width="200" height="170" as="geometry" />
        </mxCell>
        <mxCell id="v2UdAhtHkne79LI9UoaM-21" value="" style="shape=tableRow;horizontal=0;startSize=0;swimlaneHead=0;swimlaneBody=0;top=0;left=0;bottom=0;right=0;collapsible=0;dropTarget=0;fillColor=none;points=[[0,0.5],[1,0.5]];portConstraint=eastwest;strokeColor=inherit;fontSize=16;" parent="v2UdAhtHkne79LI9UoaM-20" vertex="1">
          <mxGeometry y="30" width="200" height="30" as="geometry" />
        </mxCell>
        <mxCell id="v2UdAhtHkne79LI9UoaM-22" value="PK" style="shape=partialRectangle;html=1;whiteSpace=wrap;connectable=0;fillColor=none;top=0;left=0;bottom=0;right=0;overflow=hidden;pointerEvents=1;strokeColor=inherit;fontSize=16;" parent="v2UdAhtHkne79LI9UoaM-21" vertex="1">
          <mxGeometry width="44" height="30" as="geometry">
            <mxRectangle width="44" height="30" as="alternateBounds" />
          </mxGeometry>
        </mxCell>
        <mxCell id="v2UdAhtHkne79LI9UoaM-23" value="id" style="shape=partialRectangle;html=1;whiteSpace=wrap;connectable=0;fillColor=none;top=0;left=0;bottom=0;right=0;align=left;spacingLeft=6;overflow=hidden;strokeColor=inherit;fontSize=16;horizontal=1;" parent="v2UdAhtHkne79LI9UoaM-21" vertex="1">
          <mxGeometry x="44" width="156" height="30" as="geometry">
            <mxRectangle width="156" height="30" as="alternateBounds" />
          </mxGeometry>
        </mxCell>
        <mxCell id="v2UdAhtHkne79LI9UoaM-24" value="" style="shape=tableRow;horizontal=0;startSize=0;swimlaneHead=0;swimlaneBody=0;top=0;left=0;bottom=0;right=0;collapsible=0;dropTarget=0;fillColor=none;points=[[0,0.5],[1,0.5]];portConstraint=eastwest;strokeColor=inherit;fontSize=16;verticalAlign=top;" parent="v2UdAhtHkne79LI9UoaM-20" vertex="1">
          <mxGeometry y="60" width="200" height="110" as="geometry" />
        </mxCell>
        <mxCell id="v2UdAhtHkne79LI9UoaM-25" value="" style="shape=partialRectangle;html=1;whiteSpace=wrap;connectable=0;fillColor=none;top=1;left=0;bottom=1;right=0;overflow=hidden;strokeColor=inherit;fontSize=16;noLabel=0;snapToPoint=0;" parent="v2UdAhtHkne79LI9UoaM-24" vertex="1">
          <mxGeometry width="44" height="110" as="geometry">
            <mxRectangle width="44" height="110" as="alternateBounds" />
          </mxGeometry>
        </mxCell>
        <mxCell id="v2UdAhtHkne79LI9UoaM-26" value="&lt;p style=&quot;line-height: 100%; margin-top: 2px; margin-bottom: 2px;&quot;&gt;aaaa&lt;/p&gt;" style="shape=partialRectangle;html=1;whiteSpace=wrap;connectable=0;fillColor=none;top=1;left=0;bottom=1;right=0;align=left;spacingLeft=6;overflow=hidden;strokeColor=inherit;fontSize=16;noLabel=0;snapToPoint=0;horizontal=1;verticalAlign=top;" parent="v2UdAhtHkne79LI9UoaM-24" vertex="1">
          <mxGeometry x="44" width="156" height="110" as="geometry">
            <mxRectangle width="156" height="110" as="alternateBounds" />
          </mxGeometry>
        </mxCell>
        <mxCell id="v2UdAhtHkne79LI9UoaM-30" value="Região " style="shape=table;startSize=30;container=1;collapsible=0;childLayout=tableLayout;fixedRows=1;rowLines=0;fontStyle=0;strokeColor=default;fontSize=16;" parent="WIyWlLk6GJQsqaUBKTNV-1" vertex="1">
          <mxGeometry x="3730" y="460" width="200" height="100" as="geometry" />
        </mxCell>
        <mxCell id="v2UdAhtHkne79LI9UoaM-31" value="" style="shape=tableRow;horizontal=0;startSize=0;swimlaneHead=0;swimlaneBody=0;top=0;left=0;bottom=0;right=0;collapsible=0;dropTarget=0;fillColor=none;points=[[0,0.5],[1,0.5]];portConstraint=eastwest;strokeColor=inherit;fontSize=16;" parent="v2UdAhtHkne79LI9UoaM-30" vertex="1">
          <mxGeometry y="30" width="200" height="50" as="geometry" />
        </mxCell>
        <mxCell id="v2UdAhtHkne79LI9UoaM-32" value="PK&lt;div&gt;SK&lt;/div&gt;" style="shape=partialRectangle;html=1;whiteSpace=wrap;connectable=0;fillColor=none;top=0;left=0;bottom=0;right=0;overflow=hidden;pointerEvents=1;strokeColor=inherit;fontSize=16;" parent="v2UdAhtHkne79LI9UoaM-31" vertex="1">
          <mxGeometry width="44" height="50" as="geometry">
            <mxRectangle width="44" height="50" as="alternateBounds" />
          </mxGeometry>
        </mxCell>
        <mxCell id="v2UdAhtHkne79LI9UoaM-33" value="&lt;span id=&quot;docs-internal-guid-9de013d8-7fff-9b33-baa0-55acf734d3be&quot;&gt;&lt;span style=&quot;font-size: 11pt; font-family: Arial, sans-serif; background-color: transparent; font-variant-numeric: normal; font-variant-east-asian: normal; font-variant-alternates: normal; font-variant-position: normal; vertical-align: baseline; white-space-collapse: preserve;&quot;&gt;id_regiao&lt;/span&gt;&lt;/span&gt;&lt;div&gt;&lt;span id=&quot;docs-internal-guid-81cacb7f-7fff-ba41-0c7b-e25bcdb17807&quot;&gt;&lt;span style=&quot;font-size: 11pt; font-family: Arial, sans-serif; background-color: transparent; font-variant-numeric: normal; font-variant-east-asian: normal; font-variant-alternates: normal; font-variant-position: normal; vertical-align: baseline; white-space-collapse: preserve;&quot;&gt;nome_regiao&lt;/span&gt;&lt;/span&gt;&lt;span&gt;&lt;span style=&quot;font-size: 11pt; font-family: Arial, sans-serif; background-color: transparent; font-variant-numeric: normal; font-variant-east-asian: normal; font-variant-alternates: normal; font-variant-position: normal; vertical-align: baseline; white-space-collapse: preserve;&quot;&gt;&lt;br&gt;&lt;/span&gt;&lt;/span&gt;&lt;/div&gt;" style="shape=partialRectangle;html=1;whiteSpace=wrap;connectable=0;fillColor=none;top=0;left=0;bottom=0;right=0;align=left;spacingLeft=6;overflow=hidden;strokeColor=inherit;fontSize=16;horizontal=1;" parent="v2UdAhtHkne79LI9UoaM-31" vertex="1">
          <mxGeometry x="44" width="156" height="50" as="geometry">
            <mxRectangle width="156" height="50" as="alternateBounds" />
          </mxGeometry>
        </mxCell>
        <mxCell id="v2UdAhtHkne79LI9UoaM-34" value="" style="shape=tableRow;horizontal=0;startSize=0;swimlaneHead=0;swimlaneBody=0;top=0;left=0;bottom=0;right=0;collapsible=0;dropTarget=0;fillColor=none;points=[[0,0.5],[1,0.5]];portConstraint=eastwest;strokeColor=inherit;fontSize=16;verticalAlign=top;" parent="v2UdAhtHkne79LI9UoaM-30" vertex="1">
          <mxGeometry y="80" width="200" height="20" as="geometry" />
        </mxCell>
        <mxCell id="v2UdAhtHkne79LI9UoaM-35" value="" style="shape=partialRectangle;html=1;whiteSpace=wrap;connectable=0;fillColor=none;top=1;left=0;bottom=1;right=0;overflow=hidden;strokeColor=inherit;fontSize=16;noLabel=0;snapToPoint=0;" parent="v2UdAhtHkne79LI9UoaM-34" vertex="1">
          <mxGeometry width="44" height="20" as="geometry">
            <mxRectangle width="44" height="20" as="alternateBounds" />
          </mxGeometry>
        </mxCell>
        <mxCell id="v2UdAhtHkne79LI9UoaM-36" value="&lt;p style=&quot;line-height: 100%; margin-top: 2px; margin-bottom: 2px;&quot;&gt;&lt;br&gt;&lt;/p&gt;" style="shape=partialRectangle;html=1;whiteSpace=wrap;connectable=0;fillColor=none;top=1;left=0;bottom=1;right=0;align=left;spacingLeft=6;overflow=hidden;strokeColor=inherit;fontSize=16;noLabel=0;snapToPoint=0;horizontal=1;verticalAlign=top;" parent="v2UdAhtHkne79LI9UoaM-34" vertex="1">
          <mxGeometry x="44" width="156" height="20" as="geometry">
            <mxRectangle width="156" height="20" as="alternateBounds" />
          </mxGeometry>
        </mxCell>
        <mxCell id="v2UdAhtHkne79LI9UoaM-37" value="Área" style="shape=table;startSize=30;container=1;collapsible=0;childLayout=tableLayout;fixedRows=1;rowLines=0;fontStyle=0;strokeColor=default;fontSize=16;" parent="WIyWlLk6GJQsqaUBKTNV-1" vertex="1">
          <mxGeometry x="3260" y="450" width="200" height="130" as="geometry" />
        </mxCell>
        <mxCell id="v2UdAhtHkne79LI9UoaM-38" value="" style="shape=tableRow;horizontal=0;startSize=0;swimlaneHead=0;swimlaneBody=0;top=0;left=0;bottom=0;right=0;collapsible=0;dropTarget=0;fillColor=none;points=[[0,0.5],[1,0.5]];portConstraint=eastwest;strokeColor=inherit;fontSize=16;" parent="v2UdAhtHkne79LI9UoaM-37" vertex="1">
          <mxGeometry y="30" width="200" height="60" as="geometry" />
        </mxCell>
        <mxCell id="v2UdAhtHkne79LI9UoaM-39" value="PK&lt;div&gt;SK&lt;/div&gt;" style="shape=partialRectangle;html=1;whiteSpace=wrap;connectable=0;fillColor=none;top=0;left=0;bottom=0;right=0;overflow=hidden;pointerEvents=1;strokeColor=inherit;fontSize=16;" parent="v2UdAhtHkne79LI9UoaM-38" vertex="1">
          <mxGeometry width="44" height="60" as="geometry">
            <mxRectangle width="44" height="60" as="alternateBounds" />
          </mxGeometry>
        </mxCell>
        <mxCell id="v2UdAhtHkne79LI9UoaM-40" value="&lt;span id=&quot;docs-internal-guid-b573afe4-7fff-6cf1-a72c-a2d62d699c4b&quot;&gt;&lt;span style=&quot;font-size: 11pt; font-family: Arial, sans-serif; background-color: transparent; font-variant-numeric: normal; font-variant-east-asian: normal; font-variant-alternates: normal; font-variant-position: normal; vertical-align: baseline; white-space-collapse: preserve;&quot;&gt;id_area&lt;/span&gt;&lt;/span&gt;&lt;div&gt;&lt;span id=&quot;docs-internal-guid-5008f0fb-7fff-fd4a-83f7-17b81c33ce65&quot;&gt;&lt;span style=&quot;font-size: 11pt; font-family: Arial, sans-serif; background-color: transparent; font-variant-numeric: normal; font-variant-east-asian: normal; font-variant-alternates: normal; font-variant-position: normal; vertical-align: baseline; white-space-collapse: preserve;&quot;&gt;nome_area&lt;/span&gt;&lt;/span&gt;&lt;br&gt;&lt;/div&gt;" style="shape=partialRectangle;html=1;whiteSpace=wrap;connectable=0;fillColor=none;top=0;left=0;bottom=0;right=0;align=left;spacingLeft=6;overflow=hidden;strokeColor=inherit;fontSize=16;horizontal=1;" parent="v2UdAhtHkne79LI9UoaM-38" vertex="1">
          <mxGeometry x="44" width="156" height="60" as="geometry">
            <mxRectangle width="156" height="60" as="alternateBounds" />
          </mxGeometry>
        </mxCell>
        <mxCell id="v2UdAhtHkne79LI9UoaM-41" value="" style="shape=tableRow;horizontal=0;startSize=0;swimlaneHead=0;swimlaneBody=0;top=0;left=0;bottom=0;right=0;collapsible=0;dropTarget=0;fillColor=none;points=[[0,0.5],[1,0.5]];portConstraint=eastwest;strokeColor=inherit;fontSize=16;verticalAlign=top;" parent="v2UdAhtHkne79LI9UoaM-37" vertex="1">
          <mxGeometry y="90" width="200" height="40" as="geometry" />
        </mxCell>
        <mxCell id="v2UdAhtHkne79LI9UoaM-42" value="FK" style="shape=partialRectangle;html=1;whiteSpace=wrap;connectable=0;fillColor=none;top=1;left=0;bottom=1;right=0;overflow=hidden;strokeColor=inherit;fontSize=16;noLabel=0;snapToPoint=0;" parent="v2UdAhtHkne79LI9UoaM-41" vertex="1">
          <mxGeometry width="44" height="40" as="geometry">
            <mxRectangle width="44" height="40" as="alternateBounds" />
          </mxGeometry>
        </mxCell>
        <mxCell id="v2UdAhtHkne79LI9UoaM-43" value="&lt;p style=&quot;line-height: 100%; margin-top: 2px; margin-bottom: 2px;&quot;&gt;&lt;span id=&quot;docs-internal-guid-73743eb3-7fff-0ede-8437-65463135ddfc&quot;&gt;&lt;span style=&quot;font-size: 11pt; font-family: Arial, sans-serif; background-color: transparent; font-variant-numeric: normal; font-variant-east-asian: normal; font-variant-alternates: normal; font-variant-position: normal; vertical-align: baseline; white-space-collapse: preserve;&quot;&gt;id_regiao&lt;/span&gt;&lt;/span&gt;&lt;br&gt;&lt;/p&gt;" style="shape=partialRectangle;html=1;whiteSpace=wrap;connectable=0;fillColor=none;top=1;left=0;bottom=1;right=0;align=left;spacingLeft=6;overflow=hidden;strokeColor=inherit;fontSize=16;noLabel=0;snapToPoint=0;horizontal=1;verticalAlign=top;" parent="v2UdAhtHkne79LI9UoaM-41" vertex="1">
          <mxGeometry x="44" width="156" height="40" as="geometry">
            <mxRectangle width="156" height="40" as="alternateBounds" />
          </mxGeometry>
        </mxCell>
        <mxCell id="v2UdAhtHkne79LI9UoaM-46" value="Jogador" style="shape=table;startSize=30;container=1;collapsible=0;childLayout=tableLayout;fixedRows=1;rowLines=0;fontStyle=0;strokeColor=default;fontSize=16;" parent="WIyWlLk6GJQsqaUBKTNV-1" vertex="1">
          <mxGeometry x="3380" y="840" width="204" height="350" as="geometry" />
        </mxCell>
        <mxCell id="v2UdAhtHkne79LI9UoaM-47" value="" style="shape=tableRow;horizontal=0;startSize=0;swimlaneHead=0;swimlaneBody=0;top=0;left=0;bottom=0;right=0;collapsible=0;dropTarget=0;fillColor=none;points=[[0,0.5],[1,0.5]];portConstraint=eastwest;strokeColor=inherit;fontSize=16;" parent="v2UdAhtHkne79LI9UoaM-46" vertex="1">
          <mxGeometry y="30" width="204" height="30" as="geometry" />
        </mxCell>
        <mxCell id="v2UdAhtHkne79LI9UoaM-48" value="PK" style="shape=partialRectangle;html=1;whiteSpace=wrap;connectable=0;fillColor=none;top=0;left=0;bottom=0;right=0;overflow=hidden;pointerEvents=1;strokeColor=inherit;fontSize=16;" parent="v2UdAhtHkne79LI9UoaM-47" vertex="1">
          <mxGeometry width="45" height="30" as="geometry">
            <mxRectangle width="45" height="30" as="alternateBounds" />
          </mxGeometry>
        </mxCell>
        <mxCell id="v2UdAhtHkne79LI9UoaM-49" value="&lt;span id=&quot;docs-internal-guid-e88bfac6-7fff-c64e-e870-2d8f429155b9&quot;&gt;&lt;span style=&quot;font-size: 11pt; font-family: Arial, sans-serif; background-color: transparent; font-variant-numeric: normal; font-variant-east-asian: normal; font-variant-alternates: normal; font-variant-position: normal; vertical-align: baseline; white-space-collapse: preserve;&quot;&gt;id_jogador&lt;/span&gt;&lt;/span&gt;" style="shape=partialRectangle;html=1;whiteSpace=wrap;connectable=0;fillColor=none;top=0;left=0;bottom=0;right=0;align=left;spacingLeft=6;overflow=hidden;strokeColor=inherit;fontSize=16;horizontal=1;" parent="v2UdAhtHkne79LI9UoaM-47" vertex="1">
          <mxGeometry x="45" width="159" height="30" as="geometry">
            <mxRectangle width="159" height="30" as="alternateBounds" />
          </mxGeometry>
        </mxCell>
        <mxCell id="v2UdAhtHkne79LI9UoaM-50" value="" style="shape=tableRow;horizontal=0;startSize=0;swimlaneHead=0;swimlaneBody=0;top=0;left=0;bottom=0;right=0;collapsible=0;dropTarget=0;fillColor=none;points=[[0,0.5],[1,0.5]];portConstraint=eastwest;strokeColor=inherit;fontSize=16;verticalAlign=top;" parent="v2UdAhtHkne79LI9UoaM-46" vertex="1">
          <mxGeometry y="60" width="204" height="290" as="geometry" />
        </mxCell>
        <mxCell id="v2UdAhtHkne79LI9UoaM-51" value="&lt;div&gt;&lt;br&gt;&lt;/div&gt;&lt;div&gt;&lt;br&gt;&lt;/div&gt;&lt;div&gt;&lt;br&gt;&lt;/div&gt;&lt;div&gt;&lt;br&gt;&lt;/div&gt;&lt;div&gt;&lt;br&gt;&lt;/div&gt;&lt;div&gt;&lt;br&gt;&lt;/div&gt;&lt;div&gt;&lt;br&gt;&lt;/div&gt;&lt;div&gt;&lt;br&gt;&lt;/div&gt;&lt;div&gt;&lt;br&gt;&lt;/div&gt;&lt;div&gt;&lt;br&gt;&lt;/div&gt;&lt;div&gt;&lt;br&gt;&lt;/div&gt;&lt;div&gt;FK&lt;/div&gt;&lt;div&gt;FK&lt;/div&gt;&lt;div&gt;FK&lt;/div&gt;" style="shape=partialRectangle;html=1;whiteSpace=wrap;connectable=0;fillColor=none;top=1;left=0;bottom=1;right=0;overflow=hidden;strokeColor=inherit;fontSize=16;noLabel=0;snapToPoint=0;" parent="v2UdAhtHkne79LI9UoaM-50" vertex="1">
          <mxGeometry width="45" height="290" as="geometry">
            <mxRectangle width="45" height="290" as="alternateBounds" />
          </mxGeometry>
        </mxCell>
        <mxCell id="v2UdAhtHkne79LI9UoaM-52" value="&lt;p style=&quot;line-height: 100%; margin-top: 2px; margin-bottom: 2px;&quot;&gt;&lt;span id=&quot;docs-internal-guid-9f9c761b-7fff-f7ba-615e-49f5319a1079&quot;&gt;&lt;span style=&quot;font-size: 11pt; font-family: Arial, sans-serif; background-color: transparent; font-variant-numeric: normal; font-variant-east-asian: normal; font-variant-alternates: normal; font-variant-position: normal; vertical-align: baseline; white-space-collapse: preserve;&quot;&gt;nome&lt;/span&gt;&lt;/span&gt;&lt;br&gt;&lt;/p&gt;&lt;p style=&quot;line-height: 100%; margin-top: 2px; margin-bottom: 2px;&quot;&gt;&lt;span id=&quot;docs-internal-guid-078480d4-7fff-15d0-8b8c-13f725acce4c&quot;&gt;&lt;span style=&quot;font-size: 11pt; font-family: Arial, sans-serif; background-color: transparent; font-variant-numeric: normal; font-variant-east-asian: normal; font-variant-alternates: normal; font-variant-position: normal; vertical-align: baseline; white-space-collapse: preserve;&quot;&gt;hp&lt;/span&gt;&lt;/span&gt;&lt;span&gt;&lt;span style=&quot;font-size: 11pt; font-family: Arial, sans-serif; background-color: transparent; font-variant-numeric: normal; font-variant-east-asian: normal; font-variant-alternates: normal; font-variant-position: normal; vertical-align: baseline; white-space-collapse: preserve;&quot;&gt;&lt;br&gt;&lt;/span&gt;&lt;/span&gt;&lt;/p&gt;&lt;p style=&quot;line-height: 100%; margin-top: 2px; margin-bottom: 2px;&quot;&gt;&lt;span id=&quot;docs-internal-guid-be2ab53c-7fff-2585-26b5-68bac440c4f4&quot;&gt;&lt;span style=&quot;font-size: 11pt; font-family: Arial, sans-serif; background-color: transparent; font-variant-numeric: normal; font-variant-east-asian: normal; font-variant-alternates: normal; font-variant-position: normal; vertical-align: baseline; white-space-collapse: preserve;&quot;&gt;vitalidade&lt;/span&gt;&lt;/span&gt;&lt;span&gt;&lt;span style=&quot;font-size: 11pt; font-family: Arial, sans-serif; background-color: transparent; font-variant-numeric: normal; font-variant-east-asian: normal; font-variant-alternates: normal; font-variant-position: normal; vertical-align: baseline; white-space-collapse: preserve;&quot;&gt;&lt;br&gt;&lt;/span&gt;&lt;/span&gt;&lt;/p&gt;&lt;p style=&quot;line-height: 100%; margin-top: 2px; margin-bottom: 2px;&quot;&gt;&lt;span id=&quot;docs-internal-guid-0e669ab7-7fff-36fa-9d7c-b0061460c1b1&quot;&gt;&lt;span style=&quot;font-size: 11pt; font-family: Arial, sans-serif; background-color: transparent; font-variant-numeric: normal; font-variant-east-asian: normal; font-variant-alternates: normal; font-variant-position: normal; vertical-align: baseline; white-space-collapse: preserve;&quot;&gt;vigor&lt;/span&gt;&lt;/span&gt;&lt;span&gt;&lt;span style=&quot;font-size: 11pt; font-family: Arial, sans-serif; background-color: transparent; font-variant-numeric: normal; font-variant-east-asian: normal; font-variant-alternates: normal; font-variant-position: normal; vertical-align: baseline; white-space-collapse: preserve;&quot;&gt;&lt;br&gt;&lt;/span&gt;&lt;/span&gt;&lt;/p&gt;&lt;p style=&quot;line-height: 100%; margin-top: 2px; margin-bottom: 2px;&quot;&gt;&lt;span id=&quot;docs-internal-guid-48d795de-7fff-4ca6-87a7-32a16a1d3475&quot;&gt;&lt;span style=&quot;font-size: 11pt; font-family: Arial, sans-serif; background-color: transparent; font-variant-numeric: normal; font-variant-east-asian: normal; font-variant-alternates: normal; font-variant-position: normal; vertical-align: baseline; white-space-collapse: preserve;&quot;&gt;inteligencia&lt;/span&gt;&lt;/span&gt;&lt;/p&gt;&lt;p style=&quot;line-height: 100%; margin-top: 2px; margin-bottom: 2px;&quot;&gt;&lt;span style=&quot;background-color: transparent; font-family: Arial, sans-serif; font-size: 11pt; white-space-collapse: preserve;&quot;&gt;fé&lt;/span&gt;&lt;/p&gt;&lt;p style=&quot;line-height: 100%; margin-top: 2px; margin-bottom: 2px;&quot;&gt;&lt;span id=&quot;docs-internal-guid-96ec707c-7fff-7b85-a313-1b728ab4c4f4&quot;&gt;&lt;span style=&quot;font-size: 11pt; font-family: Arial, sans-serif; background-color: transparent; font-variant-numeric: normal; font-variant-east-asian: normal; font-variant-alternates: normal; font-variant-position: normal; vertical-align: baseline; white-space-collapse: preserve;&quot;&gt;destreza&lt;/span&gt;&lt;/span&gt;&lt;span&gt;&lt;span style=&quot;font-size: 11pt; font-family: Arial, sans-serif; background-color: transparent; font-variant-numeric: normal; font-variant-east-asian: normal; font-variant-alternates: normal; font-variant-position: normal; vertical-align: baseline; white-space-collapse: preserve;&quot;&gt;&lt;br&gt;&lt;/span&gt;&lt;/span&gt;&lt;/p&gt;&lt;p style=&quot;line-height: 100%; margin-top: 2px; margin-bottom: 2px;&quot;&gt;&lt;span id=&quot;docs-internal-guid-cd93c1f4-7fff-a164-152d-51d7bb64dcba&quot;&gt;&lt;span style=&quot;font-size: 11pt; font-family: Arial, sans-serif; background-color: transparent; font-variant-numeric: normal; font-variant-east-asian: normal; font-variant-alternates: normal; font-variant-position: normal; vertical-align: baseline; white-space-collapse: preserve;&quot;&gt;forca&lt;/span&gt;&lt;/span&gt;&lt;span&gt;&lt;span style=&quot;font-size: 11pt; font-family: Arial, sans-serif; background-color: transparent; font-variant-numeric: normal; font-variant-east-asian: normal; font-variant-alternates: normal; font-variant-position: normal; vertical-align: baseline; white-space-collapse: preserve;&quot;&gt;&lt;br&gt;&lt;/span&gt;&lt;/span&gt;&lt;/p&gt;&lt;p style=&quot;line-height: 100%; margin-top: 2px; margin-bottom: 2px;&quot;&gt;&lt;span id=&quot;docs-internal-guid-ab870ddc-7fff-c733-4c4e-f307968c8ce8&quot;&gt;&lt;span style=&quot;font-size: 11pt; font-family: Arial, sans-serif; background-color: transparent; font-variant-numeric: normal; font-variant-east-asian: normal; font-variant-alternates: normal; font-variant-position: normal; vertical-align: baseline; white-space-collapse: preserve;&quot;&gt;peso_maximo&lt;/span&gt;&lt;/span&gt;&lt;span&gt;&lt;span style=&quot;font-size: 11pt; font-family: Arial, sans-serif; background-color: transparent; font-variant-numeric: normal; font-variant-east-asian: normal; font-variant-alternates: normal; font-variant-position: normal; vertical-align: baseline; white-space-collapse: preserve;&quot;&gt;&lt;br&gt;&lt;/span&gt;&lt;/span&gt;&lt;/p&gt;&lt;p style=&quot;line-height: 100%; margin-top: 2px; margin-bottom: 2px;&quot;&gt;&lt;span id=&quot;docs-internal-guid-4bc39bea-7fff-d59a-d738-ee54279208b9&quot;&gt;&lt;span style=&quot;font-size: 11pt; font-family: Arial, sans-serif; background-color: transparent; font-variant-numeric: normal; font-variant-east-asian: normal; font-variant-alternates: normal; font-variant-position: normal; vertical-align: baseline; white-space-collapse: preserve;&quot;&gt;stamina&lt;/span&gt;&lt;/span&gt;&lt;span&gt;&lt;span style=&quot;font-size: 11pt; font-family: Arial, sans-serif; background-color: transparent; font-variant-numeric: normal; font-variant-east-asian: normal; font-variant-alternates: normal; font-variant-position: normal; vertical-align: baseline; white-space-collapse: preserve;&quot;&gt;&lt;br&gt;&lt;/span&gt;&lt;/span&gt;&lt;/p&gt;&lt;p style=&quot;line-height: 100%; margin-top: 2px; margin-bottom: 2px;&quot;&gt;&lt;span id=&quot;docs-internal-guid-f1aa317a-7fff-e3e8-5c72-22b1e95f97a4&quot;&gt;&lt;span style=&quot;font-size: 11pt; font-family: Arial, sans-serif; background-color: transparent; font-variant-numeric: normal; font-variant-east-asian: normal; font-variant-alternates: normal; font-variant-position: normal; vertical-align: baseline; white-space-collapse: preserve;&quot;&gt;mp&lt;/span&gt;&lt;/span&gt;&lt;/p&gt;&lt;p style=&quot;line-height: 100%; margin-top: 2px; margin-bottom: 2px;&quot;&gt;&lt;font face=&quot;Arial, sans-serif&quot;&gt;&lt;span style=&quot;font-size: 14.6667px; white-space-collapse: preserve;&quot;&gt;runas&lt;/span&gt;&lt;/font&gt;&lt;/p&gt;&lt;p style=&quot;line-height: 100%; margin-top: 2px; margin-bottom: 2px;&quot;&gt;&lt;span style=&quot;font-family: Arial, sans-serif; font-size: 14.6667px; white-space-collapse: preserve;&quot;&gt;id_nivel&lt;/span&gt;&lt;font face=&quot;Arial, sans-serif&quot;&gt;&lt;span style=&quot;font-size: 14.6667px; white-space-collapse: preserve;&quot;&gt;&lt;br&gt;&lt;/span&gt;&lt;/font&gt;&lt;/p&gt;&lt;p style=&quot;line-height: 100%; margin-top: 2px; margin-bottom: 2px;&quot;&gt;&lt;span id=&quot;docs-internal-guid-c7af0949-7fff-1a3b-9dbf-634b6a9e9e4d&quot;&gt;&lt;span style=&quot;font-size: 11pt; font-family: Arial, sans-serif; background-color: transparent; font-variant-numeric: normal; font-variant-east-asian: normal; font-variant-alternates: normal; font-variant-position: normal; vertical-align: baseline; white-space-collapse: preserve;&quot;&gt;id_classe&lt;/span&gt;&lt;/span&gt;&lt;font face=&quot;Arial, sans-serif&quot;&gt;&lt;span style=&quot;font-size: 14.6667px; white-space-collapse: preserve;&quot;&gt;&lt;br&gt;&lt;/span&gt;&lt;/font&gt;&lt;/p&gt;&lt;p style=&quot;line-height: 100%; margin-top: 2px; margin-bottom: 2px;&quot;&gt;&lt;span id=&quot;docs-internal-guid-f5a3716c-7fff-27cb-efbb-bca92fbd26fe&quot;&gt;&lt;span style=&quot;font-size: 11pt; font-family: Arial, sans-serif; background-color: transparent; font-variant-numeric: normal; font-variant-east-asian: normal; font-variant-alternates: normal; font-variant-position: normal; vertical-align: baseline; white-space-collapse: preserve;&quot;&gt;id_area&lt;/span&gt;&lt;/span&gt;&lt;span&gt;&lt;span style=&quot;font-size: 11pt; font-family: Arial, sans-serif; background-color: transparent; font-variant-numeric: normal; font-variant-east-asian: normal; font-variant-alternates: normal; font-variant-position: normal; vertical-align: baseline; white-space-collapse: preserve;&quot;&gt;&lt;br&gt;&lt;/span&gt;&lt;/span&gt;&lt;/p&gt;" style="shape=partialRectangle;html=1;whiteSpace=wrap;connectable=0;fillColor=none;top=1;left=0;bottom=1;right=0;align=left;spacingLeft=6;overflow=hidden;strokeColor=inherit;fontSize=16;noLabel=0;snapToPoint=0;horizontal=1;verticalAlign=top;" parent="v2UdAhtHkne79LI9UoaM-50" vertex="1">
          <mxGeometry x="45" width="159" height="290" as="geometry">
            <mxRectangle width="159" height="290" as="alternateBounds" />
          </mxGeometry>
        </mxCell>
        <mxCell id="v2UdAhtHkne79LI9UoaM-53" value="Classe" style="shape=table;startSize=30;container=1;collapsible=0;childLayout=tableLayout;fixedRows=1;rowLines=0;fontStyle=0;strokeColor=default;fontSize=16;" parent="WIyWlLk6GJQsqaUBKTNV-1" vertex="1">
          <mxGeometry x="3760" y="1100" width="200" height="200" as="geometry" />
        </mxCell>
        <mxCell id="v2UdAhtHkne79LI9UoaM-54" value="" style="shape=tableRow;horizontal=0;startSize=0;swimlaneHead=0;swimlaneBody=0;top=0;left=0;bottom=0;right=0;collapsible=0;dropTarget=0;fillColor=none;points=[[0,0.5],[1,0.5]];portConstraint=eastwest;strokeColor=inherit;fontSize=16;" parent="v2UdAhtHkne79LI9UoaM-53" vertex="1">
          <mxGeometry y="30" width="200" height="30" as="geometry" />
        </mxCell>
        <mxCell id="v2UdAhtHkne79LI9UoaM-55" value="PK" style="shape=partialRectangle;html=1;whiteSpace=wrap;connectable=0;fillColor=none;top=0;left=0;bottom=0;right=0;overflow=hidden;pointerEvents=1;strokeColor=inherit;fontSize=16;" parent="v2UdAhtHkne79LI9UoaM-54" vertex="1">
          <mxGeometry width="44" height="30" as="geometry">
            <mxRectangle width="44" height="30" as="alternateBounds" />
          </mxGeometry>
        </mxCell>
        <mxCell id="v2UdAhtHkne79LI9UoaM-56" value="&lt;span id=&quot;docs-internal-guid-f631e41e-7fff-d73c-ca9e-e82a4820749e&quot;&gt;&lt;span style=&quot;font-size: 11pt; font-family: Arial, sans-serif; background-color: transparent; font-variant-numeric: normal; font-variant-east-asian: normal; font-variant-alternates: normal; font-variant-position: normal; vertical-align: baseline; white-space-collapse: preserve;&quot;&gt;id_classe&lt;/span&gt;&lt;/span&gt;" style="shape=partialRectangle;html=1;whiteSpace=wrap;connectable=0;fillColor=none;top=0;left=0;bottom=0;right=0;align=left;spacingLeft=6;overflow=hidden;strokeColor=inherit;fontSize=16;horizontal=1;" parent="v2UdAhtHkne79LI9UoaM-54" vertex="1">
          <mxGeometry x="44" width="156" height="30" as="geometry">
            <mxRectangle width="156" height="30" as="alternateBounds" />
          </mxGeometry>
        </mxCell>
        <mxCell id="v2UdAhtHkne79LI9UoaM-57" value="" style="shape=tableRow;horizontal=0;startSize=0;swimlaneHead=0;swimlaneBody=0;top=0;left=0;bottom=0;right=0;collapsible=0;dropTarget=0;fillColor=none;points=[[0,0.5],[1,0.5]];portConstraint=eastwest;strokeColor=inherit;fontSize=16;verticalAlign=top;" parent="v2UdAhtHkne79LI9UoaM-53" vertex="1">
          <mxGeometry y="60" width="200" height="140" as="geometry" />
        </mxCell>
        <mxCell id="v2UdAhtHkne79LI9UoaM-58" value="" style="shape=partialRectangle;html=1;whiteSpace=wrap;connectable=0;fillColor=none;top=1;left=0;bottom=1;right=0;overflow=hidden;strokeColor=inherit;fontSize=16;noLabel=0;snapToPoint=0;" parent="v2UdAhtHkne79LI9UoaM-57" vertex="1">
          <mxGeometry width="44" height="140" as="geometry">
            <mxRectangle width="44" height="140" as="alternateBounds" />
          </mxGeometry>
        </mxCell>
        <mxCell id="v2UdAhtHkne79LI9UoaM-59" value="&lt;p style=&quot;line-height: 100%; margin-top: 2px; margin-bottom: 2px;&quot;&gt;&lt;span id=&quot;docs-internal-guid-1f823e37-7fff-f7b6-11d4-229c10f183b2&quot;&gt;&lt;span style=&quot;font-size: 11pt; font-family: Arial, sans-serif; background-color: transparent; font-variant-numeric: normal; font-variant-east-asian: normal; font-variant-alternates: normal; font-variant-position: normal; vertical-align: baseline; white-space-collapse: preserve;&quot;&gt;nome&lt;/span&gt;&lt;/span&gt;&lt;br&gt;&lt;/p&gt;&lt;p style=&quot;line-height: 100%; margin-top: 2px; margin-bottom: 2px;&quot;&gt;&lt;span id=&quot;docs-internal-guid-66696784-7fff-0a1d-2b62-2a7287d9cb6e&quot;&gt;&lt;span style=&quot;font-size: 11pt; font-family: Arial, sans-serif; background-color: transparent; font-variant-numeric: normal; font-variant-east-asian: normal; font-variant-alternates: normal; font-variant-position: normal; vertical-align: baseline; white-space-collapse: preserve;&quot;&gt;base_vitalidade&lt;/span&gt;&lt;/span&gt;&lt;span&gt;&lt;span style=&quot;font-size: 11pt; font-family: Arial, sans-serif; background-color: transparent; font-variant-numeric: normal; font-variant-east-asian: normal; font-variant-alternates: normal; font-variant-position: normal; vertical-align: baseline; white-space-collapse: preserve;&quot;&gt;&lt;br&gt;&lt;/span&gt;&lt;/span&gt;&lt;/p&gt;&lt;p style=&quot;line-height: 100%; margin-top: 2px; margin-bottom: 2px;&quot;&gt;&lt;span id=&quot;docs-internal-guid-961fafae-7fff-15de-0999-beb97e988114&quot;&gt;&lt;span style=&quot;font-size: 11pt; font-family: Arial, sans-serif; background-color: transparent; font-variant-numeric: normal; font-variant-east-asian: normal; font-variant-alternates: normal; font-variant-position: normal; vertical-align: baseline; white-space-collapse: preserve;&quot;&gt;base_vigor&lt;/span&gt;&lt;/span&gt;&lt;span&gt;&lt;span style=&quot;font-size: 11pt; font-family: Arial, sans-serif; background-color: transparent; font-variant-numeric: normal; font-variant-east-asian: normal; font-variant-alternates: normal; font-variant-position: normal; vertical-align: baseline; white-space-collapse: preserve;&quot;&gt;&lt;br&gt;&lt;/span&gt;&lt;/span&gt;&lt;/p&gt;&lt;p style=&quot;line-height: 100%; margin-top: 2px; margin-bottom: 2px;&quot;&gt;&lt;span id=&quot;docs-internal-guid-819da0a8-7fff-229e-0369-e50621905e2f&quot;&gt;&lt;span style=&quot;font-size: 11pt; font-family: Arial, sans-serif; background-color: transparent; font-variant-numeric: normal; font-variant-east-asian: normal; font-variant-alternates: normal; font-variant-position: normal; vertical-align: baseline; white-space-collapse: preserve;&quot;&gt;base_int&lt;/span&gt;&lt;/span&gt;&lt;span&gt;&lt;span style=&quot;font-size: 11pt; font-family: Arial, sans-serif; background-color: transparent; font-variant-numeric: normal; font-variant-east-asian: normal; font-variant-alternates: normal; font-variant-position: normal; vertical-align: baseline; white-space-collapse: preserve;&quot;&gt;&lt;br&gt;&lt;/span&gt;&lt;/span&gt;&lt;/p&gt;&lt;p style=&quot;line-height: 100%; margin-top: 2px; margin-bottom: 2px;&quot;&gt;&lt;span id=&quot;docs-internal-guid-f1d9ef55-7fff-3470-c0bc-62cb55bc47f4&quot;&gt;&lt;span style=&quot;font-size: 11pt; font-family: Arial, sans-serif; background-color: transparent; font-variant-numeric: normal; font-variant-east-asian: normal; font-variant-alternates: normal; font-variant-position: normal; vertical-align: baseline; white-space-collapse: preserve;&quot;&gt;base_fe&lt;/span&gt;&lt;/span&gt;&lt;span&gt;&lt;span style=&quot;font-size: 11pt; font-family: Arial, sans-serif; background-color: transparent; font-variant-numeric: normal; font-variant-east-asian: normal; font-variant-alternates: normal; font-variant-position: normal; vertical-align: baseline; white-space-collapse: preserve;&quot;&gt;&lt;br&gt;&lt;/span&gt;&lt;/span&gt;&lt;/p&gt;&lt;p style=&quot;line-height: 100%; margin-top: 2px; margin-bottom: 2px;&quot;&gt;&lt;span id=&quot;docs-internal-guid-3d2ed249-7fff-4402-9e8c-9f5d3a81be07&quot;&gt;&lt;span style=&quot;font-size: 11pt; font-family: Arial, sans-serif; background-color: transparent; font-variant-numeric: normal; font-variant-east-asian: normal; font-variant-alternates: normal; font-variant-position: normal; vertical-align: baseline; white-space-collapse: preserve;&quot;&gt;base_destreza&lt;/span&gt;&lt;/span&gt;&lt;span&gt;&lt;span style=&quot;font-size: 11pt; font-family: Arial, sans-serif; background-color: transparent; font-variant-numeric: normal; font-variant-east-asian: normal; font-variant-alternates: normal; font-variant-position: normal; vertical-align: baseline; white-space-collapse: preserve;&quot;&gt;&lt;br&gt;&lt;/span&gt;&lt;/span&gt;&lt;/p&gt;&lt;p style=&quot;line-height: 100%; margin-top: 2px; margin-bottom: 2px;&quot;&gt;&lt;span id=&quot;docs-internal-guid-61114a3c-7fff-6522-dc71-2fc00d107c6e&quot;&gt;&lt;span style=&quot;font-size: 11pt; font-family: Arial, sans-serif; background-color: transparent; font-variant-numeric: normal; font-variant-east-asian: normal; font-variant-alternates: normal; font-variant-position: normal; vertical-align: baseline; white-space-collapse: preserve;&quot;&gt;base_forca &lt;/span&gt;&lt;/span&gt;&lt;span&gt;&lt;span style=&quot;font-size: 11pt; font-family: Arial, sans-serif; background-color: transparent; font-variant-numeric: normal; font-variant-east-asian: normal; font-variant-alternates: normal; font-variant-position: normal; vertical-align: baseline; white-space-collapse: preserve;&quot;&gt;&lt;br&gt;&lt;/span&gt;&lt;/span&gt;&lt;/p&gt;" style="shape=partialRectangle;html=1;whiteSpace=wrap;connectable=0;fillColor=none;top=1;left=0;bottom=1;right=0;align=left;spacingLeft=6;overflow=hidden;strokeColor=inherit;fontSize=16;noLabel=0;snapToPoint=0;horizontal=1;verticalAlign=top;" parent="v2UdAhtHkne79LI9UoaM-57" vertex="1">
          <mxGeometry x="44" width="156" height="140" as="geometry">
            <mxRectangle width="156" height="140" as="alternateBounds" />
          </mxGeometry>
        </mxCell>
        <mxCell id="v2UdAhtHkne79LI9UoaM-60" style="edgeStyle=orthogonalEdgeStyle;rounded=0;orthogonalLoop=1;jettySize=auto;html=1;exitX=1;exitY=0.5;exitDx=0;exitDy=0;entryX=0;entryY=0.5;entryDx=0;entryDy=0;" parent="WIyWlLk6GJQsqaUBKTNV-1" source="v2UdAhtHkne79LI9UoaM-41" target="v2UdAhtHkne79LI9UoaM-31" edge="1">
          <mxGeometry relative="1" as="geometry" />
        </mxCell>
        <mxCell id="v2UdAhtHkne79LI9UoaM-62" style="edgeStyle=orthogonalEdgeStyle;rounded=0;orthogonalLoop=1;jettySize=auto;html=1;exitX=0.005;exitY=0.934;exitDx=0;exitDy=0;entryX=0;entryY=0.5;entryDx=0;entryDy=0;exitPerimeter=0;" parent="WIyWlLk6GJQsqaUBKTNV-1" source="v2UdAhtHkne79LI9UoaM-50" target="v2UdAhtHkne79LI9UoaM-41" edge="1">
          <mxGeometry relative="1" as="geometry">
            <Array as="points">
              <mxPoint x="3260" y="1181" />
              <mxPoint x="3240" y="1180" />
              <mxPoint x="3240" y="630" />
            </Array>
          </mxGeometry>
        </mxCell>
        <mxCell id="v2UdAhtHkne79LI9UoaM-64" style="edgeStyle=orthogonalEdgeStyle;rounded=0;orthogonalLoop=1;jettySize=auto;html=1;exitX=1.008;exitY=0.813;exitDx=0;exitDy=0;entryX=0;entryY=0.5;entryDx=0;entryDy=0;exitPerimeter=0;" parent="WIyWlLk6GJQsqaUBKTNV-1" source="v2UdAhtHkne79LI9UoaM-50" target="v2UdAhtHkne79LI9UoaM-54" edge="1">
          <mxGeometry relative="1" as="geometry" />
        </mxCell>
        <mxCell id="v2UdAhtHkne79LI9UoaM-65" value="Subir_Nivel " style="shape=table;startSize=30;container=1;collapsible=0;childLayout=tableLayout;fixedRows=1;rowLines=0;fontStyle=0;strokeColor=default;fontSize=16;" parent="WIyWlLk6GJQsqaUBKTNV-1" vertex="1">
          <mxGeometry x="2940" y="1005" width="200" height="135" as="geometry" />
        </mxCell>
        <mxCell id="v2UdAhtHkne79LI9UoaM-66" value="" style="shape=tableRow;horizontal=0;startSize=0;swimlaneHead=0;swimlaneBody=0;top=0;left=0;bottom=0;right=0;collapsible=0;dropTarget=0;fillColor=none;points=[[0,0.5],[1,0.5]];portConstraint=eastwest;strokeColor=inherit;fontSize=16;" parent="v2UdAhtHkne79LI9UoaM-65" vertex="1">
          <mxGeometry y="30" width="200" height="65" as="geometry" />
        </mxCell>
        <mxCell id="v2UdAhtHkne79LI9UoaM-67" value="PK&lt;div&gt;SK&lt;/div&gt;" style="shape=partialRectangle;html=1;whiteSpace=wrap;connectable=0;fillColor=none;top=0;left=0;bottom=0;right=0;overflow=hidden;pointerEvents=1;strokeColor=inherit;fontSize=16;" parent="v2UdAhtHkne79LI9UoaM-66" vertex="1">
          <mxGeometry width="44" height="65" as="geometry">
            <mxRectangle width="44" height="65" as="alternateBounds" />
          </mxGeometry>
        </mxCell>
        <mxCell id="v2UdAhtHkne79LI9UoaM-68" value="&lt;span id=&quot;docs-internal-guid-97d56221-7fff-46c4-c76d-a272a2c5222d&quot;&gt;&lt;span style=&quot;font-size: 11pt; font-family: Arial, sans-serif; background-color: transparent; font-variant-numeric: normal; font-variant-east-asian: normal; font-variant-alternates: normal; font-variant-position: normal; vertical-align: baseline; white-space-collapse: preserve;&quot;&gt;id_nivel&lt;/span&gt;&lt;/span&gt;&lt;div&gt;&lt;span id=&quot;docs-internal-guid-935f9e74-7fff-55d8-dc30-5875682f659f&quot;&gt;&lt;span style=&quot;font-size: 11pt; font-family: Arial, sans-serif; background-color: transparent; font-variant-numeric: normal; font-variant-east-asian: normal; font-variant-alternates: normal; font-variant-position: normal; vertical-align: baseline; white-space-collapse: preserve;&quot;&gt;nro_nivel &lt;/span&gt;&lt;/span&gt;&lt;span&gt;&lt;span style=&quot;font-size: 11pt; font-family: Arial, sans-serif; background-color: transparent; font-variant-numeric: normal; font-variant-east-asian: normal; font-variant-alternates: normal; font-variant-position: normal; vertical-align: baseline; white-space-collapse: preserve;&quot;&gt;&lt;br&gt;&lt;/span&gt;&lt;/span&gt;&lt;/div&gt;" style="shape=partialRectangle;html=1;whiteSpace=wrap;connectable=0;fillColor=none;top=0;left=0;bottom=0;right=0;align=left;spacingLeft=6;overflow=hidden;strokeColor=inherit;fontSize=16;horizontal=1;" parent="v2UdAhtHkne79LI9UoaM-66" vertex="1">
          <mxGeometry x="44" width="156" height="65" as="geometry">
            <mxRectangle width="156" height="65" as="alternateBounds" />
          </mxGeometry>
        </mxCell>
        <mxCell id="v2UdAhtHkne79LI9UoaM-69" value="" style="shape=tableRow;horizontal=0;startSize=0;swimlaneHead=0;swimlaneBody=0;top=0;left=0;bottom=0;right=0;collapsible=0;dropTarget=0;fillColor=none;points=[[0,0.5],[1,0.5]];portConstraint=eastwest;strokeColor=inherit;fontSize=16;verticalAlign=top;" parent="v2UdAhtHkne79LI9UoaM-65" vertex="1">
          <mxGeometry y="95" width="200" height="40" as="geometry" />
        </mxCell>
        <mxCell id="v2UdAhtHkne79LI9UoaM-70" value="" style="shape=partialRectangle;html=1;whiteSpace=wrap;connectable=0;fillColor=none;top=1;left=0;bottom=1;right=0;overflow=hidden;strokeColor=inherit;fontSize=16;noLabel=0;snapToPoint=0;" parent="v2UdAhtHkne79LI9UoaM-69" vertex="1">
          <mxGeometry width="44" height="40" as="geometry">
            <mxRectangle width="44" height="40" as="alternateBounds" />
          </mxGeometry>
        </mxCell>
        <mxCell id="v2UdAhtHkne79LI9UoaM-71" value="&lt;p style=&quot;line-height: 100%; margin-top: 2px; margin-bottom: 2px;&quot;&gt;&lt;span id=&quot;docs-internal-guid-da609e2c-7fff-dd6b-03e4-f1873841350f&quot;&gt;&lt;span style=&quot;font-size: 11pt; font-family: Arial, sans-serif; background-color: transparent; font-variant-numeric: normal; font-variant-east-asian: normal; font-variant-alternates: normal; font-variant-position: normal; vertical-align: baseline; white-space-collapse: preserve;&quot;&gt;runas_necessarias&lt;/span&gt;&lt;/span&gt;&lt;br&gt;&lt;/p&gt;" style="shape=partialRectangle;html=1;whiteSpace=wrap;connectable=0;fillColor=none;top=1;left=0;bottom=1;right=0;align=left;spacingLeft=6;overflow=hidden;strokeColor=inherit;fontSize=16;noLabel=0;snapToPoint=0;horizontal=1;verticalAlign=top;" parent="v2UdAhtHkne79LI9UoaM-69" vertex="1">
          <mxGeometry x="44" width="156" height="40" as="geometry">
            <mxRectangle width="156" height="40" as="alternateBounds" />
          </mxGeometry>
        </mxCell>
        <mxCell id="v2UdAhtHkne79LI9UoaM-73" style="edgeStyle=orthogonalEdgeStyle;rounded=0;orthogonalLoop=1;jettySize=auto;html=1;exitX=-0.006;exitY=0.796;exitDx=0;exitDy=0;entryX=1;entryY=0.5;entryDx=0;entryDy=0;exitPerimeter=0;" parent="WIyWlLk6GJQsqaUBKTNV-1" source="v2UdAhtHkne79LI9UoaM-50" target="v2UdAhtHkne79LI9UoaM-66" edge="1">
          <mxGeometry relative="1" as="geometry" />
        </mxCell>
        <mxCell id="v2UdAhtHkne79LI9UoaM-74" value="Area_de_Morte " style="shape=table;startSize=30;container=1;collapsible=0;childLayout=tableLayout;fixedRows=1;rowLines=0;fontStyle=0;strokeColor=default;fontSize=16;" parent="WIyWlLk6GJQsqaUBKTNV-1" vertex="1">
          <mxGeometry x="3630" y="680" width="218" height="130" as="geometry" />
        </mxCell>
        <mxCell id="v2UdAhtHkne79LI9UoaM-75" value="" style="shape=tableRow;horizontal=0;startSize=0;swimlaneHead=0;swimlaneBody=0;top=0;left=0;bottom=0;right=0;collapsible=0;dropTarget=0;fillColor=none;points=[[0,0.5],[1,0.5]];portConstraint=eastwest;strokeColor=inherit;fontSize=16;" parent="v2UdAhtHkne79LI9UoaM-74" vertex="1">
          <mxGeometry y="30" width="218" height="50" as="geometry" />
        </mxCell>
        <mxCell id="v2UdAhtHkne79LI9UoaM-76" value="PK&lt;div&gt;FK, SK&lt;/div&gt;" style="shape=partialRectangle;html=1;whiteSpace=wrap;connectable=0;fillColor=none;top=0;left=0;bottom=0;right=0;overflow=hidden;pointerEvents=1;strokeColor=inherit;fontSize=16;" parent="v2UdAhtHkne79LI9UoaM-75" vertex="1">
          <mxGeometry width="57" height="50" as="geometry">
            <mxRectangle width="57" height="50" as="alternateBounds" />
          </mxGeometry>
        </mxCell>
        <mxCell id="v2UdAhtHkne79LI9UoaM-77" value="&lt;span id=&quot;docs-internal-guid-bd97d2b2-7fff-eb5e-d437-71d8e2c1c94b&quot;&gt;&lt;span style=&quot;font-size: 11pt; font-family: Arial, sans-serif; background-color: transparent; font-variant-numeric: normal; font-variant-east-asian: normal; font-variant-alternates: normal; font-variant-position: normal; vertical-align: baseline; white-space-collapse: preserve;&quot;&gt;id_area_de_morte&lt;/span&gt;&lt;/span&gt;&lt;div&gt;&lt;span id=&quot;docs-internal-guid-fc1df192-7fff-1ada-0285-02106c4f0833&quot;&gt;&lt;span style=&quot;font-size: 11pt; font-family: Arial, sans-serif; background-color: transparent; font-variant-numeric: normal; font-variant-east-asian: normal; font-variant-alternates: normal; font-variant-position: normal; vertical-align: baseline; white-space-collapse: preserve;&quot;&gt;id_jogador&lt;/span&gt;&lt;/span&gt;&lt;span&gt;&lt;span style=&quot;font-size: 11pt; font-family: Arial, sans-serif; background-color: transparent; font-variant-numeric: normal; font-variant-east-asian: normal; font-variant-alternates: normal; font-variant-position: normal; vertical-align: baseline; white-space-collapse: preserve;&quot;&gt;&lt;br&gt;&lt;/span&gt;&lt;/span&gt;&lt;/div&gt;" style="shape=partialRectangle;html=1;whiteSpace=wrap;connectable=0;fillColor=none;top=0;left=0;bottom=0;right=0;align=left;spacingLeft=6;overflow=hidden;strokeColor=inherit;fontSize=16;horizontal=1;" parent="v2UdAhtHkne79LI9UoaM-75" vertex="1">
          <mxGeometry x="57" width="161" height="50" as="geometry">
            <mxRectangle width="161" height="50" as="alternateBounds" />
          </mxGeometry>
        </mxCell>
        <mxCell id="v2UdAhtHkne79LI9UoaM-78" value="" style="shape=tableRow;horizontal=0;startSize=0;swimlaneHead=0;swimlaneBody=0;top=0;left=0;bottom=0;right=0;collapsible=0;dropTarget=0;fillColor=none;points=[[0,0.5],[1,0.5]];portConstraint=eastwest;strokeColor=inherit;fontSize=16;verticalAlign=top;" parent="v2UdAhtHkne79LI9UoaM-74" vertex="1">
          <mxGeometry y="80" width="218" height="50" as="geometry" />
        </mxCell>
        <mxCell id="v2UdAhtHkne79LI9UoaM-79" value="&lt;div&gt;&lt;br&gt;&lt;/div&gt;FK" style="shape=partialRectangle;html=1;whiteSpace=wrap;connectable=0;fillColor=none;top=1;left=0;bottom=1;right=0;overflow=hidden;strokeColor=inherit;fontSize=16;noLabel=0;snapToPoint=0;" parent="v2UdAhtHkne79LI9UoaM-78" vertex="1">
          <mxGeometry width="57" height="50" as="geometry">
            <mxRectangle width="57" height="50" as="alternateBounds" />
          </mxGeometry>
        </mxCell>
        <mxCell id="v2UdAhtHkne79LI9UoaM-80" value="&lt;p style=&quot;line-height: 100%; margin-top: 2px; margin-bottom: 2px;&quot;&gt;&lt;span id=&quot;docs-internal-guid-91809c16-7fff-058e-6640-a2003f406c95&quot;&gt;&lt;span style=&quot;font-size: 11pt; font-family: Arial, sans-serif; background-color: transparent; font-variant-numeric: normal; font-variant-east-asian: normal; font-variant-alternates: normal; font-variant-position: normal; vertical-align: baseline; white-space-collapse: preserve;&quot;&gt;runas_dropadas&lt;/span&gt;&lt;/span&gt;&lt;br&gt;&lt;/p&gt;&lt;p style=&quot;line-height: 100%; margin-top: 2px; margin-bottom: 2px;&quot;&gt;&lt;span id=&quot;docs-internal-guid-91eb5d2d-7fff-44e5-e11c-e6db3be9bfaa&quot;&gt;&lt;span style=&quot;font-size: 11pt; font-family: Arial, sans-serif; background-color: transparent; font-variant-numeric: normal; font-variant-east-asian: normal; font-variant-alternates: normal; font-variant-position: normal; vertical-align: baseline; white-space-collapse: preserve;&quot;&gt;id_area&lt;/span&gt;&lt;/span&gt;&lt;br&gt;&lt;/p&gt;" style="shape=partialRectangle;html=1;whiteSpace=wrap;connectable=0;fillColor=none;top=1;left=0;bottom=1;right=0;align=left;spacingLeft=6;overflow=hidden;strokeColor=inherit;fontSize=16;noLabel=0;snapToPoint=0;horizontal=1;verticalAlign=top;" parent="v2UdAhtHkne79LI9UoaM-78" vertex="1">
          <mxGeometry x="57" width="161" height="50" as="geometry">
            <mxRectangle width="161" height="50" as="alternateBounds" />
          </mxGeometry>
        </mxCell>
        <mxCell id="v2UdAhtHkne79LI9UoaM-87" style="edgeStyle=elbowEdgeStyle;rounded=0;orthogonalLoop=1;jettySize=auto;html=1;entryX=0.995;entryY=0.664;entryDx=0;entryDy=0;entryPerimeter=0;" parent="WIyWlLk6GJQsqaUBKTNV-1" source="v2UdAhtHkne79LI9UoaM-78" target="v2UdAhtHkne79LI9UoaM-38" edge="1">
          <mxGeometry relative="1" as="geometry">
            <mxPoint x="3594" y="845" as="sourcePoint" />
            <mxPoint x="3470" y="590" as="targetPoint" />
            <Array as="points">
              <mxPoint x="3510" y="710" />
            </Array>
          </mxGeometry>
        </mxCell>
        <mxCell id="v2UdAhtHkne79LI9UoaM-93" style="edgeStyle=orthogonalEdgeStyle;rounded=0;orthogonalLoop=1;jettySize=auto;html=1;exitX=0;exitY=0.5;exitDx=0;exitDy=0;entryX=0.5;entryY=0;entryDx=0;entryDy=0;" parent="WIyWlLk6GJQsqaUBKTNV-1" source="v2UdAhtHkne79LI9UoaM-75" target="v2UdAhtHkne79LI9UoaM-46" edge="1">
          <mxGeometry relative="1" as="geometry">
            <mxPoint x="3430" y="880" as="targetPoint" />
          </mxGeometry>
        </mxCell>
        <mxCell id="v2UdAhtHkne79LI9UoaM-101" value="Ferreiro " style="shape=table;startSize=30;container=1;collapsible=0;childLayout=tableLayout;fixedRows=1;rowLines=0;fontStyle=0;strokeColor=default;fontSize=16;" parent="WIyWlLk6GJQsqaUBKTNV-1" vertex="1">
          <mxGeometry x="2290" y="1520" width="200" height="220" as="geometry" />
        </mxCell>
        <mxCell id="v2UdAhtHkne79LI9UoaM-102" value="" style="shape=tableRow;horizontal=0;startSize=0;swimlaneHead=0;swimlaneBody=0;top=0;left=0;bottom=0;right=0;collapsible=0;dropTarget=0;fillColor=none;points=[[0,0.5],[1,0.5]];portConstraint=eastwest;strokeColor=inherit;fontSize=16;" parent="v2UdAhtHkne79LI9UoaM-101" vertex="1">
          <mxGeometry y="30" width="200" height="30" as="geometry" />
        </mxCell>
        <mxCell id="v2UdAhtHkne79LI9UoaM-103" value="PK" style="shape=partialRectangle;html=1;whiteSpace=wrap;connectable=0;fillColor=none;top=0;left=0;bottom=0;right=0;overflow=hidden;pointerEvents=1;strokeColor=inherit;fontSize=16;" parent="v2UdAhtHkne79LI9UoaM-102" vertex="1">
          <mxGeometry width="44" height="30" as="geometry">
            <mxRectangle width="44" height="30" as="alternateBounds" />
          </mxGeometry>
        </mxCell>
        <mxCell id="v2UdAhtHkne79LI9UoaM-104" value="&lt;span id=&quot;docs-internal-guid-065b79fe-7fff-9a77-18f3-2db532187a32&quot;&gt;&lt;span style=&quot;font-size: 11pt; font-family: Arial, sans-serif; background-color: transparent; font-variant-numeric: normal; font-variant-east-asian: normal; font-variant-alternates: normal; font-variant-position: normal; vertical-align: baseline; white-space-collapse: preserve;&quot;&gt;id_ferreiro &lt;/span&gt;&lt;/span&gt;" style="shape=partialRectangle;html=1;whiteSpace=wrap;connectable=0;fillColor=none;top=0;left=0;bottom=0;right=0;align=left;spacingLeft=6;overflow=hidden;strokeColor=inherit;fontSize=16;horizontal=1;" parent="v2UdAhtHkne79LI9UoaM-102" vertex="1">
          <mxGeometry x="44" width="156" height="30" as="geometry">
            <mxRectangle width="156" height="30" as="alternateBounds" />
          </mxGeometry>
        </mxCell>
        <mxCell id="v2UdAhtHkne79LI9UoaM-105" value="" style="shape=tableRow;horizontal=0;startSize=0;swimlaneHead=0;swimlaneBody=0;top=0;left=0;bottom=0;right=0;collapsible=0;dropTarget=0;fillColor=none;points=[[0,0.5],[1,0.5]];portConstraint=eastwest;strokeColor=inherit;fontSize=16;verticalAlign=top;" parent="v2UdAhtHkne79LI9UoaM-101" vertex="1">
          <mxGeometry y="60" width="200" height="160" as="geometry" />
        </mxCell>
        <mxCell id="v2UdAhtHkne79LI9UoaM-106" value="" style="shape=partialRectangle;html=1;whiteSpace=wrap;connectable=0;fillColor=none;top=1;left=0;bottom=1;right=0;overflow=hidden;strokeColor=inherit;fontSize=16;noLabel=0;snapToPoint=0;" parent="v2UdAhtHkne79LI9UoaM-105" vertex="1">
          <mxGeometry width="44" height="160" as="geometry">
            <mxRectangle width="44" height="160" as="alternateBounds" />
          </mxGeometry>
        </mxCell>
        <mxCell id="v2UdAhtHkne79LI9UoaM-107" value="&lt;p style=&quot;line-height: 16px; margin-top: 2px; margin-bottom: 2px;&quot;&gt;&lt;span id=&quot;docs-internal-guid-1afb51a7-7fff-adfa-c0f6-048096027afc&quot;&gt;&lt;span style=&quot;font-size: 11pt; font-family: Arial, sans-serif; background-color: transparent; font-variant-numeric: normal; font-variant-east-asian: normal; font-variant-alternates: normal; font-variant-position: normal; vertical-align: baseline; white-space-collapse: preserve;&quot;&gt;funcao&lt;/span&gt;&lt;/span&gt;&lt;br&gt;&lt;/p&gt;&lt;p style=&quot;line-height: 16px; margin-top: 2px; margin-bottom: 2px;&quot;&gt;&lt;span id=&quot;docs-internal-guid-c318ecd9-7fff-c42d-f135-e6895eb064d3&quot;&gt;&lt;span style=&quot;font-size: 11pt; font-family: Arial, sans-serif; background-color: transparent; font-variant-numeric: normal; font-variant-east-asian: normal; font-variant-alternates: normal; font-variant-position: normal; vertical-align: baseline; white-space-collapse: preserve;&quot;&gt;esta_hostil&lt;/span&gt;&lt;/span&gt;&lt;span style=&quot;font-size: 11pt; font-family: Arial, sans-serif; background-color: transparent; font-variant-numeric: normal; font-variant-east-asian: normal; font-variant-alternates: normal; font-variant-position: normal; vertical-align: baseline; white-space-collapse: preserve;&quot;&gt;&lt;br&gt;&lt;/span&gt;&lt;/p&gt;&lt;p style=&quot;line-height: 16px; margin-top: 2px; margin-bottom: 2px;&quot;&gt;&lt;span id=&quot;docs-internal-guid-128dbace-7fff-d433-2f5d-5eabf77b7272&quot;&gt;&lt;span style=&quot;font-size: 11pt; font-family: Arial, sans-serif; background-color: transparent; font-variant-numeric: normal; font-variant-east-asian: normal; font-variant-alternates: normal; font-variant-position: normal; vertical-align: baseline; white-space-collapse: preserve;&quot;&gt;resistencia&lt;/span&gt;&lt;/span&gt;&lt;span style=&quot;font-size: 11pt; font-family: Arial, sans-serif; background-color: transparent; font-variant-numeric: normal; font-variant-east-asian: normal; font-variant-alternates: normal; font-variant-position: normal; vertical-align: baseline; white-space-collapse: preserve;&quot;&gt;&lt;br&gt;&lt;/span&gt;&lt;/p&gt;&lt;p style=&quot;line-height: 16px; margin-top: 2px; margin-bottom: 2px;&quot;&gt;&lt;span id=&quot;docs-internal-guid-0ccb7a14-7fff-df71-784e-f1c155ebce9b&quot;&gt;&lt;span style=&quot;font-size: 11pt; font-family: Arial, sans-serif; background-color: transparent; font-variant-numeric: normal; font-variant-east-asian: normal; font-variant-alternates: normal; font-variant-position: normal; vertical-align: baseline; white-space-collapse: preserve;&quot;&gt;fraqueza&lt;/span&gt;&lt;/span&gt;&lt;span style=&quot;font-size: 11pt; font-family: Arial, sans-serif; background-color: transparent; font-variant-numeric: normal; font-variant-east-asian: normal; font-variant-alternates: normal; font-variant-position: normal; vertical-align: baseline; white-space-collapse: preserve;&quot;&gt;&lt;br&gt;&lt;/span&gt;&lt;/p&gt;&lt;p style=&quot;line-height: 16px; margin-top: 2px; margin-bottom: 2px;&quot;&gt;&lt;span id=&quot;docs-internal-guid-047b7ae8-7fff-ef1c-21b9-ed77b8745935&quot;&gt;&lt;span style=&quot;font-size: 11pt; font-family: Arial, sans-serif; background-color: transparent; font-variant-numeric: normal; font-variant-east-asian: normal; font-variant-alternates: normal; font-variant-position: normal; vertical-align: baseline; white-space-collapse: preserve;&quot;&gt;drop_runas&lt;/span&gt;&lt;/span&gt;&lt;span style=&quot;font-size: 11pt; font-family: Arial, sans-serif; background-color: transparent; font-variant-numeric: normal; font-variant-east-asian: normal; font-variant-alternates: normal; font-variant-position: normal; vertical-align: baseline; white-space-collapse: preserve;&quot;&gt;&lt;br&gt;&lt;/span&gt;&lt;/p&gt;&lt;p style=&quot;line-height: 16px; margin-top: 2px; margin-bottom: 2px;&quot;&gt;&lt;span id=&quot;docs-internal-guid-6d2343f9-7fff-1b7c-17f2-91c780a77ade&quot;&gt;&lt;span style=&quot;font-size: 11pt; font-family: Arial, sans-serif; background-color: transparent; font-variant-numeric: normal; font-variant-east-asian: normal; font-variant-alternates: normal; font-variant-position: normal; vertical-align: baseline; white-space-collapse: preserve;&quot;&gt;nome&lt;/span&gt;&lt;/span&gt;&lt;br&gt;&lt;/p&gt;&lt;p style=&quot;line-height: 16px; margin-top: 2px; margin-bottom: 2px;&quot;&gt;&lt;span id=&quot;docs-internal-guid-c55acf81-7fff-244a-fdf5-20c4c6c7b7da&quot;&gt;&lt;span style=&quot;font-size: 11pt; font-family: Arial, sans-serif; background-color: transparent; font-variant-numeric: normal; font-variant-east-asian: normal; font-variant-alternates: normal; font-variant-position: normal; vertical-align: baseline; white-space-collapse: preserve;&quot;&gt;hp&lt;/span&gt;&lt;/span&gt;&lt;span style=&quot;font-size: 11pt; font-family: Arial, sans-serif; background-color: transparent; font-variant-numeric: normal; font-variant-east-asian: normal; font-variant-alternates: normal; font-variant-position: normal; vertical-align: baseline; white-space-collapse: preserve;&quot;&gt;&lt;br&gt;&lt;/span&gt;&lt;/p&gt;&lt;p style=&quot;line-height: 16px; margin-top: 2px; margin-bottom: 2px;&quot;&gt;&lt;span id=&quot;docs-internal-guid-01abef02-7fff-2f96-91b4-3d9d5f30eb0b&quot;&gt;&lt;span style=&quot;font-size: 11pt; font-family: Arial, sans-serif; background-color: transparent; font-variant-numeric: normal; font-variant-east-asian: normal; font-variant-alternates: normal; font-variant-position: normal; vertical-align: baseline; white-space-collapse: preserve;&quot;&gt;vitalidade&lt;/span&gt;&lt;/span&gt;&lt;/p&gt;" style="shape=partialRectangle;html=1;whiteSpace=wrap;connectable=0;fillColor=none;top=1;left=0;bottom=1;right=0;align=left;spacingLeft=6;overflow=hidden;strokeColor=inherit;fontSize=16;noLabel=0;snapToPoint=0;horizontal=1;verticalAlign=top;" parent="v2UdAhtHkne79LI9UoaM-105" vertex="1">
          <mxGeometry x="44" width="156" height="160" as="geometry">
            <mxRectangle width="156" height="160" as="alternateBounds" />
          </mxGeometry>
        </mxCell>
        <mxCell id="v2UdAhtHkne79LI9UoaM-108" value="Inimigo " style="shape=table;startSize=30;container=1;collapsible=0;childLayout=tableLayout;fixedRows=1;rowLines=0;fontStyle=0;strokeColor=default;fontSize=16;" parent="WIyWlLk6GJQsqaUBKTNV-1" vertex="1">
          <mxGeometry x="2010" y="1380" width="200" height="240" as="geometry" />
        </mxCell>
        <mxCell id="v2UdAhtHkne79LI9UoaM-109" value="" style="shape=tableRow;horizontal=0;startSize=0;swimlaneHead=0;swimlaneBody=0;top=0;left=0;bottom=0;right=0;collapsible=0;dropTarget=0;fillColor=none;points=[[0,0.5],[1,0.5]];portConstraint=eastwest;strokeColor=inherit;fontSize=16;" parent="v2UdAhtHkne79LI9UoaM-108" vertex="1">
          <mxGeometry y="30" width="200" height="30" as="geometry" />
        </mxCell>
        <mxCell id="v2UdAhtHkne79LI9UoaM-110" value="PK" style="shape=partialRectangle;html=1;whiteSpace=wrap;connectable=0;fillColor=none;top=0;left=0;bottom=0;right=0;overflow=hidden;pointerEvents=1;strokeColor=inherit;fontSize=16;" parent="v2UdAhtHkne79LI9UoaM-109" vertex="1">
          <mxGeometry width="44" height="30" as="geometry">
            <mxRectangle width="44" height="30" as="alternateBounds" />
          </mxGeometry>
        </mxCell>
        <mxCell id="v2UdAhtHkne79LI9UoaM-111" value="&lt;span id=&quot;docs-internal-guid-92d52973-7fff-9a64-9e7a-e45d0ab4c4ce&quot;&gt;&lt;span style=&quot;font-size: 11pt; font-family: Arial, sans-serif; background-color: transparent; font-variant-numeric: normal; font-variant-east-asian: normal; font-variant-alternates: normal; font-variant-position: normal; vertical-align: baseline; white-space-collapse: preserve;&quot;&gt;id_inimigo&lt;/span&gt;&lt;/span&gt;" style="shape=partialRectangle;html=1;whiteSpace=wrap;connectable=0;fillColor=none;top=0;left=0;bottom=0;right=0;align=left;spacingLeft=6;overflow=hidden;strokeColor=inherit;fontSize=16;horizontal=1;" parent="v2UdAhtHkne79LI9UoaM-109" vertex="1">
          <mxGeometry x="44" width="156" height="30" as="geometry">
            <mxRectangle width="156" height="30" as="alternateBounds" />
          </mxGeometry>
        </mxCell>
        <mxCell id="v2UdAhtHkne79LI9UoaM-112" value="" style="shape=tableRow;horizontal=0;startSize=0;swimlaneHead=0;swimlaneBody=0;top=0;left=0;bottom=0;right=0;collapsible=0;dropTarget=0;fillColor=none;points=[[0,0.5],[1,0.5]];portConstraint=eastwest;strokeColor=inherit;fontSize=16;verticalAlign=top;" parent="v2UdAhtHkne79LI9UoaM-108" vertex="1">
          <mxGeometry y="60" width="200" height="180" as="geometry" />
        </mxCell>
        <mxCell id="v2UdAhtHkne79LI9UoaM-113" value="" style="shape=partialRectangle;html=1;whiteSpace=wrap;connectable=0;fillColor=none;top=1;left=0;bottom=1;right=0;overflow=hidden;strokeColor=inherit;fontSize=16;noLabel=0;snapToPoint=0;" parent="v2UdAhtHkne79LI9UoaM-112" vertex="1">
          <mxGeometry width="44" height="180" as="geometry">
            <mxRectangle width="44" height="180" as="alternateBounds" />
          </mxGeometry>
        </mxCell>
        <mxCell id="v2UdAhtHkne79LI9UoaM-114" value="&lt;p style=&quot;line-height: 100%; margin-top: 2px; margin-bottom: 2px;&quot;&gt;&lt;span id=&quot;docs-internal-guid-1afb51a7-7fff-adfa-c0f6-048096027afc&quot;&gt;&lt;span style=&quot;font-size: 11pt; font-family: Arial, sans-serif; background-color: transparent; font-variant-numeric: normal; font-variant-east-asian: normal; font-variant-alternates: normal; font-variant-position: normal; vertical-align: baseline; white-space-collapse: preserve;&quot;&gt;funcao&lt;/span&gt;&lt;/span&gt;&lt;br&gt;&lt;/p&gt;&lt;p style=&quot;line-height: 100%; margin-top: 2px; margin-bottom: 2px;&quot;&gt;&lt;span id=&quot;docs-internal-guid-c318ecd9-7fff-c42d-f135-e6895eb064d3&quot;&gt;&lt;span style=&quot;font-size: 11pt; font-family: Arial, sans-serif; background-color: transparent; font-variant-numeric: normal; font-variant-east-asian: normal; font-variant-alternates: normal; font-variant-position: normal; vertical-align: baseline; white-space-collapse: preserve;&quot;&gt;esta_hostil&lt;/span&gt;&lt;/span&gt;&lt;span&gt;&lt;span style=&quot;font-size: 11pt; font-family: Arial, sans-serif; background-color: transparent; font-variant-numeric: normal; font-variant-east-asian: normal; font-variant-alternates: normal; font-variant-position: normal; vertical-align: baseline; white-space-collapse: preserve;&quot;&gt;&lt;br&gt;&lt;/span&gt;&lt;/span&gt;&lt;/p&gt;&lt;p style=&quot;line-height: 100%; margin-top: 2px; margin-bottom: 2px;&quot;&gt;&lt;span id=&quot;docs-internal-guid-128dbace-7fff-d433-2f5d-5eabf77b7272&quot;&gt;&lt;span style=&quot;font-size: 11pt; font-family: Arial, sans-serif; background-color: transparent; font-variant-numeric: normal; font-variant-east-asian: normal; font-variant-alternates: normal; font-variant-position: normal; vertical-align: baseline; white-space-collapse: preserve;&quot;&gt;resistencia&lt;/span&gt;&lt;/span&gt;&lt;span&gt;&lt;span style=&quot;font-size: 11pt; font-family: Arial, sans-serif; background-color: transparent; font-variant-numeric: normal; font-variant-east-asian: normal; font-variant-alternates: normal; font-variant-position: normal; vertical-align: baseline; white-space-collapse: preserve;&quot;&gt;&lt;br&gt;&lt;/span&gt;&lt;/span&gt;&lt;/p&gt;&lt;p style=&quot;line-height: 100%; margin-top: 2px; margin-bottom: 2px;&quot;&gt;&lt;span id=&quot;docs-internal-guid-0ccb7a14-7fff-df71-784e-f1c155ebce9b&quot;&gt;&lt;span style=&quot;font-size: 11pt; font-family: Arial, sans-serif; background-color: transparent; font-variant-numeric: normal; font-variant-east-asian: normal; font-variant-alternates: normal; font-variant-position: normal; vertical-align: baseline; white-space-collapse: preserve;&quot;&gt;fraqueza&lt;/span&gt;&lt;/span&gt;&lt;span&gt;&lt;span style=&quot;font-size: 11pt; font-family: Arial, sans-serif; background-color: transparent; font-variant-numeric: normal; font-variant-east-asian: normal; font-variant-alternates: normal; font-variant-position: normal; vertical-align: baseline; white-space-collapse: preserve;&quot;&gt;&lt;br&gt;&lt;/span&gt;&lt;/span&gt;&lt;/p&gt;&lt;p style=&quot;line-height: 100%; margin-top: 2px; margin-bottom: 2px;&quot;&gt;&lt;span id=&quot;docs-internal-guid-047b7ae8-7fff-ef1c-21b9-ed77b8745935&quot;&gt;&lt;span style=&quot;font-size: 11pt; font-family: Arial, sans-serif; background-color: transparent; font-variant-numeric: normal; font-variant-east-asian: normal; font-variant-alternates: normal; font-variant-position: normal; vertical-align: baseline; white-space-collapse: preserve;&quot;&gt;drop_runas&lt;/span&gt;&lt;/span&gt;&lt;span&gt;&lt;span style=&quot;font-size: 11pt; font-family: Arial, sans-serif; background-color: transparent; font-variant-numeric: normal; font-variant-east-asian: normal; font-variant-alternates: normal; font-variant-position: normal; vertical-align: baseline; white-space-collapse: preserve;&quot;&gt;&lt;br&gt;&lt;/span&gt;&lt;/span&gt;&lt;/p&gt;&lt;p style=&quot;line-height: 100%; margin-top: 2px; margin-bottom: 2px;&quot;&gt;&lt;span id=&quot;docs-internal-guid-6d2343f9-7fff-1b7c-17f2-91c780a77ade&quot;&gt;&lt;span style=&quot;font-size: 11pt; font-family: Arial, sans-serif; background-color: transparent; font-variant-numeric: normal; font-variant-east-asian: normal; font-variant-alternates: normal; font-variant-position: normal; vertical-align: baseline; white-space-collapse: preserve;&quot;&gt;nome&lt;/span&gt;&lt;/span&gt;&lt;br&gt;&lt;/p&gt;&lt;p style=&quot;line-height: 100%; margin-top: 2px; margin-bottom: 2px;&quot;&gt;&lt;span id=&quot;docs-internal-guid-c55acf81-7fff-244a-fdf5-20c4c6c7b7da&quot;&gt;&lt;span style=&quot;font-size: 11pt; font-family: Arial, sans-serif; background-color: transparent; font-variant-numeric: normal; font-variant-east-asian: normal; font-variant-alternates: normal; font-variant-position: normal; vertical-align: baseline; white-space-collapse: preserve;&quot;&gt;hp&lt;/span&gt;&lt;/span&gt;&lt;span&gt;&lt;span style=&quot;font-size: 11pt; font-family: Arial, sans-serif; background-color: transparent; font-variant-numeric: normal; font-variant-east-asian: normal; font-variant-alternates: normal; font-variant-position: normal; vertical-align: baseline; white-space-collapse: preserve;&quot;&gt;&lt;br&gt;&lt;/span&gt;&lt;/span&gt;&lt;/p&gt;&lt;p style=&quot;line-height: 100%; margin-top: 2px; margin-bottom: 2px;&quot;&gt;&lt;span id=&quot;docs-internal-guid-01abef02-7fff-2f96-91b4-3d9d5f30eb0b&quot;&gt;&lt;span style=&quot;font-size: 11pt; font-family: Arial, sans-serif; background-color: transparent; font-variant-numeric: normal; font-variant-east-asian: normal; font-variant-alternates: normal; font-variant-position: normal; vertical-align: baseline; white-space-collapse: preserve;&quot;&gt;vitalidade&lt;/span&gt;&lt;/span&gt;&lt;span&gt;&lt;span style=&quot;font-size: 11pt; font-family: Arial, sans-serif; background-color: transparent; font-variant-numeric: normal; font-variant-east-asian: normal; font-variant-alternates: normal; font-variant-position: normal; vertical-align: baseline; white-space-collapse: preserve;&quot;&gt;&lt;br&gt;&lt;/span&gt;&lt;/span&gt;&lt;/p&gt;&lt;p style=&quot;line-height: 100%; margin-top: 2px; margin-bottom: 2px;&quot;&gt;&lt;span id=&quot;docs-internal-guid-53b1db44-7fff-3be7-56dd-37fed8b0ff46&quot;&gt;&lt;span style=&quot;font-size: 11pt; font-family: Arial, sans-serif; background-color: transparent; font-variant-numeric: normal; font-variant-east-asian: normal; font-variant-alternates: normal; font-variant-position: normal; vertical-align: baseline; white-space-collapse: preserve;&quot;&gt;dano_base &lt;/span&gt;&lt;/span&gt;&lt;span&gt;&lt;span style=&quot;font-size: 11pt; font-family: Arial, sans-serif; background-color: transparent; font-variant-numeric: normal; font-variant-east-asian: normal; font-variant-alternates: normal; font-variant-position: normal; vertical-align: baseline; white-space-collapse: preserve;&quot;&gt;&lt;br&gt;&lt;/span&gt;&lt;/span&gt;&lt;/p&gt;" style="shape=partialRectangle;html=1;whiteSpace=wrap;connectable=0;fillColor=none;top=1;left=0;bottom=1;right=0;align=left;spacingLeft=6;overflow=hidden;strokeColor=inherit;fontSize=16;noLabel=0;snapToPoint=0;horizontal=1;verticalAlign=top;" parent="v2UdAhtHkne79LI9UoaM-112" vertex="1">
          <mxGeometry x="44" width="156" height="180" as="geometry">
            <mxRectangle width="156" height="180" as="alternateBounds" />
          </mxGeometry>
        </mxCell>
        <mxCell id="v2UdAhtHkne79LI9UoaM-115" value="Chefe" style="shape=table;startSize=30;container=1;collapsible=0;childLayout=tableLayout;fixedRows=1;rowLines=0;fontStyle=0;strokeColor=default;fontSize=16;" parent="WIyWlLk6GJQsqaUBKTNV-1" vertex="1">
          <mxGeometry x="2740" y="1510" width="200" height="270" as="geometry" />
        </mxCell>
        <mxCell id="v2UdAhtHkne79LI9UoaM-116" value="" style="shape=tableRow;horizontal=0;startSize=0;swimlaneHead=0;swimlaneBody=0;top=0;left=0;bottom=0;right=0;collapsible=0;dropTarget=0;fillColor=none;points=[[0,0.5],[1,0.5]];portConstraint=eastwest;strokeColor=inherit;fontSize=16;" parent="v2UdAhtHkne79LI9UoaM-115" vertex="1">
          <mxGeometry y="30" width="200" height="30" as="geometry" />
        </mxCell>
        <mxCell id="v2UdAhtHkne79LI9UoaM-117" value="PK" style="shape=partialRectangle;html=1;whiteSpace=wrap;connectable=0;fillColor=none;top=0;left=0;bottom=0;right=0;overflow=hidden;pointerEvents=1;strokeColor=inherit;fontSize=16;" parent="v2UdAhtHkne79LI9UoaM-116" vertex="1">
          <mxGeometry width="44" height="30" as="geometry">
            <mxRectangle width="44" height="30" as="alternateBounds" />
          </mxGeometry>
        </mxCell>
        <mxCell id="v2UdAhtHkne79LI9UoaM-118" value="&lt;span id=&quot;docs-internal-guid-6166ad8c-7fff-8693-5275-796e19fdaada&quot;&gt;&lt;span style=&quot;font-size: 11pt; font-family: Arial, sans-serif; background-color: transparent; font-variant-numeric: normal; font-variant-east-asian: normal; font-variant-alternates: normal; font-variant-position: normal; vertical-align: baseline; white-space-collapse: preserve;&quot;&gt;id_chefe&lt;/span&gt;&lt;/span&gt;" style="shape=partialRectangle;html=1;whiteSpace=wrap;connectable=0;fillColor=none;top=0;left=0;bottom=0;right=0;align=left;spacingLeft=6;overflow=hidden;strokeColor=inherit;fontSize=16;horizontal=1;" parent="v2UdAhtHkne79LI9UoaM-116" vertex="1">
          <mxGeometry x="44" width="156" height="30" as="geometry">
            <mxRectangle width="156" height="30" as="alternateBounds" />
          </mxGeometry>
        </mxCell>
        <mxCell id="v2UdAhtHkne79LI9UoaM-119" value="" style="shape=tableRow;horizontal=0;startSize=0;swimlaneHead=0;swimlaneBody=0;top=0;left=0;bottom=0;right=0;collapsible=0;dropTarget=0;fillColor=none;points=[[0,0.5],[1,0.5]];portConstraint=eastwest;strokeColor=inherit;fontSize=16;verticalAlign=top;" parent="v2UdAhtHkne79LI9UoaM-115" vertex="1">
          <mxGeometry y="60" width="200" height="210" as="geometry" />
        </mxCell>
        <mxCell id="v2UdAhtHkne79LI9UoaM-120" value="" style="shape=partialRectangle;html=1;whiteSpace=wrap;connectable=0;fillColor=none;top=1;left=0;bottom=1;right=0;overflow=hidden;strokeColor=inherit;fontSize=16;noLabel=0;snapToPoint=0;" parent="v2UdAhtHkne79LI9UoaM-119" vertex="1">
          <mxGeometry width="44" height="210" as="geometry">
            <mxRectangle width="44" height="210" as="alternateBounds" />
          </mxGeometry>
        </mxCell>
        <mxCell id="v2UdAhtHkne79LI9UoaM-121" value="&lt;p style=&quot;line-height: 16px; margin-top: 2px; margin-bottom: 2px;&quot;&gt;&lt;span id=&quot;docs-internal-guid-1afb51a7-7fff-adfa-c0f6-048096027afc&quot;&gt;&lt;span style=&quot;font-size: 11pt; font-family: Arial, sans-serif; background-color: transparent; font-variant-numeric: normal; font-variant-east-asian: normal; font-variant-alternates: normal; font-variant-position: normal; vertical-align: baseline; white-space-collapse: preserve;&quot;&gt;funcao&lt;/span&gt;&lt;/span&gt;&lt;br&gt;&lt;/p&gt;&lt;p style=&quot;line-height: 16px; margin-top: 2px; margin-bottom: 2px;&quot;&gt;&lt;span id=&quot;docs-internal-guid-c318ecd9-7fff-c42d-f135-e6895eb064d3&quot;&gt;&lt;span style=&quot;font-size: 11pt; font-family: Arial, sans-serif; background-color: transparent; font-variant-numeric: normal; font-variant-east-asian: normal; font-variant-alternates: normal; font-variant-position: normal; vertical-align: baseline; white-space-collapse: preserve;&quot;&gt;esta_hostil&lt;/span&gt;&lt;/span&gt;&lt;span style=&quot;font-size: 11pt; font-family: Arial, sans-serif; background-color: transparent; font-variant-numeric: normal; font-variant-east-asian: normal; font-variant-alternates: normal; font-variant-position: normal; vertical-align: baseline; white-space-collapse: preserve;&quot;&gt;&lt;br&gt;&lt;/span&gt;&lt;/p&gt;&lt;p style=&quot;line-height: 16px; margin-top: 2px; margin-bottom: 2px;&quot;&gt;&lt;span id=&quot;docs-internal-guid-128dbace-7fff-d433-2f5d-5eabf77b7272&quot;&gt;&lt;span style=&quot;font-size: 11pt; font-family: Arial, sans-serif; background-color: transparent; font-variant-numeric: normal; font-variant-east-asian: normal; font-variant-alternates: normal; font-variant-position: normal; vertical-align: baseline; white-space-collapse: preserve;&quot;&gt;resistencia&lt;/span&gt;&lt;/span&gt;&lt;span style=&quot;font-size: 11pt; font-family: Arial, sans-serif; background-color: transparent; font-variant-numeric: normal; font-variant-east-asian: normal; font-variant-alternates: normal; font-variant-position: normal; vertical-align: baseline; white-space-collapse: preserve;&quot;&gt;&lt;br&gt;&lt;/span&gt;&lt;/p&gt;&lt;p style=&quot;line-height: 16px; margin-top: 2px; margin-bottom: 2px;&quot;&gt;&lt;span id=&quot;docs-internal-guid-0ccb7a14-7fff-df71-784e-f1c155ebce9b&quot;&gt;&lt;span style=&quot;font-size: 11pt; font-family: Arial, sans-serif; background-color: transparent; font-variant-numeric: normal; font-variant-east-asian: normal; font-variant-alternates: normal; font-variant-position: normal; vertical-align: baseline; white-space-collapse: preserve;&quot;&gt;fraqueza&lt;/span&gt;&lt;/span&gt;&lt;span style=&quot;font-size: 11pt; font-family: Arial, sans-serif; background-color: transparent; font-variant-numeric: normal; font-variant-east-asian: normal; font-variant-alternates: normal; font-variant-position: normal; vertical-align: baseline; white-space-collapse: preserve;&quot;&gt;&lt;br&gt;&lt;/span&gt;&lt;/p&gt;&lt;p style=&quot;line-height: 16px; margin-top: 2px; margin-bottom: 2px;&quot;&gt;&lt;span id=&quot;docs-internal-guid-047b7ae8-7fff-ef1c-21b9-ed77b8745935&quot;&gt;&lt;span style=&quot;font-size: 11pt; font-family: Arial, sans-serif; background-color: transparent; font-variant-numeric: normal; font-variant-east-asian: normal; font-variant-alternates: normal; font-variant-position: normal; vertical-align: baseline; white-space-collapse: preserve;&quot;&gt;drop_runas&lt;/span&gt;&lt;/span&gt;&lt;span style=&quot;font-size: 11pt; font-family: Arial, sans-serif; background-color: transparent; font-variant-numeric: normal; font-variant-east-asian: normal; font-variant-alternates: normal; font-variant-position: normal; vertical-align: baseline; white-space-collapse: preserve;&quot;&gt;&lt;br&gt;&lt;/span&gt;&lt;/p&gt;&lt;p style=&quot;line-height: 16px; margin-top: 2px; margin-bottom: 2px;&quot;&gt;&lt;span id=&quot;docs-internal-guid-6d2343f9-7fff-1b7c-17f2-91c780a77ade&quot;&gt;&lt;span style=&quot;font-size: 11pt; font-family: Arial, sans-serif; background-color: transparent; font-variant-numeric: normal; font-variant-east-asian: normal; font-variant-alternates: normal; font-variant-position: normal; vertical-align: baseline; white-space-collapse: preserve;&quot;&gt;nome&lt;/span&gt;&lt;/span&gt;&lt;br&gt;&lt;/p&gt;&lt;p style=&quot;line-height: 16px; margin-top: 2px; margin-bottom: 2px;&quot;&gt;&lt;span id=&quot;docs-internal-guid-c55acf81-7fff-244a-fdf5-20c4c6c7b7da&quot;&gt;&lt;span style=&quot;font-size: 11pt; font-family: Arial, sans-serif; background-color: transparent; font-variant-numeric: normal; font-variant-east-asian: normal; font-variant-alternates: normal; font-variant-position: normal; vertical-align: baseline; white-space-collapse: preserve;&quot;&gt;hp&lt;/span&gt;&lt;/span&gt;&lt;span style=&quot;font-size: 11pt; font-family: Arial, sans-serif; background-color: transparent; font-variant-numeric: normal; font-variant-east-asian: normal; font-variant-alternates: normal; font-variant-position: normal; vertical-align: baseline; white-space-collapse: preserve;&quot;&gt;&lt;br&gt;&lt;/span&gt;&lt;/p&gt;&lt;p style=&quot;line-height: 16px; margin-top: 2px; margin-bottom: 2px;&quot;&gt;&lt;span id=&quot;docs-internal-guid-01abef02-7fff-2f96-91b4-3d9d5f30eb0b&quot;&gt;&lt;span style=&quot;font-size: 11pt; font-family: Arial, sans-serif; background-color: transparent; font-variant-numeric: normal; font-variant-east-asian: normal; font-variant-alternates: normal; font-variant-position: normal; vertical-align: baseline; white-space-collapse: preserve;&quot;&gt;vitalidade&lt;/span&gt;&lt;/span&gt;&lt;span style=&quot;font-size: 11pt; font-family: Arial, sans-serif; background-color: transparent; font-variant-numeric: normal; font-variant-east-asian: normal; font-variant-alternates: normal; font-variant-position: normal; vertical-align: baseline; white-space-collapse: preserve;&quot;&gt;&lt;br&gt;&lt;/span&gt;&lt;/p&gt;&lt;p style=&quot;line-height: 16px; margin-top: 2px; margin-bottom: 2px;&quot;&gt;&lt;span id=&quot;docs-internal-guid-53b1db44-7fff-3be7-56dd-37fed8b0ff46&quot;&gt;&lt;span style=&quot;font-size: 11pt; font-family: Arial, sans-serif; background-color: transparent; font-variant-numeric: normal; font-variant-east-asian: normal; font-variant-alternates: normal; font-variant-position: normal; vertical-align: baseline; white-space-collapse: preserve;&quot;&gt;dano_base &lt;/span&gt;&lt;/span&gt;&lt;/p&gt;&lt;p style=&quot;line-height: 16px; margin-top: 2px; margin-bottom: 2px;&quot;&gt;&lt;span id=&quot;docs-internal-guid-233c7ae8-7fff-e20b-8d24-d3c771fda6db&quot;&gt;&lt;span style=&quot;font-size: 11pt; font-family: Arial, sans-serif; background-color: transparent; font-variant-numeric: normal; font-variant-east-asian: normal; font-variant-alternates: normal; font-variant-position: normal; vertical-align: baseline; white-space-collapse: preserve;&quot;&gt;lembranca&lt;/span&gt;&lt;/span&gt;&lt;span&gt;&lt;span style=&quot;font-size: 11pt; font-family: Arial, sans-serif; background-color: transparent; font-variant-numeric: normal; font-variant-east-asian: normal; font-variant-alternates: normal; font-variant-position: normal; vertical-align: baseline; white-space-collapse: preserve;&quot;&gt;&lt;br&gt;&lt;/span&gt;&lt;/span&gt;&lt;/p&gt;&lt;p style=&quot;line-height: 16px; margin-top: 2px; margin-bottom: 2px;&quot;&gt;&lt;span id=&quot;docs-internal-guid-63965858-7fff-17f3-1364-9ba526885a56&quot;&gt;&lt;span style=&quot;font-size: 11pt; font-family: Arial, sans-serif; background-color: transparent; font-variant-numeric: normal; font-variant-east-asian: normal; font-variant-alternates: normal; font-variant-position: normal; vertical-align: baseline; white-space-collapse: preserve;&quot;&gt;desperate_move&lt;/span&gt;&lt;/span&gt;&lt;span&gt;&lt;span style=&quot;font-size: 11pt; font-family: Arial, sans-serif; background-color: transparent; font-variant-numeric: normal; font-variant-east-asian: normal; font-variant-alternates: normal; font-variant-position: normal; vertical-align: baseline; white-space-collapse: preserve;&quot;&gt;&lt;br&gt;&lt;/span&gt;&lt;/span&gt;&lt;/p&gt;" style="shape=partialRectangle;html=1;whiteSpace=wrap;connectable=0;fillColor=none;top=1;left=0;bottom=1;right=0;align=left;spacingLeft=6;overflow=hidden;strokeColor=inherit;fontSize=16;noLabel=0;snapToPoint=0;horizontal=1;verticalAlign=top;" parent="v2UdAhtHkne79LI9UoaM-119" vertex="1">
          <mxGeometry x="44" width="156" height="210" as="geometry">
            <mxRectangle width="156" height="210" as="alternateBounds" />
          </mxGeometry>
        </mxCell>
        <mxCell id="v2UdAhtHkne79LI9UoaM-125" value="Chefes_Derrotados " style="shape=table;startSize=30;container=1;collapsible=0;childLayout=tableLayout;fixedRows=1;rowLines=0;fontStyle=0;strokeColor=default;fontSize=16;" parent="WIyWlLk6GJQsqaUBKTNV-1" vertex="1">
          <mxGeometry x="2720" y="1280" width="210" height="130.00000000000023" as="geometry" />
        </mxCell>
        <mxCell id="v2UdAhtHkne79LI9UoaM-126" value="" style="shape=tableRow;horizontal=0;startSize=0;swimlaneHead=0;swimlaneBody=0;top=0;left=0;bottom=0;right=0;collapsible=0;dropTarget=0;fillColor=none;points=[[0,0.5],[1,0.5]];portConstraint=eastwest;strokeColor=inherit;fontSize=16;" parent="v2UdAhtHkne79LI9UoaM-125" vertex="1">
          <mxGeometry y="30" width="210" height="80" as="geometry" />
        </mxCell>
        <mxCell id="v2UdAhtHkne79LI9UoaM-127" value="PK, FK&lt;div&gt;PK, FK&lt;/div&gt;" style="shape=partialRectangle;html=1;whiteSpace=wrap;connectable=0;fillColor=none;top=0;left=0;bottom=0;right=0;overflow=hidden;pointerEvents=1;strokeColor=inherit;fontSize=16;" parent="v2UdAhtHkne79LI9UoaM-126" vertex="1">
          <mxGeometry width="70" height="80" as="geometry">
            <mxRectangle width="70" height="80" as="alternateBounds" />
          </mxGeometry>
        </mxCell>
        <mxCell id="v2UdAhtHkne79LI9UoaM-128" value="&lt;span id=&quot;docs-internal-guid-2d66a903-7fff-82d3-04bc-5d4b8f3e8b57&quot;&gt;&lt;span style=&quot;font-size: 11pt; font-family: Arial, sans-serif; background-color: transparent; font-variant-numeric: normal; font-variant-east-asian: normal; font-variant-alternates: normal; font-variant-position: normal; vertical-align: baseline; white-space-collapse: preserve;&quot;&gt;id_chefe&lt;/span&gt;&lt;/span&gt;&lt;div&gt;&lt;span id=&quot;docs-internal-guid-003b58ba-7fff-b83d-f782-462d31763c02&quot;&gt;&lt;span style=&quot;font-size: 11pt; font-family: Arial, sans-serif; background-color: transparent; font-variant-numeric: normal; font-variant-east-asian: normal; font-variant-alternates: normal; font-variant-position: normal; vertical-align: baseline; white-space-collapse: preserve;&quot;&gt;id_jogador&lt;/span&gt;&lt;/span&gt;&lt;span&gt;&lt;span style=&quot;font-size: 11pt; font-family: Arial, sans-serif; background-color: transparent; font-variant-numeric: normal; font-variant-east-asian: normal; font-variant-alternates: normal; font-variant-position: normal; vertical-align: baseline; white-space-collapse: preserve;&quot;&gt;&lt;br&gt;&lt;/span&gt;&lt;/span&gt;&lt;/div&gt;" style="shape=partialRectangle;html=1;whiteSpace=wrap;connectable=0;fillColor=none;top=0;left=0;bottom=0;right=0;align=left;spacingLeft=6;overflow=hidden;strokeColor=inherit;fontSize=16;horizontal=1;" parent="v2UdAhtHkne79LI9UoaM-126" vertex="1">
          <mxGeometry x="70" width="140" height="80" as="geometry">
            <mxRectangle width="140" height="80" as="alternateBounds" />
          </mxGeometry>
        </mxCell>
        <mxCell id="v2UdAhtHkne79LI9UoaM-129" value="" style="shape=tableRow;horizontal=0;startSize=0;swimlaneHead=0;swimlaneBody=0;top=0;left=0;bottom=0;right=0;collapsible=0;dropTarget=0;fillColor=none;points=[[0,0.5],[1,0.5]];portConstraint=eastwest;strokeColor=inherit;fontSize=16;verticalAlign=top;" parent="v2UdAhtHkne79LI9UoaM-125" vertex="1">
          <mxGeometry y="110" width="210" height="20" as="geometry" />
        </mxCell>
        <mxCell id="v2UdAhtHkne79LI9UoaM-130" value="" style="shape=partialRectangle;html=1;whiteSpace=wrap;connectable=0;fillColor=none;top=1;left=0;bottom=1;right=0;overflow=hidden;strokeColor=inherit;fontSize=16;noLabel=0;snapToPoint=0;" parent="v2UdAhtHkne79LI9UoaM-129" vertex="1">
          <mxGeometry width="70" height="20" as="geometry">
            <mxRectangle width="70" height="20" as="alternateBounds" />
          </mxGeometry>
        </mxCell>
        <mxCell id="v2UdAhtHkne79LI9UoaM-131" value="&lt;p style=&quot;line-height: 100%; margin-top: 2px; margin-bottom: 2px;&quot;&gt;&lt;br&gt;&lt;/p&gt;" style="shape=partialRectangle;html=1;whiteSpace=wrap;connectable=0;fillColor=none;top=1;left=0;bottom=1;right=0;align=left;spacingLeft=6;overflow=hidden;strokeColor=inherit;fontSize=16;noLabel=0;snapToPoint=0;horizontal=1;verticalAlign=top;" parent="v2UdAhtHkne79LI9UoaM-129" vertex="1">
          <mxGeometry x="70" width="140" height="20" as="geometry">
            <mxRectangle width="140" height="20" as="alternateBounds" />
          </mxGeometry>
        </mxCell>
        <mxCell id="v2UdAhtHkne79LI9UoaM-132" value="Dialogos" style="shape=table;startSize=30;container=1;collapsible=0;childLayout=tableLayout;fixedRows=1;rowLines=0;fontStyle=0;strokeColor=default;fontSize=16;" parent="WIyWlLk6GJQsqaUBKTNV-1" vertex="1">
          <mxGeometry x="2310" y="1180" width="200" height="130" as="geometry" />
        </mxCell>
        <mxCell id="v2UdAhtHkne79LI9UoaM-133" value="" style="shape=tableRow;horizontal=0;startSize=0;swimlaneHead=0;swimlaneBody=0;top=0;left=0;bottom=0;right=0;collapsible=0;dropTarget=0;fillColor=none;points=[[0,0.5],[1,0.5]];portConstraint=eastwest;strokeColor=inherit;fontSize=16;" parent="v2UdAhtHkne79LI9UoaM-132" vertex="1">
          <mxGeometry y="30" width="200" height="30" as="geometry" />
        </mxCell>
        <mxCell id="v2UdAhtHkne79LI9UoaM-134" value="PK" style="shape=partialRectangle;html=1;whiteSpace=wrap;connectable=0;fillColor=none;top=0;left=0;bottom=0;right=0;overflow=hidden;pointerEvents=1;strokeColor=inherit;fontSize=16;" parent="v2UdAhtHkne79LI9UoaM-133" vertex="1">
          <mxGeometry width="44" height="30" as="geometry">
            <mxRectangle width="44" height="30" as="alternateBounds" />
          </mxGeometry>
        </mxCell>
        <mxCell id="v2UdAhtHkne79LI9UoaM-135" value="&lt;span id=&quot;docs-internal-guid-14770907-7fff-5889-afd3-2d7ff9d312d9&quot;&gt;&lt;span style=&quot;font-size: 11pt; font-family: Arial, sans-serif; background-color: transparent; font-variant-numeric: normal; font-variant-east-asian: normal; font-variant-alternates: normal; font-variant-position: normal; vertical-align: baseline; white-space-collapse: preserve;&quot;&gt;id_dialogo&lt;/span&gt;&lt;/span&gt;" style="shape=partialRectangle;html=1;whiteSpace=wrap;connectable=0;fillColor=none;top=0;left=0;bottom=0;right=0;align=left;spacingLeft=6;overflow=hidden;strokeColor=inherit;fontSize=16;horizontal=1;" parent="v2UdAhtHkne79LI9UoaM-133" vertex="1">
          <mxGeometry x="44" width="156" height="30" as="geometry">
            <mxRectangle width="156" height="30" as="alternateBounds" />
          </mxGeometry>
        </mxCell>
        <mxCell id="v2UdAhtHkne79LI9UoaM-136" value="" style="shape=tableRow;horizontal=0;startSize=0;swimlaneHead=0;swimlaneBody=0;top=0;left=0;bottom=0;right=0;collapsible=0;dropTarget=0;fillColor=none;points=[[0,0.5],[1,0.5]];portConstraint=eastwest;strokeColor=inherit;fontSize=16;verticalAlign=top;" parent="v2UdAhtHkne79LI9UoaM-132" vertex="1">
          <mxGeometry y="60" width="200" height="70" as="geometry" />
        </mxCell>
        <mxCell id="v2UdAhtHkne79LI9UoaM-137" value="&lt;div&gt;&lt;br&gt;&lt;/div&gt;&lt;div&gt;&lt;br&gt;&lt;/div&gt;&lt;div&gt;FK&lt;/div&gt;" style="shape=partialRectangle;html=1;whiteSpace=wrap;connectable=0;fillColor=none;top=1;left=0;bottom=1;right=0;overflow=hidden;strokeColor=inherit;fontSize=16;noLabel=0;snapToPoint=0;" parent="v2UdAhtHkne79LI9UoaM-136" vertex="1">
          <mxGeometry width="44" height="70" as="geometry">
            <mxRectangle width="44" height="70" as="alternateBounds" />
          </mxGeometry>
        </mxCell>
        <mxCell id="v2UdAhtHkne79LI9UoaM-138" value="&lt;p style=&quot;line-height: 100%; margin-top: 2px; margin-bottom: 2px;&quot;&gt;&lt;span id=&quot;docs-internal-guid-14812b62-7fff-6e84-ad52-f6301fcc3a4b&quot;&gt;&lt;span style=&quot;font-size: 11pt; font-family: Arial, sans-serif; background-color: transparent; font-variant-numeric: normal; font-variant-east-asian: normal; font-variant-alternates: normal; font-variant-position: normal; vertical-align: baseline; white-space-collapse: preserve;&quot;&gt;texto&lt;/span&gt;&lt;/span&gt;&lt;br&gt;&lt;/p&gt;&lt;p style=&quot;line-height: 100%; margin-top: 2px; margin-bottom: 2px;&quot;&gt;&lt;span id=&quot;docs-internal-guid-3273ad79-7fff-7fa3-0f40-e9cbb89c4805&quot;&gt;&lt;span style=&quot;font-size: 11pt; font-family: Arial, sans-serif; background-color: transparent; font-variant-numeric: normal; font-variant-east-asian: normal; font-variant-alternates: normal; font-variant-position: normal; vertical-align: baseline; white-space-collapse: preserve;&quot;&gt;e_unico&lt;/span&gt;&lt;/span&gt;&lt;span&gt;&lt;span style=&quot;font-size: 11pt; font-family: Arial, sans-serif; background-color: transparent; font-variant-numeric: normal; font-variant-east-asian: normal; font-variant-alternates: normal; font-variant-position: normal; vertical-align: baseline; white-space-collapse: preserve;&quot;&gt;&lt;br&gt;&lt;/span&gt;&lt;/span&gt;&lt;/p&gt;&lt;p style=&quot;line-height: 100%; margin-top: 2px; margin-bottom: 2px;&quot;&gt;&lt;span id=&quot;docs-internal-guid-e127a061-7fff-8ce1-4dbc-56c30ac11722&quot;&gt;&lt;span style=&quot;font-size: 11pt; font-family: Arial, sans-serif; background-color: transparent; font-variant-numeric: normal; font-variant-east-asian: normal; font-variant-alternates: normal; font-variant-position: normal; vertical-align: baseline; white-space-collapse: preserve;&quot;&gt;id_npc&lt;/span&gt;&lt;/span&gt;&lt;span&gt;&lt;span style=&quot;font-size: 11pt; font-family: Arial, sans-serif; background-color: transparent; font-variant-numeric: normal; font-variant-east-asian: normal; font-variant-alternates: normal; font-variant-position: normal; vertical-align: baseline; white-space-collapse: preserve;&quot;&gt;&lt;br&gt;&lt;/span&gt;&lt;/span&gt;&lt;/p&gt;" style="shape=partialRectangle;html=1;whiteSpace=wrap;connectable=0;fillColor=none;top=1;left=0;bottom=1;right=0;align=left;spacingLeft=6;overflow=hidden;strokeColor=inherit;fontSize=16;noLabel=0;snapToPoint=0;horizontal=1;verticalAlign=top;" parent="v2UdAhtHkne79LI9UoaM-136" vertex="1">
          <mxGeometry x="44" width="156" height="70" as="geometry">
            <mxRectangle width="156" height="70" as="alternateBounds" />
          </mxGeometry>
        </mxCell>
        <mxCell id="v2UdAhtHkne79LI9UoaM-139" style="edgeStyle=orthogonalEdgeStyle;rounded=0;orthogonalLoop=1;jettySize=auto;html=1;exitX=1;exitY=0.5;exitDx=0;exitDy=0;entryX=0.487;entryY=1.003;entryDx=0;entryDy=0;entryPerimeter=0;" parent="WIyWlLk6GJQsqaUBKTNV-1" source="v2UdAhtHkne79LI9UoaM-126" target="v2UdAhtHkne79LI9UoaM-50" edge="1">
          <mxGeometry relative="1" as="geometry" />
        </mxCell>
        <mxCell id="v2UdAhtHkne79LI9UoaM-141" style="edgeStyle=orthogonalEdgeStyle;rounded=0;orthogonalLoop=1;jettySize=auto;html=1;exitX=0.5;exitY=0;exitDx=0;exitDy=0;entryX=0.569;entryY=0.993;entryDx=0;entryDy=0;entryPerimeter=0;endArrow=none;endFill=0;startArrow=classic;startFill=1;" parent="WIyWlLk6GJQsqaUBKTNV-1" source="v2UdAhtHkne79LI9UoaM-115" target="v2UdAhtHkne79LI9UoaM-129" edge="1">
          <mxGeometry relative="1" as="geometry" />
        </mxCell>
        <mxCell id="v2UdAhtHkne79LI9UoaM-144" style="edgeStyle=orthogonalEdgeStyle;rounded=0;orthogonalLoop=1;jettySize=auto;html=1;exitX=0.694;exitY=1.035;exitDx=0;exitDy=0;entryX=0.443;entryY=0;entryDx=0;entryDy=0;entryPerimeter=0;exitPerimeter=0;" parent="WIyWlLk6GJQsqaUBKTNV-1" source="v2UdAhtHkne79LI9UoaM-136" target="v2UdAhtHkne79LI9UoaM-101" edge="1">
          <mxGeometry relative="1" as="geometry">
            <Array as="points">
              <mxPoint x="2410" y="1313" />
              <mxPoint x="2410" y="1370" />
              <mxPoint x="2380" y="1370" />
              <mxPoint x="2380" y="1410" />
              <mxPoint x="2379" y="1410" />
            </Array>
          </mxGeometry>
        </mxCell>
        <mxCell id="v2UdAhtHkne79LI9UoaM-145" style="edgeStyle=orthogonalEdgeStyle;rounded=0;orthogonalLoop=1;jettySize=auto;html=1;exitX=0.5;exitY=0;exitDx=0;exitDy=0;entryX=0;entryY=0.5;entryDx=0;entryDy=0;startArrow=classic;startFill=1;endArrow=none;endFill=0;" parent="WIyWlLk6GJQsqaUBKTNV-1" source="v2UdAhtHkne79LI9UoaM-108" target="v2UdAhtHkne79LI9UoaM-136" edge="1">
          <mxGeometry relative="1" as="geometry" />
        </mxCell>
        <mxCell id="v2UdAhtHkne79LI9UoaM-146" style="edgeStyle=orthogonalEdgeStyle;rounded=0;orthogonalLoop=1;jettySize=auto;html=1;exitX=1;exitY=0.5;exitDx=0;exitDy=0;entryX=0.006;entryY=0.091;entryDx=0;entryDy=0;entryPerimeter=0;" parent="WIyWlLk6GJQsqaUBKTNV-1" source="v2UdAhtHkne79LI9UoaM-136" target="v2UdAhtHkne79LI9UoaM-119" edge="1">
          <mxGeometry relative="1" as="geometry" />
        </mxCell>
        <mxCell id="v2UdAhtHkne79LI9UoaM-147" style="edgeStyle=orthogonalEdgeStyle;rounded=0;orthogonalLoop=1;jettySize=auto;html=1;exitX=1;exitY=0.5;exitDx=0;exitDy=0;" parent="WIyWlLk6GJQsqaUBKTNV-1" source="v2UdAhtHkne79LI9UoaM-133" target="v2UdAhtHkne79LI9UoaM-50" edge="1">
          <mxGeometry relative="1" as="geometry">
            <mxPoint x="3540" y="1220" as="targetPoint" />
            <Array as="points">
              <mxPoint x="2890" y="1225" />
              <mxPoint x="2890" y="1220" />
              <mxPoint x="3504" y="1220" />
            </Array>
          </mxGeometry>
        </mxCell>
        <mxCell id="v2UdAhtHkne79LI9UoaM-148" value="Instancia_Item " style="shape=table;startSize=30;container=1;collapsible=0;childLayout=tableLayout;fixedRows=1;rowLines=0;fontStyle=0;strokeColor=default;fontSize=16;" parent="WIyWlLk6GJQsqaUBKTNV-1" vertex="1">
          <mxGeometry x="1850" y="620" width="200" height="130" as="geometry" />
        </mxCell>
        <mxCell id="v2UdAhtHkne79LI9UoaM-149" value="" style="shape=tableRow;horizontal=0;startSize=0;swimlaneHead=0;swimlaneBody=0;top=0;left=0;bottom=0;right=0;collapsible=0;dropTarget=0;fillColor=none;points=[[0,0.5],[1,0.5]];portConstraint=eastwest;strokeColor=inherit;fontSize=16;" parent="v2UdAhtHkne79LI9UoaM-148" vertex="1">
          <mxGeometry y="30" width="200" height="30" as="geometry" />
        </mxCell>
        <mxCell id="v2UdAhtHkne79LI9UoaM-150" value="PK" style="shape=partialRectangle;html=1;whiteSpace=wrap;connectable=0;fillColor=none;top=0;left=0;bottom=0;right=0;overflow=hidden;pointerEvents=1;strokeColor=inherit;fontSize=16;" parent="v2UdAhtHkne79LI9UoaM-149" vertex="1">
          <mxGeometry width="70" height="30" as="geometry">
            <mxRectangle width="70" height="30" as="alternateBounds" />
          </mxGeometry>
        </mxCell>
        <mxCell id="v2UdAhtHkne79LI9UoaM-151" value="&lt;span id=&quot;docs-internal-guid-b961dc90-7fff-bc8e-be0c-cd91ac7e59c0&quot;&gt;&lt;span style=&quot;font-size: 11pt; font-family: Arial, sans-serif; background-color: transparent; font-variant-numeric: normal; font-variant-east-asian: normal; font-variant-alternates: normal; font-variant-position: normal; vertical-align: baseline; white-space-collapse: preserve;&quot;&gt;id_instancia&lt;/span&gt;&lt;/span&gt;" style="shape=partialRectangle;html=1;whiteSpace=wrap;connectable=0;fillColor=none;top=0;left=0;bottom=0;right=0;align=left;spacingLeft=6;overflow=hidden;strokeColor=inherit;fontSize=16;horizontal=1;" parent="v2UdAhtHkne79LI9UoaM-149" vertex="1">
          <mxGeometry x="70" width="130" height="30" as="geometry">
            <mxRectangle width="130" height="30" as="alternateBounds" />
          </mxGeometry>
        </mxCell>
        <mxCell id="v2UdAhtHkne79LI9UoaM-152" value="" style="shape=tableRow;horizontal=0;startSize=0;swimlaneHead=0;swimlaneBody=0;top=0;left=0;bottom=0;right=0;collapsible=0;dropTarget=0;fillColor=none;points=[[0,0.5],[1,0.5]];portConstraint=eastwest;strokeColor=inherit;fontSize=16;verticalAlign=top;" parent="v2UdAhtHkne79LI9UoaM-148" vertex="1">
          <mxGeometry y="60" width="200" height="70" as="geometry" />
        </mxCell>
        <mxCell id="v2UdAhtHkne79LI9UoaM-153" value="&lt;div&gt;&lt;br&gt;&lt;/div&gt;FK&lt;div&gt;FK&lt;/div&gt;" style="shape=partialRectangle;html=1;whiteSpace=wrap;connectable=0;fillColor=none;top=1;left=0;bottom=1;right=0;overflow=hidden;strokeColor=inherit;fontSize=16;noLabel=0;snapToPoint=0;" parent="v2UdAhtHkne79LI9UoaM-152" vertex="1">
          <mxGeometry width="70" height="70" as="geometry">
            <mxRectangle width="70" height="70" as="alternateBounds" />
          </mxGeometry>
        </mxCell>
        <mxCell id="v2UdAhtHkne79LI9UoaM-154" value="&lt;p style=&quot;line-height: 100%; margin-top: 2px; margin-bottom: 2px;&quot;&gt;&lt;span style=&quot;font-family: Arial, sans-serif; font-size: 14.6667px; white-space-collapse: preserve;&quot;&gt;id_item&lt;/span&gt;&lt;span&gt;&lt;span style=&quot;font-size: 11pt; font-family: Arial, sans-serif; background-color: transparent; font-variant-numeric: normal; font-variant-east-asian: normal; font-variant-alternates: normal; font-variant-position: normal; vertical-align: baseline; white-space-collapse: preserve;&quot;&gt;&lt;br&gt;&lt;/span&gt;&lt;/span&gt;&lt;/p&gt;&lt;p style=&quot;line-height: 100%; margin-top: 2px; margin-bottom: 2px;&quot;&gt;&lt;span id=&quot;docs-internal-guid-8dbaf0e3-7fff-ef4f-ca68-9ed70c98c840&quot;&gt;&lt;span style=&quot;font-size: 11pt; font-family: Arial, sans-serif; background-color: transparent; font-variant-numeric: normal; font-variant-east-asian: normal; font-variant-alternates: normal; font-variant-position: normal; vertical-align: baseline; white-space-collapse: preserve;&quot;&gt;id_area&lt;/span&gt;&lt;/span&gt;&lt;br&gt;&lt;/p&gt;&lt;p style=&quot;line-height: 100%; margin-top: 2px; margin-bottom: 2px;&quot;&gt;&lt;span id=&quot;docs-internal-guid-cba47cf8-7fff-01e3-0e69-eab5be2f1f1a&quot;&gt;&lt;span style=&quot;font-size: 11pt; font-family: Arial, sans-serif; background-color: transparent; font-variant-numeric: normal; font-variant-east-asian: normal; font-variant-alternates: normal; font-variant-position: normal; vertical-align: baseline; white-space-collapse: preserve;&quot;&gt;id_inventario&lt;/span&gt;&lt;/span&gt;&lt;span&gt;&lt;span style=&quot;font-size: 11pt; font-family: Arial, sans-serif; background-color: transparent; font-variant-numeric: normal; font-variant-east-asian: normal; font-variant-alternates: normal; font-variant-position: normal; vertical-align: baseline; white-space-collapse: preserve;&quot;&gt;&lt;br&gt;&lt;/span&gt;&lt;/span&gt;&lt;/p&gt;&lt;p style=&quot;line-height: 100%; margin-top: 2px; margin-bottom: 2px;&quot;&gt;&lt;span&gt;&lt;span style=&quot;font-size: 11pt; font-family: Arial, sans-serif; background-color: transparent; font-variant-numeric: normal; font-variant-east-asian: normal; font-variant-alternates: normal; font-variant-position: normal; vertical-align: baseline; white-space-collapse: preserve;&quot;&gt;&lt;br&gt;&lt;/span&gt;&lt;/span&gt;&lt;/p&gt;" style="shape=partialRectangle;html=1;whiteSpace=wrap;connectable=0;fillColor=none;top=1;left=0;bottom=1;right=0;align=left;spacingLeft=6;overflow=hidden;strokeColor=inherit;fontSize=16;noLabel=0;snapToPoint=0;horizontal=1;verticalAlign=top;" parent="v2UdAhtHkne79LI9UoaM-152" vertex="1">
          <mxGeometry x="70" width="130" height="70" as="geometry">
            <mxRectangle width="130" height="70" as="alternateBounds" />
          </mxGeometry>
        </mxCell>
        <mxCell id="v2UdAhtHkne79LI9UoaM-155" value="Instancia_Inimigo " style="shape=table;startSize=30;container=1;collapsible=0;childLayout=tableLayout;fixedRows=1;rowLines=0;fontStyle=0;strokeColor=default;fontSize=16;" parent="WIyWlLk6GJQsqaUBKTNV-1" vertex="1">
          <mxGeometry x="2440" y="885" width="200" height="120" as="geometry" />
        </mxCell>
        <mxCell id="v2UdAhtHkne79LI9UoaM-156" value="" style="shape=tableRow;horizontal=0;startSize=0;swimlaneHead=0;swimlaneBody=0;top=0;left=0;bottom=0;right=0;collapsible=0;dropTarget=0;fillColor=none;points=[[0,0.5],[1,0.5]];portConstraint=eastwest;strokeColor=inherit;fontSize=16;" parent="v2UdAhtHkne79LI9UoaM-155" vertex="1">
          <mxGeometry y="30" width="200" height="30" as="geometry" />
        </mxCell>
        <mxCell id="v2UdAhtHkne79LI9UoaM-157" value="PK" style="shape=partialRectangle;html=1;whiteSpace=wrap;connectable=0;fillColor=none;top=0;left=0;bottom=0;right=0;overflow=hidden;pointerEvents=1;strokeColor=inherit;fontSize=16;" parent="v2UdAhtHkne79LI9UoaM-156" vertex="1">
          <mxGeometry width="44" height="30" as="geometry">
            <mxRectangle width="44" height="30" as="alternateBounds" />
          </mxGeometry>
        </mxCell>
        <mxCell id="v2UdAhtHkne79LI9UoaM-158" value="&lt;span id=&quot;docs-internal-guid-63d4f2f8-7fff-e176-d109-c837a14ab8af&quot;&gt;&lt;span style=&quot;font-size: 11pt; font-family: Arial, sans-serif; background-color: transparent; font-variant-numeric: normal; font-variant-east-asian: normal; font-variant-alternates: normal; font-variant-position: normal; vertical-align: baseline; white-space-collapse: preserve;&quot;&gt;id_instancia&lt;/span&gt;&lt;/span&gt;" style="shape=partialRectangle;html=1;whiteSpace=wrap;connectable=0;fillColor=none;top=0;left=0;bottom=0;right=0;align=left;spacingLeft=6;overflow=hidden;strokeColor=inherit;fontSize=16;horizontal=1;" parent="v2UdAhtHkne79LI9UoaM-156" vertex="1">
          <mxGeometry x="44" width="156" height="30" as="geometry">
            <mxRectangle width="156" height="30" as="alternateBounds" />
          </mxGeometry>
        </mxCell>
        <mxCell id="v2UdAhtHkne79LI9UoaM-159" value="" style="shape=tableRow;horizontal=0;startSize=0;swimlaneHead=0;swimlaneBody=0;top=0;left=0;bottom=0;right=0;collapsible=0;dropTarget=0;fillColor=none;points=[[0,0.5],[1,0.5]];portConstraint=eastwest;strokeColor=inherit;fontSize=16;verticalAlign=top;" parent="v2UdAhtHkne79LI9UoaM-155" vertex="1">
          <mxGeometry y="60" width="200" height="60" as="geometry" />
        </mxCell>
        <mxCell id="v2UdAhtHkne79LI9UoaM-160" value="FK&lt;div&gt;FK&lt;/div&gt;" style="shape=partialRectangle;html=1;whiteSpace=wrap;connectable=0;fillColor=none;top=1;left=0;bottom=1;right=0;overflow=hidden;strokeColor=inherit;fontSize=16;noLabel=0;snapToPoint=0;" parent="v2UdAhtHkne79LI9UoaM-159" vertex="1">
          <mxGeometry width="44" height="60" as="geometry">
            <mxRectangle width="44" height="60" as="alternateBounds" />
          </mxGeometry>
        </mxCell>
        <mxCell id="v2UdAhtHkne79LI9UoaM-161" value="&lt;p style=&quot;line-height: 100%; margin-top: 2px; margin-bottom: 2px;&quot;&gt;&lt;span id=&quot;docs-internal-guid-e125e02c-7fff-f482-0a0d-0823dc2ea8a4&quot;&gt;&lt;span style=&quot;font-size: 11pt; font-family: Arial, sans-serif; background-color: transparent; font-variant-numeric: normal; font-variant-east-asian: normal; font-variant-alternates: normal; font-variant-position: normal; vertical-align: baseline; white-space-collapse: preserve;&quot;&gt;id_inimigo&lt;/span&gt;&lt;/span&gt;&lt;br&gt;&lt;/p&gt;&lt;p style=&quot;line-height: 100%; margin-top: 2px; margin-bottom: 2px;&quot;&gt;&lt;span id=&quot;docs-internal-guid-ea2fa881-7fff-10af-5b10-f5ea5106c965&quot;&gt;&lt;span style=&quot;font-size: 11pt; font-family: Arial, sans-serif; background-color: transparent; font-variant-numeric: normal; font-variant-east-asian: normal; font-variant-alternates: normal; font-variant-position: normal; vertical-align: baseline; white-space-collapse: preserve;&quot;&gt;area_id&lt;/span&gt;&lt;/span&gt;&lt;span&gt;&lt;span style=&quot;font-size: 11pt; font-family: Arial, sans-serif; background-color: transparent; font-variant-numeric: normal; font-variant-east-asian: normal; font-variant-alternates: normal; font-variant-position: normal; vertical-align: baseline; white-space-collapse: preserve;&quot;&gt;&lt;br&gt;&lt;/span&gt;&lt;/span&gt;&lt;/p&gt;" style="shape=partialRectangle;html=1;whiteSpace=wrap;connectable=0;fillColor=none;top=1;left=0;bottom=1;right=0;align=left;spacingLeft=6;overflow=hidden;strokeColor=inherit;fontSize=16;noLabel=0;snapToPoint=0;horizontal=1;verticalAlign=top;" parent="v2UdAhtHkne79LI9UoaM-159" vertex="1">
          <mxGeometry x="44" width="156" height="60" as="geometry">
            <mxRectangle width="156" height="60" as="alternateBounds" />
          </mxGeometry>
        </mxCell>
        <mxCell id="v2UdAhtHkne79LI9UoaM-162" value="Inventario " style="shape=table;startSize=30;container=1;collapsible=0;childLayout=tableLayout;fixedRows=1;rowLines=0;fontStyle=0;strokeColor=default;fontSize=16;" parent="WIyWlLk6GJQsqaUBKTNV-1" vertex="1">
          <mxGeometry x="1570" y="830" width="200" height="130" as="geometry" />
        </mxCell>
        <mxCell id="v2UdAhtHkne79LI9UoaM-163" value="" style="shape=tableRow;horizontal=0;startSize=0;swimlaneHead=0;swimlaneBody=0;top=0;left=0;bottom=0;right=0;collapsible=0;dropTarget=0;fillColor=none;points=[[0,0.5],[1,0.5]];portConstraint=eastwest;strokeColor=inherit;fontSize=16;" parent="v2UdAhtHkne79LI9UoaM-162" vertex="1">
          <mxGeometry y="30" width="200" height="60" as="geometry" />
        </mxCell>
        <mxCell id="v2UdAhtHkne79LI9UoaM-164" value="PK, FK&lt;div&gt;PK, FK&lt;/div&gt;" style="shape=partialRectangle;html=1;whiteSpace=wrap;connectable=0;fillColor=none;top=0;left=0;bottom=0;right=0;overflow=hidden;pointerEvents=1;strokeColor=inherit;fontSize=16;" parent="v2UdAhtHkne79LI9UoaM-163" vertex="1">
          <mxGeometry width="66" height="60" as="geometry">
            <mxRectangle width="66" height="60" as="alternateBounds" />
          </mxGeometry>
        </mxCell>
        <mxCell id="v2UdAhtHkne79LI9UoaM-165" value="&lt;span id=&quot;docs-internal-guid-d8cc0b13-7fff-0b93-f2d0-0fb2b2356460&quot;&gt;&lt;span style=&quot;font-size: 11pt; font-family: Arial, sans-serif; background-color: transparent; font-variant-numeric: normal; font-variant-east-asian: normal; font-variant-alternates: normal; font-variant-position: normal; vertical-align: baseline; white-space-collapse: preserve;&quot;&gt;id_usuario&lt;/span&gt;&lt;/span&gt;&lt;div&gt;&lt;span id=&quot;docs-internal-guid-96713478-7fff-2084-2098-c66fe931bd04&quot;&gt;&lt;span style=&quot;font-size: 11pt; font-family: Arial, sans-serif; background-color: transparent; font-variant-numeric: normal; font-variant-east-asian: normal; font-variant-alternates: normal; font-variant-position: normal; vertical-align: baseline; white-space-collapse: preserve;&quot;&gt;Instancia_Item &lt;/span&gt;&lt;/span&gt;&lt;span&gt;&lt;span style=&quot;font-size: 11pt; font-family: Arial, sans-serif; background-color: transparent; font-variant-numeric: normal; font-variant-east-asian: normal; font-variant-alternates: normal; font-variant-position: normal; vertical-align: baseline; white-space-collapse: preserve;&quot;&gt;&lt;br&gt;&lt;/span&gt;&lt;/span&gt;&lt;/div&gt;" style="shape=partialRectangle;html=1;whiteSpace=wrap;connectable=0;fillColor=none;top=0;left=0;bottom=0;right=0;align=left;spacingLeft=6;overflow=hidden;strokeColor=inherit;fontSize=16;horizontal=1;" parent="v2UdAhtHkne79LI9UoaM-163" vertex="1">
          <mxGeometry x="66" width="134" height="60" as="geometry">
            <mxRectangle width="134" height="60" as="alternateBounds" />
          </mxGeometry>
        </mxCell>
        <mxCell id="v2UdAhtHkne79LI9UoaM-166" value="" style="shape=tableRow;horizontal=0;startSize=0;swimlaneHead=0;swimlaneBody=0;top=0;left=0;bottom=0;right=0;collapsible=0;dropTarget=0;fillColor=none;points=[[0,0.5],[1,0.5]];portConstraint=eastwest;strokeColor=inherit;fontSize=16;verticalAlign=top;" parent="v2UdAhtHkne79LI9UoaM-162" vertex="1">
          <mxGeometry y="90" width="200" height="40" as="geometry" />
        </mxCell>
        <mxCell id="v2UdAhtHkne79LI9UoaM-167" value="" style="shape=partialRectangle;html=1;whiteSpace=wrap;connectable=0;fillColor=none;top=1;left=0;bottom=1;right=0;overflow=hidden;strokeColor=inherit;fontSize=16;noLabel=0;snapToPoint=0;" parent="v2UdAhtHkne79LI9UoaM-166" vertex="1">
          <mxGeometry width="66" height="40" as="geometry">
            <mxRectangle width="66" height="40" as="alternateBounds" />
          </mxGeometry>
        </mxCell>
        <mxCell id="v2UdAhtHkne79LI9UoaM-168" value="&lt;p style=&quot;line-height: 100%; margin-top: 2px; margin-bottom: 2px;&quot;&gt;&lt;span id=&quot;docs-internal-guid-8b547e52-7fff-40d2-8f05-c07cb23a4633&quot;&gt;&lt;span style=&quot;font-size: 11pt; font-family: Arial, sans-serif; background-color: transparent; font-variant-numeric: normal; font-variant-east-asian: normal; font-variant-alternates: normal; font-variant-position: normal; vertical-align: baseline; white-space-collapse: preserve;&quot;&gt;seção &lt;/span&gt;&lt;/span&gt;&lt;br&gt;&lt;/p&gt;" style="shape=partialRectangle;html=1;whiteSpace=wrap;connectable=0;fillColor=none;top=1;left=0;bottom=1;right=0;align=left;spacingLeft=6;overflow=hidden;strokeColor=inherit;fontSize=16;noLabel=0;snapToPoint=0;horizontal=1;verticalAlign=top;" parent="v2UdAhtHkne79LI9UoaM-166" vertex="1">
          <mxGeometry x="66" width="134" height="40" as="geometry">
            <mxRectangle width="134" height="40" as="alternateBounds" />
          </mxGeometry>
        </mxCell>
        <mxCell id="v2UdAhtHkne79LI9UoaM-169" value="Equipados" style="shape=table;startSize=30;container=1;collapsible=0;childLayout=tableLayout;fixedRows=1;rowLines=0;fontStyle=0;strokeColor=default;fontSize=16;" parent="WIyWlLk6GJQsqaUBKTNV-1" vertex="1">
          <mxGeometry x="1570" y="1070" width="200" height="190" as="geometry" />
        </mxCell>
        <mxCell id="v2UdAhtHkne79LI9UoaM-170" value="" style="shape=tableRow;horizontal=0;startSize=0;swimlaneHead=0;swimlaneBody=0;top=0;left=0;bottom=0;right=0;collapsible=0;dropTarget=0;fillColor=none;points=[[0,0.5],[1,0.5]];portConstraint=eastwest;strokeColor=inherit;fontSize=16;" parent="v2UdAhtHkne79LI9UoaM-169" vertex="1">
          <mxGeometry y="30" width="200" height="30" as="geometry" />
        </mxCell>
        <mxCell id="v2UdAhtHkne79LI9UoaM-171" value="PK, FK" style="shape=partialRectangle;html=1;whiteSpace=wrap;connectable=0;fillColor=none;top=0;left=0;bottom=0;right=0;overflow=hidden;pointerEvents=1;strokeColor=inherit;fontSize=16;" parent="v2UdAhtHkne79LI9UoaM-170" vertex="1">
          <mxGeometry width="60" height="30" as="geometry">
            <mxRectangle width="60" height="30" as="alternateBounds" />
          </mxGeometry>
        </mxCell>
        <mxCell id="v2UdAhtHkne79LI9UoaM-172" value="&lt;span id=&quot;docs-internal-guid-b51e7df8-7fff-9247-2de8-edc97919bc00&quot;&gt;&lt;span style=&quot;font-size: 11pt; font-family: Arial, sans-serif; background-color: transparent; font-variant-numeric: normal; font-variant-east-asian: normal; font-variant-alternates: normal; font-variant-position: normal; vertical-align: baseline; white-space-collapse: preserve;&quot;&gt;id_jogador&lt;/span&gt;&lt;/span&gt;" style="shape=partialRectangle;html=1;whiteSpace=wrap;connectable=0;fillColor=none;top=0;left=0;bottom=0;right=0;align=left;spacingLeft=6;overflow=hidden;strokeColor=inherit;fontSize=16;horizontal=1;" parent="v2UdAhtHkne79LI9UoaM-170" vertex="1">
          <mxGeometry x="60" width="140" height="30" as="geometry">
            <mxRectangle width="140" height="30" as="alternateBounds" />
          </mxGeometry>
        </mxCell>
        <mxCell id="v2UdAhtHkne79LI9UoaM-173" value="" style="shape=tableRow;horizontal=0;startSize=0;swimlaneHead=0;swimlaneBody=0;top=0;left=0;bottom=0;right=0;collapsible=0;dropTarget=0;fillColor=none;points=[[0,0.5],[1,0.5]];portConstraint=eastwest;strokeColor=inherit;fontSize=16;verticalAlign=top;" parent="v2UdAhtHkne79LI9UoaM-169" vertex="1">
          <mxGeometry y="60" width="200" height="130" as="geometry" />
        </mxCell>
        <mxCell id="v2UdAhtHkne79LI9UoaM-174" value="" style="shape=partialRectangle;html=1;whiteSpace=wrap;connectable=0;fillColor=none;top=1;left=0;bottom=1;right=0;overflow=hidden;strokeColor=inherit;fontSize=16;noLabel=0;snapToPoint=0;" parent="v2UdAhtHkne79LI9UoaM-173" vertex="1">
          <mxGeometry width="60" height="130" as="geometry">
            <mxRectangle width="60" height="130" as="alternateBounds" />
          </mxGeometry>
        </mxCell>
        <mxCell id="v2UdAhtHkne79LI9UoaM-175" value="&lt;p style=&quot;line-height: 100%; margin-top: 2px; margin-bottom: 2px;&quot;&gt;&lt;span id=&quot;docs-internal-guid-7ae1457d-7fff-a1cf-b16c-11d4ae6d3486&quot;&gt;&lt;span style=&quot;font-size: 11pt; font-family: Arial, sans-serif; background-color: transparent; font-variant-numeric: normal; font-variant-east-asian: normal; font-variant-alternates: normal; font-variant-position: normal; vertical-align: baseline; white-space-collapse: preserve;&quot;&gt;mao_direita&lt;/span&gt;&lt;/span&gt;&lt;br&gt;&lt;/p&gt;&lt;p style=&quot;line-height: 100%; margin-top: 2px; margin-bottom: 2px;&quot;&gt;&lt;span id=&quot;docs-internal-guid-120ebb62-7fff-b3a3-74b1-03a9f989b488&quot;&gt;&lt;span style=&quot;font-size: 11pt; font-family: Arial, sans-serif; background-color: transparent; font-variant-numeric: normal; font-variant-east-asian: normal; font-variant-alternates: normal; font-variant-position: normal; vertical-align: baseline; white-space-collapse: preserve;&quot;&gt;mão_esquerda&lt;/span&gt;&lt;/span&gt;&lt;span&gt;&lt;span style=&quot;font-size: 11pt; font-family: Arial, sans-serif; background-color: transparent; font-variant-numeric: normal; font-variant-east-asian: normal; font-variant-alternates: normal; font-variant-position: normal; vertical-align: baseline; white-space-collapse: preserve;&quot;&gt;&lt;br&gt;&lt;/span&gt;&lt;/span&gt;&lt;/p&gt;&lt;p style=&quot;line-height: 100%; margin-top: 2px; margin-bottom: 2px;&quot;&gt;&lt;span id=&quot;docs-internal-guid-e2cc2a3f-7fff-c5c3-1786-c7c206308e08&quot;&gt;&lt;span style=&quot;font-size: 11pt; font-family: Arial, sans-serif; background-color: transparent; font-variant-numeric: normal; font-variant-east-asian: normal; font-variant-alternates: normal; font-variant-position: normal; vertical-align: baseline; white-space-collapse: preserve;&quot;&gt;elmo&lt;/span&gt;&lt;/span&gt;&lt;span&gt;&lt;span style=&quot;font-size: 11pt; font-family: Arial, sans-serif; background-color: transparent; font-variant-numeric: normal; font-variant-east-asian: normal; font-variant-alternates: normal; font-variant-position: normal; vertical-align: baseline; white-space-collapse: preserve;&quot;&gt;&lt;br&gt;&lt;/span&gt;&lt;/span&gt;&lt;/p&gt;&lt;p style=&quot;line-height: 100%; margin-top: 2px; margin-bottom: 2px;&quot;&gt;&lt;span id=&quot;docs-internal-guid-07df7f94-7fff-d218-7d6f-fbb62f87eef4&quot;&gt;&lt;span style=&quot;font-size: 11pt; font-family: Arial, sans-serif; background-color: transparent; font-variant-numeric: normal; font-variant-east-asian: normal; font-variant-alternates: normal; font-variant-position: normal; vertical-align: baseline; white-space-collapse: preserve;&quot;&gt;peitoral&lt;/span&gt;&lt;/span&gt;&lt;span&gt;&lt;span style=&quot;font-size: 11pt; font-family: Arial, sans-serif; background-color: transparent; font-variant-numeric: normal; font-variant-east-asian: normal; font-variant-alternates: normal; font-variant-position: normal; vertical-align: baseline; white-space-collapse: preserve;&quot;&gt;&lt;br&gt;&lt;/span&gt;&lt;/span&gt;&lt;/p&gt;&lt;p style=&quot;line-height: 100%; margin-top: 2px; margin-bottom: 2px;&quot;&gt;&lt;span id=&quot;docs-internal-guid-01354df7-7fff-e63e-d542-519aabcd547b&quot;&gt;&lt;span style=&quot;font-size: 11pt; font-family: Arial, sans-serif; background-color: transparent; font-variant-numeric: normal; font-variant-east-asian: normal; font-variant-alternates: normal; font-variant-position: normal; vertical-align: baseline; white-space-collapse: preserve;&quot;&gt;pernas&lt;/span&gt;&lt;/span&gt;&lt;span&gt;&lt;span style=&quot;font-size: 11pt; font-family: Arial, sans-serif; background-color: transparent; font-variant-numeric: normal; font-variant-east-asian: normal; font-variant-alternates: normal; font-variant-position: normal; vertical-align: baseline; white-space-collapse: preserve;&quot;&gt;&lt;br&gt;&lt;/span&gt;&lt;/span&gt;&lt;/p&gt;&lt;p style=&quot;line-height: 100%; margin-top: 2px; margin-bottom: 2px;&quot;&gt;&lt;span id=&quot;docs-internal-guid-c850ce6a-7fff-f4b8-8d04-3b8db13b700f&quot;&gt;&lt;span style=&quot;font-size: 11pt; font-family: Arial, sans-serif; background-color: transparent; font-variant-numeric: normal; font-variant-east-asian: normal; font-variant-alternates: normal; font-variant-position: normal; vertical-align: baseline; white-space-collapse: preserve;&quot;&gt;manopolas&lt;/span&gt;&lt;/span&gt;&lt;span&gt;&lt;span style=&quot;font-size: 11pt; font-family: Arial, sans-serif; background-color: transparent; font-variant-numeric: normal; font-variant-east-asian: normal; font-variant-alternates: normal; font-variant-position: normal; vertical-align: baseline; white-space-collapse: preserve;&quot;&gt;&lt;br&gt;&lt;/span&gt;&lt;/span&gt;&lt;/p&gt;" style="shape=partialRectangle;html=1;whiteSpace=wrap;connectable=0;fillColor=none;top=1;left=0;bottom=1;right=0;align=left;spacingLeft=6;overflow=hidden;strokeColor=inherit;fontSize=16;noLabel=0;snapToPoint=0;horizontal=1;verticalAlign=top;" parent="v2UdAhtHkne79LI9UoaM-173" vertex="1">
          <mxGeometry x="60" width="140" height="130" as="geometry">
            <mxRectangle width="140" height="130" as="alternateBounds" />
          </mxGeometry>
        </mxCell>
        <mxCell id="v2UdAhtHkne79LI9UoaM-186" value="OBSERVAÇÃO" style="swimlane;fontStyle=0;childLayout=stackLayout;horizontal=1;startSize=20;fillColor=none;horizontalStack=0;resizeParent=1;resizeParentMax=0;resizeLast=0;collapsible=1;marginBottom=0;whiteSpace=wrap;html=1;" parent="WIyWlLk6GJQsqaUBKTNV-1" vertex="1">
          <mxGeometry x="2030" y="780" width="190" height="140" as="geometry" />
        </mxCell>
        <mxCell id="v2UdAhtHkne79LI9UoaM-189" value="&lt;span id=&quot;docs-internal-guid-ff6fdbab-7fff-44e4-a10f-f229078572c2&quot;&gt;&lt;span style=&quot;font-size: 11pt; font-family: Arial, sans-serif; background-color: transparent; font-style: italic; font-variant-numeric: normal; font-variant-east-asian: normal; font-variant-alternates: normal; font-variant-position: normal; vertical-align: baseline; white-space-collapse: preserve;&quot;&gt;OBS: se uma instância de item estiver em um inventário o id_area sera null e se uma instância de item estiver em uma área o id_inventario será null.&lt;/span&gt;&lt;/span&gt;" style="text;strokeColor=none;fillColor=none;align=left;verticalAlign=top;spacingLeft=4;spacingRight=4;overflow=hidden;rotatable=0;points=[[0,0.5],[1,0.5]];portConstraint=eastwest;whiteSpace=wrap;html=1;" parent="v2UdAhtHkne79LI9UoaM-186" vertex="1">
          <mxGeometry y="20" width="190" height="120" as="geometry" />
        </mxCell>
        <mxCell id="v2UdAhtHkne79LI9UoaM-199" style="edgeStyle=orthogonalEdgeStyle;rounded=0;orthogonalLoop=1;jettySize=auto;html=1;exitX=1;exitY=0.5;exitDx=0;exitDy=0;entryX=0.27;entryY=1.022;entryDx=0;entryDy=0;entryPerimeter=0;" parent="WIyWlLk6GJQsqaUBKTNV-1" source="v2UdAhtHkne79LI9UoaM-173" target="v2UdAhtHkne79LI9UoaM-50" edge="1">
          <mxGeometry relative="1" as="geometry">
            <mxPoint x="3000" y="1940" as="targetPoint" />
            <mxPoint x="1770" y="1195" as="sourcePoint" />
            <Array as="points">
              <mxPoint x="1921" y="1195" />
              <mxPoint x="1921" y="1990" />
              <mxPoint x="3435" y="1990" />
            </Array>
          </mxGeometry>
        </mxCell>
        <mxCell id="v2UdAhtHkne79LI9UoaM-205" style="edgeStyle=orthogonalEdgeStyle;rounded=0;orthogonalLoop=1;jettySize=auto;html=1;exitX=1;exitY=0.5;exitDx=0;exitDy=0;entryX=0.5;entryY=0;entryDx=0;entryDy=0;endArrow=none;endFill=0;" parent="WIyWlLk6GJQsqaUBKTNV-1" source="v2UdAhtHkne79LI9UoaM-152" target="v2UdAhtHkne79LI9UoaM-186" edge="1">
          <mxGeometry relative="1" as="geometry">
            <Array as="points">
              <mxPoint x="2050" y="740" />
              <mxPoint x="2125" y="740" />
            </Array>
          </mxGeometry>
        </mxCell>
        <mxCell id="v2UdAhtHkne79LI9UoaM-206" style="edgeStyle=orthogonalEdgeStyle;rounded=0;orthogonalLoop=1;jettySize=auto;html=1;exitX=0;exitY=0.5;exitDx=0;exitDy=0;entryX=1.015;entryY=0.707;entryDx=0;entryDy=0;entryPerimeter=0;" parent="WIyWlLk6GJQsqaUBKTNV-1" source="v2UdAhtHkne79LI9UoaM-152" target="v2UdAhtHkne79LI9UoaM-163" edge="1">
          <mxGeometry relative="1" as="geometry" />
        </mxCell>
        <mxCell id="v2UdAhtHkne79LI9UoaM-208" style="edgeStyle=orthogonalEdgeStyle;rounded=0;orthogonalLoop=1;jettySize=auto;html=1;exitX=0.5;exitY=0;exitDx=0;exitDy=0;entryX=0.5;entryY=1;entryDx=0;entryDy=0;entryPerimeter=0;" parent="WIyWlLk6GJQsqaUBKTNV-1" source="v2UdAhtHkne79LI9UoaM-169" target="v2UdAhtHkne79LI9UoaM-166" edge="1">
          <mxGeometry relative="1" as="geometry" />
        </mxCell>
        <mxCell id="v2UdAhtHkne79LI9UoaM-212" style="edgeStyle=orthogonalEdgeStyle;rounded=0;orthogonalLoop=1;jettySize=auto;html=1;exitX=1;exitY=0.5;exitDx=0;exitDy=0;entryX=0;entryY=0.5;entryDx=0;entryDy=0;" parent="WIyWlLk6GJQsqaUBKTNV-1" source="v2UdAhtHkne79LI9UoaM-152" target="v2UdAhtHkne79LI9UoaM-38" edge="1">
          <mxGeometry relative="1" as="geometry">
            <Array as="points">
              <mxPoint x="2655" y="715" />
              <mxPoint x="2655" y="510" />
            </Array>
          </mxGeometry>
        </mxCell>
        <mxCell id="v2UdAhtHkne79LI9UoaM-214" style="edgeStyle=orthogonalEdgeStyle;rounded=0;orthogonalLoop=1;jettySize=auto;html=1;exitX=1;exitY=0.5;exitDx=0;exitDy=0;entryX=0;entryY=0.833;entryDx=0;entryDy=0;entryPerimeter=0;" parent="WIyWlLk6GJQsqaUBKTNV-1" source="v2UdAhtHkne79LI9UoaM-159" target="v2UdAhtHkne79LI9UoaM-38" edge="1">
          <mxGeometry relative="1" as="geometry" />
        </mxCell>
        <mxCell id="v2UdAhtHkne79LI9UoaM-216" style="edgeStyle=orthogonalEdgeStyle;rounded=0;orthogonalLoop=1;jettySize=auto;html=1;exitX=0;exitY=0.5;exitDx=0;exitDy=0;entryX=0.25;entryY=0;entryDx=0;entryDy=0;" parent="WIyWlLk6GJQsqaUBKTNV-1" source="v2UdAhtHkne79LI9UoaM-159" target="v2UdAhtHkne79LI9UoaM-108" edge="1">
          <mxGeometry relative="1" as="geometry" />
        </mxCell>
        <mxCell id="IUnqAXlvmVCQ_zHJ9PV--0" value="Golpes" style="shape=table;startSize=30;container=1;collapsible=0;childLayout=tableLayout;fixedRows=1;rowLines=0;fontStyle=0;strokeColor=default;fontSize=16;" parent="WIyWlLk6GJQsqaUBKTNV-1" vertex="1">
          <mxGeometry x="2010" y="1800" width="200" height="130" as="geometry" />
        </mxCell>
        <mxCell id="IUnqAXlvmVCQ_zHJ9PV--1" value="" style="shape=tableRow;horizontal=0;startSize=0;swimlaneHead=0;swimlaneBody=0;top=0;left=0;bottom=0;right=0;collapsible=0;dropTarget=0;fillColor=none;points=[[0,0.5],[1,0.5]];portConstraint=eastwest;strokeColor=inherit;fontSize=16;" parent="IUnqAXlvmVCQ_zHJ9PV--0" vertex="1">
          <mxGeometry y="30" width="200" height="30" as="geometry" />
        </mxCell>
        <mxCell id="IUnqAXlvmVCQ_zHJ9PV--2" value="PK" style="shape=partialRectangle;html=1;whiteSpace=wrap;connectable=0;fillColor=none;top=0;left=0;bottom=0;right=0;overflow=hidden;pointerEvents=1;strokeColor=inherit;fontSize=16;" parent="IUnqAXlvmVCQ_zHJ9PV--1" vertex="1">
          <mxGeometry width="44" height="30" as="geometry">
            <mxRectangle width="44" height="30" as="alternateBounds" />
          </mxGeometry>
        </mxCell>
        <mxCell id="IUnqAXlvmVCQ_zHJ9PV--3" value="&lt;span id=&quot;docs-internal-guid-14770907-7fff-5889-afd3-2d7ff9d312d9&quot;&gt;&lt;span style=&quot;font-size: 11pt; font-family: Arial, sans-serif; background-color: transparent; font-variant-numeric: normal; font-variant-east-asian: normal; font-variant-alternates: normal; font-variant-position: normal; vertical-align: baseline; white-space-collapse: preserve;&quot;&gt;id_golpe&lt;/span&gt;&lt;/span&gt;" style="shape=partialRectangle;html=1;whiteSpace=wrap;connectable=0;fillColor=none;top=0;left=0;bottom=0;right=0;align=left;spacingLeft=6;overflow=hidden;strokeColor=inherit;fontSize=16;horizontal=1;" parent="IUnqAXlvmVCQ_zHJ9PV--1" vertex="1">
          <mxGeometry x="44" width="156" height="30" as="geometry">
            <mxRectangle width="156" height="30" as="alternateBounds" />
          </mxGeometry>
        </mxCell>
        <mxCell id="IUnqAXlvmVCQ_zHJ9PV--4" value="" style="shape=tableRow;horizontal=0;startSize=0;swimlaneHead=0;swimlaneBody=0;top=0;left=0;bottom=0;right=0;collapsible=0;dropTarget=0;fillColor=none;points=[[0,0.5],[1,0.5]];portConstraint=eastwest;strokeColor=inherit;fontSize=16;verticalAlign=top;" parent="IUnqAXlvmVCQ_zHJ9PV--0" vertex="1">
          <mxGeometry y="60" width="200" height="70" as="geometry" />
        </mxCell>
        <mxCell id="IUnqAXlvmVCQ_zHJ9PV--5" value="&lt;div&gt;&lt;br&gt;&lt;/div&gt;&lt;div&gt;&lt;br&gt;&lt;/div&gt;&lt;div&gt;FK&lt;/div&gt;" style="shape=partialRectangle;html=1;whiteSpace=wrap;connectable=0;fillColor=none;top=1;left=0;bottom=1;right=0;overflow=hidden;strokeColor=inherit;fontSize=16;noLabel=0;snapToPoint=0;" parent="IUnqAXlvmVCQ_zHJ9PV--4" vertex="1">
          <mxGeometry width="44" height="70" as="geometry">
            <mxRectangle width="44" height="70" as="alternateBounds" />
          </mxGeometry>
        </mxCell>
        <mxCell id="IUnqAXlvmVCQ_zHJ9PV--6" value="&lt;p style=&quot;line-height: 100%; margin-top: 2px; margin-bottom: 2px;&quot;&gt;&lt;font face=&quot;Arial, sans-serif&quot;&gt;&lt;span style=&quot;font-size: 14.6667px; white-space-collapse: preserve;&quot;&gt;multiplicador&lt;/span&gt;&lt;/font&gt;&lt;/p&gt;&lt;p style=&quot;line-height: 100%; margin-top: 2px; margin-bottom: 2px;&quot;&gt;&lt;span id=&quot;docs-internal-guid-3273ad79-7fff-7fa3-0f40-e9cbb89c4805&quot;&gt;&lt;span style=&quot;font-size: 11pt; font-family: Arial, sans-serif; background-color: transparent; font-variant-numeric: normal; font-variant-east-asian: normal; font-variant-alternates: normal; font-variant-position: normal; vertical-align: baseline; white-space-collapse: preserve;&quot;&gt;dano_final&lt;/span&gt;&lt;/span&gt;&lt;span&gt;&lt;span style=&quot;font-size: 11pt; font-family: Arial, sans-serif; background-color: transparent; font-variant-numeric: normal; font-variant-east-asian: normal; font-variant-alternates: normal; font-variant-position: normal; vertical-align: baseline; white-space-collapse: preserve;&quot;&gt;&lt;br&gt;&lt;/span&gt;&lt;/span&gt;&lt;/p&gt;&lt;p style=&quot;line-height: 100%; margin-top: 2px; margin-bottom: 2px;&quot;&gt;&lt;span id=&quot;docs-internal-guid-e127a061-7fff-8ce1-4dbc-56c30ac11722&quot;&gt;&lt;span style=&quot;font-size: 11pt; font-family: Arial, sans-serif; background-color: transparent; font-variant-numeric: normal; font-variant-east-asian: normal; font-variant-alternates: normal; font-variant-position: normal; vertical-align: baseline; white-space-collapse: preserve;&quot;&gt;id_npc&lt;/span&gt;&lt;/span&gt;&lt;span&gt;&lt;span style=&quot;font-size: 11pt; font-family: Arial, sans-serif; background-color: transparent; font-variant-numeric: normal; font-variant-east-asian: normal; font-variant-alternates: normal; font-variant-position: normal; vertical-align: baseline; white-space-collapse: preserve;&quot;&gt;&lt;br&gt;&lt;/span&gt;&lt;/span&gt;&lt;/p&gt;" style="shape=partialRectangle;html=1;whiteSpace=wrap;connectable=0;fillColor=none;top=1;left=0;bottom=1;right=0;align=left;spacingLeft=6;overflow=hidden;strokeColor=inherit;fontSize=16;noLabel=0;snapToPoint=0;horizontal=1;verticalAlign=top;" parent="IUnqAXlvmVCQ_zHJ9PV--4" vertex="1">
          <mxGeometry x="44" width="156" height="70" as="geometry">
            <mxRectangle width="156" height="70" as="alternateBounds" />
          </mxGeometry>
        </mxCell>
        <mxCell id="IUnqAXlvmVCQ_zHJ9PV--8" style="edgeStyle=orthogonalEdgeStyle;rounded=0;orthogonalLoop=1;jettySize=auto;html=1;exitX=0;exitY=0.5;exitDx=0;exitDy=0;entryX=0;entryY=0.5;entryDx=0;entryDy=0;" parent="WIyWlLk6GJQsqaUBKTNV-1" source="IUnqAXlvmVCQ_zHJ9PV--4" target="v2UdAhtHkne79LI9UoaM-109" edge="1">
          <mxGeometry relative="1" as="geometry" />
        </mxCell>
        <mxCell id="IUnqAXlvmVCQ_zHJ9PV--9" style="edgeStyle=orthogonalEdgeStyle;rounded=0;orthogonalLoop=1;jettySize=auto;html=1;exitX=1;exitY=0.5;exitDx=0;exitDy=0;entryX=-0.025;entryY=0.367;entryDx=0;entryDy=0;entryPerimeter=0;" parent="WIyWlLk6GJQsqaUBKTNV-1" source="IUnqAXlvmVCQ_zHJ9PV--4" target="v2UdAhtHkne79LI9UoaM-119" edge="1">
          <mxGeometry relative="1" as="geometry">
            <Array as="points">
              <mxPoint x="2640" y="1895" />
              <mxPoint x="2640" y="1647" />
            </Array>
          </mxGeometry>
        </mxCell>
        <mxCell id="HsxA0cAns8KoD92Ul6s8-1" value="Armadura" style="shape=table;startSize=30;container=1;collapsible=0;childLayout=tableLayout;fixedRows=1;rowLines=0;fontStyle=0;strokeColor=default;fontSize=16;" vertex="1" parent="WIyWlLk6GJQsqaUBKTNV-1">
          <mxGeometry x="1490" y="140" width="260" height="210" as="geometry" />
        </mxCell>
        <mxCell id="HsxA0cAns8KoD92Ul6s8-2" value="" style="shape=tableRow;horizontal=0;startSize=0;swimlaneHead=0;swimlaneBody=0;top=0;left=0;bottom=0;right=0;collapsible=0;dropTarget=0;fillColor=none;points=[[0,0.5],[1,0.5]];portConstraint=eastwest;strokeColor=inherit;fontSize=16;" vertex="1" parent="HsxA0cAns8KoD92Ul6s8-1">
          <mxGeometry y="30" width="260" height="50" as="geometry" />
        </mxCell>
        <mxCell id="HsxA0cAns8KoD92Ul6s8-3" value="PK&lt;div&gt;FK, SK&lt;/div&gt;" style="shape=partialRectangle;html=1;whiteSpace=wrap;connectable=0;fillColor=none;top=0;left=0;bottom=0;right=0;overflow=hidden;pointerEvents=1;strokeColor=inherit;fontSize=16;" vertex="1" parent="HsxA0cAns8KoD92Ul6s8-2">
          <mxGeometry width="57" height="50" as="geometry">
            <mxRectangle width="57" height="50" as="alternateBounds" />
          </mxGeometry>
        </mxCell>
        <mxCell id="HsxA0cAns8KoD92Ul6s8-4" value="id_armadura&lt;div&gt;id_item&lt;/div&gt;" style="shape=partialRectangle;html=1;whiteSpace=wrap;connectable=0;fillColor=none;top=0;left=0;bottom=0;right=0;align=left;spacingLeft=6;overflow=hidden;strokeColor=inherit;fontSize=16;horizontal=1;" vertex="1" parent="HsxA0cAns8KoD92Ul6s8-2">
          <mxGeometry x="57" width="203" height="50" as="geometry">
            <mxRectangle width="203" height="50" as="alternateBounds" />
          </mxGeometry>
        </mxCell>
        <mxCell id="HsxA0cAns8KoD92Ul6s8-5" value="" style="shape=tableRow;horizontal=0;startSize=0;swimlaneHead=0;swimlaneBody=0;top=0;left=0;bottom=0;right=0;collapsible=0;dropTarget=0;fillColor=none;points=[[0,0.5],[1,0.5]];portConstraint=eastwest;strokeColor=inherit;fontSize=16;verticalAlign=top;" vertex="1" parent="HsxA0cAns8KoD92Ul6s8-1">
          <mxGeometry y="80" width="260" height="130" as="geometry" />
        </mxCell>
        <mxCell id="HsxA0cAns8KoD92Ul6s8-6" value="" style="shape=partialRectangle;html=1;whiteSpace=wrap;connectable=0;fillColor=none;top=1;left=0;bottom=1;right=0;overflow=hidden;strokeColor=inherit;fontSize=16;noLabel=0;snapToPoint=0;" vertex="1" parent="HsxA0cAns8KoD92Ul6s8-5">
          <mxGeometry width="57" height="130" as="geometry">
            <mxRectangle width="57" height="130" as="alternateBounds" />
          </mxGeometry>
        </mxCell>
        <mxCell id="HsxA0cAns8KoD92Ul6s8-7" value="tipo&lt;div&gt;requisitos&lt;/div&gt;&lt;div&gt;melhoria&lt;/div&gt;&lt;div&gt;peso&lt;/div&gt;&lt;div&gt;custo_melhoria&lt;/div&gt;&lt;div&gt;resistencia&lt;/div&gt;&lt;div&gt;&lt;br&gt;&lt;/div&gt;&lt;div&gt;&lt;br&gt;&lt;/div&gt;" style="shape=partialRectangle;html=1;whiteSpace=wrap;connectable=0;fillColor=none;top=1;left=0;bottom=1;right=0;align=left;spacingLeft=6;overflow=hidden;strokeColor=inherit;fontSize=16;noLabel=0;snapToPoint=0;horizontal=1;verticalAlign=top;" vertex="1" parent="HsxA0cAns8KoD92Ul6s8-5">
          <mxGeometry x="57" width="203" height="130" as="geometry">
            <mxRectangle width="203" height="130" as="alternateBounds" />
          </mxGeometry>
        </mxCell>
        <mxCell id="HsxA0cAns8KoD92Ul6s8-8" value="Escudo" style="shape=table;startSize=30;container=1;collapsible=0;childLayout=tableLayout;fixedRows=1;rowLines=0;fontStyle=0;strokeColor=default;fontSize=16;" vertex="1" parent="WIyWlLk6GJQsqaUBKTNV-1">
          <mxGeometry x="1810" y="120" width="250" height="230" as="geometry" />
        </mxCell>
        <mxCell id="HsxA0cAns8KoD92Ul6s8-9" value="" style="shape=tableRow;horizontal=0;startSize=0;swimlaneHead=0;swimlaneBody=0;top=0;left=0;bottom=0;right=0;collapsible=0;dropTarget=0;fillColor=none;points=[[0,0.5],[1,0.5]];portConstraint=eastwest;strokeColor=inherit;fontSize=16;" vertex="1" parent="HsxA0cAns8KoD92Ul6s8-8">
          <mxGeometry y="30" width="250" height="50" as="geometry" />
        </mxCell>
        <mxCell id="HsxA0cAns8KoD92Ul6s8-10" value="PK&lt;div&gt;FK,SK&lt;/div&gt;" style="shape=partialRectangle;html=1;whiteSpace=wrap;connectable=0;fillColor=none;top=0;left=0;bottom=0;right=0;overflow=hidden;pointerEvents=1;strokeColor=inherit;fontSize=16;" vertex="1" parent="HsxA0cAns8KoD92Ul6s8-9">
          <mxGeometry width="55" height="50" as="geometry">
            <mxRectangle width="55" height="50" as="alternateBounds" />
          </mxGeometry>
        </mxCell>
        <mxCell id="HsxA0cAns8KoD92Ul6s8-11" value="id_armadura&lt;div&gt;id_item&lt;/div&gt;" style="shape=partialRectangle;html=1;whiteSpace=wrap;connectable=0;fillColor=none;top=0;left=0;bottom=0;right=0;align=left;spacingLeft=6;overflow=hidden;strokeColor=inherit;fontSize=16;horizontal=1;" vertex="1" parent="HsxA0cAns8KoD92Ul6s8-9">
          <mxGeometry x="55" width="195" height="50" as="geometry">
            <mxRectangle width="195" height="50" as="alternateBounds" />
          </mxGeometry>
        </mxCell>
        <mxCell id="HsxA0cAns8KoD92Ul6s8-12" value="" style="shape=tableRow;horizontal=0;startSize=0;swimlaneHead=0;swimlaneBody=0;top=0;left=0;bottom=0;right=0;collapsible=0;dropTarget=0;fillColor=none;points=[[0,0.5],[1,0.5]];portConstraint=eastwest;strokeColor=inherit;fontSize=16;verticalAlign=top;" vertex="1" parent="HsxA0cAns8KoD92Ul6s8-8">
          <mxGeometry y="80" width="250" height="150" as="geometry" />
        </mxCell>
        <mxCell id="HsxA0cAns8KoD92Ul6s8-13" value="" style="shape=partialRectangle;html=1;whiteSpace=wrap;connectable=0;fillColor=none;top=1;left=0;bottom=1;right=0;overflow=hidden;strokeColor=inherit;fontSize=16;noLabel=0;snapToPoint=0;" vertex="1" parent="HsxA0cAns8KoD92Ul6s8-12">
          <mxGeometry width="55" height="150" as="geometry">
            <mxRectangle width="55" height="150" as="alternateBounds" />
          </mxGeometry>
        </mxCell>
        <mxCell id="HsxA0cAns8KoD92Ul6s8-14" value="defesa&lt;div&gt;habilidade&lt;/div&gt;&lt;div&gt;tipo&lt;/div&gt;&lt;div&gt;requisitos&lt;/div&gt;&lt;div&gt;melhoria&lt;/div&gt;&lt;div&gt;peso&lt;/div&gt;&lt;div&gt;custo_melhoria&lt;/div&gt;" style="shape=partialRectangle;html=1;whiteSpace=wrap;connectable=0;fillColor=none;top=1;left=0;bottom=1;right=0;align=left;spacingLeft=6;overflow=hidden;strokeColor=inherit;fontSize=16;noLabel=0;snapToPoint=0;horizontal=1;verticalAlign=top;" vertex="1" parent="HsxA0cAns8KoD92Ul6s8-12">
          <mxGeometry x="55" width="195" height="150" as="geometry">
            <mxRectangle width="195" height="150" as="alternateBounds" />
          </mxGeometry>
        </mxCell>
        <mxCell id="HsxA0cAns8KoD92Ul6s8-15" value="Engaste" style="shape=table;startSize=30;container=1;collapsible=0;childLayout=tableLayout;fixedRows=1;rowLines=0;fontStyle=0;strokeColor=default;fontSize=16;" vertex="1" parent="WIyWlLk6GJQsqaUBKTNV-1">
          <mxGeometry x="1810" y="-130" width="180" height="130" as="geometry" />
        </mxCell>
        <mxCell id="HsxA0cAns8KoD92Ul6s8-16" value="" style="shape=tableRow;horizontal=0;startSize=0;swimlaneHead=0;swimlaneBody=0;top=0;left=0;bottom=0;right=0;collapsible=0;dropTarget=0;fillColor=none;points=[[0,0.5],[1,0.5]];portConstraint=eastwest;strokeColor=inherit;fontSize=16;" vertex="1" parent="HsxA0cAns8KoD92Ul6s8-15">
          <mxGeometry y="30" width="180" height="70" as="geometry" />
        </mxCell>
        <mxCell id="HsxA0cAns8KoD92Ul6s8-17" value="PK&lt;div&gt;FK, SK&lt;/div&gt;" style="shape=partialRectangle;html=1;whiteSpace=wrap;connectable=0;fillColor=none;top=0;left=0;bottom=0;right=0;overflow=hidden;pointerEvents=1;strokeColor=inherit;fontSize=16;" vertex="1" parent="HsxA0cAns8KoD92Ul6s8-16">
          <mxGeometry width="60" height="70" as="geometry">
            <mxRectangle width="60" height="70" as="alternateBounds" />
          </mxGeometry>
        </mxCell>
        <mxCell id="HsxA0cAns8KoD92Ul6s8-18" value="id_engaste&lt;div&gt;id_armadura&lt;/div&gt;" style="shape=partialRectangle;html=1;whiteSpace=wrap;connectable=0;fillColor=none;top=0;left=0;bottom=0;right=0;align=left;spacingLeft=6;overflow=hidden;strokeColor=inherit;fontSize=16;horizontal=1;" vertex="1" parent="HsxA0cAns8KoD92Ul6s8-16">
          <mxGeometry x="60" width="120" height="70" as="geometry">
            <mxRectangle width="120" height="70" as="alternateBounds" />
          </mxGeometry>
        </mxCell>
        <mxCell id="HsxA0cAns8KoD92Ul6s8-19" value="" style="shape=tableRow;horizontal=0;startSize=0;swimlaneHead=0;swimlaneBody=0;top=0;left=0;bottom=0;right=0;collapsible=0;dropTarget=0;fillColor=none;points=[[0,0.5],[1,0.5]];portConstraint=eastwest;strokeColor=inherit;fontSize=16;verticalAlign=top;" vertex="1" parent="HsxA0cAns8KoD92Ul6s8-15">
          <mxGeometry y="100" width="180" height="30" as="geometry" />
        </mxCell>
        <mxCell id="HsxA0cAns8KoD92Ul6s8-20" value="" style="shape=partialRectangle;html=1;whiteSpace=wrap;connectable=0;fillColor=none;top=1;left=0;bottom=1;right=0;overflow=hidden;strokeColor=inherit;fontSize=16;noLabel=0;snapToPoint=0;" vertex="1" parent="HsxA0cAns8KoD92Ul6s8-19">
          <mxGeometry width="60" height="30" as="geometry">
            <mxRectangle width="60" height="30" as="alternateBounds" />
          </mxGeometry>
        </mxCell>
        <mxCell id="HsxA0cAns8KoD92Ul6s8-21" value="atributo_extra&lt;div&gt;&lt;br&gt;&lt;/div&gt;" style="shape=partialRectangle;html=1;whiteSpace=wrap;connectable=0;fillColor=none;top=1;left=0;bottom=1;right=0;align=left;spacingLeft=6;overflow=hidden;strokeColor=inherit;fontSize=16;noLabel=0;snapToPoint=0;horizontal=1;verticalAlign=top;" vertex="1" parent="HsxA0cAns8KoD92Ul6s8-19">
          <mxGeometry x="60" width="120" height="30" as="geometry">
            <mxRectangle width="120" height="30" as="alternateBounds" />
          </mxGeometry>
        </mxCell>
        <mxCell id="HsxA0cAns8KoD92Ul6s8-23" value="Cajado" style="shape=table;startSize=30;container=1;collapsible=0;childLayout=tableLayout;fixedRows=1;rowLines=0;fontStyle=0;strokeColor=default;fontSize=16;" vertex="1" parent="WIyWlLk6GJQsqaUBKTNV-1">
          <mxGeometry x="2190" y="80" width="200" height="270" as="geometry" />
        </mxCell>
        <mxCell id="HsxA0cAns8KoD92Ul6s8-24" value="" style="shape=tableRow;horizontal=0;startSize=0;swimlaneHead=0;swimlaneBody=0;top=0;left=0;bottom=0;right=0;collapsible=0;dropTarget=0;fillColor=none;points=[[0,0.5],[1,0.5]];portConstraint=eastwest;strokeColor=inherit;fontSize=16;" vertex="1" parent="HsxA0cAns8KoD92Ul6s8-23">
          <mxGeometry y="30" width="200" height="50" as="geometry" />
        </mxCell>
        <mxCell id="HsxA0cAns8KoD92Ul6s8-25" value="PK&lt;div&gt;FK, SK&lt;/div&gt;" style="shape=partialRectangle;html=1;whiteSpace=wrap;connectable=0;fillColor=none;top=0;left=0;bottom=0;right=0;overflow=hidden;pointerEvents=1;strokeColor=inherit;fontSize=16;" vertex="1" parent="HsxA0cAns8KoD92Ul6s8-24">
          <mxGeometry width="60" height="50" as="geometry">
            <mxRectangle width="60" height="50" as="alternateBounds" />
          </mxGeometry>
        </mxCell>
        <mxCell id="HsxA0cAns8KoD92Ul6s8-26" value="id_cajado&lt;div&gt;id_item&lt;/div&gt;" style="shape=partialRectangle;html=1;whiteSpace=wrap;connectable=0;fillColor=none;top=0;left=0;bottom=0;right=0;align=left;spacingLeft=6;overflow=hidden;strokeColor=inherit;fontSize=16;horizontal=1;" vertex="1" parent="HsxA0cAns8KoD92Ul6s8-24">
          <mxGeometry x="60" width="140" height="50" as="geometry">
            <mxRectangle width="140" height="50" as="alternateBounds" />
          </mxGeometry>
        </mxCell>
        <mxCell id="HsxA0cAns8KoD92Ul6s8-27" value="" style="shape=tableRow;horizontal=0;startSize=0;swimlaneHead=0;swimlaneBody=0;top=0;left=0;bottom=0;right=0;collapsible=0;dropTarget=0;fillColor=none;points=[[0,0.5],[1,0.5]];portConstraint=eastwest;strokeColor=inherit;fontSize=16;verticalAlign=top;" vertex="1" parent="HsxA0cAns8KoD92Ul6s8-23">
          <mxGeometry y="80" width="200" height="190" as="geometry" />
        </mxCell>
        <mxCell id="HsxA0cAns8KoD92Ul6s8-28" value="" style="shape=partialRectangle;html=1;whiteSpace=wrap;connectable=0;fillColor=none;top=1;left=0;bottom=1;right=0;overflow=hidden;strokeColor=inherit;fontSize=16;noLabel=0;snapToPoint=0;" vertex="1" parent="HsxA0cAns8KoD92Ul6s8-27">
          <mxGeometry width="60" height="190" as="geometry">
            <mxRectangle width="60" height="190" as="alternateBounds" />
          </mxGeometry>
        </mxCell>
        <mxCell id="HsxA0cAns8KoD92Ul6s8-29" value="tipo&lt;div&gt;requisitos&lt;/div&gt;&lt;div&gt;melhoria&lt;/div&gt;&lt;div&gt;peso&lt;/div&gt;&lt;div&gt;custo_melhoria&lt;/div&gt;&lt;div&gt;dano&lt;/div&gt;&lt;div&gt;critico&lt;/div&gt;&lt;div&gt;habilidade&lt;/div&gt;&lt;div&gt;proficiencia&lt;/div&gt;" style="shape=partialRectangle;html=1;whiteSpace=wrap;connectable=0;fillColor=none;top=1;left=0;bottom=1;right=0;align=left;spacingLeft=6;overflow=hidden;strokeColor=inherit;fontSize=16;noLabel=0;snapToPoint=0;horizontal=1;verticalAlign=top;" vertex="1" parent="HsxA0cAns8KoD92Ul6s8-27">
          <mxGeometry x="60" width="140" height="190" as="geometry">
            <mxRectangle width="140" height="190" as="alternateBounds" />
          </mxGeometry>
        </mxCell>
        <mxCell id="HsxA0cAns8KoD92Ul6s8-30" value="Selo" style="shape=table;startSize=30;container=1;collapsible=0;childLayout=tableLayout;fixedRows=1;rowLines=0;fontStyle=0;strokeColor=default;fontSize=16;" vertex="1" parent="WIyWlLk6GJQsqaUBKTNV-1">
          <mxGeometry x="2520" y="80" width="200" height="270" as="geometry" />
        </mxCell>
        <mxCell id="HsxA0cAns8KoD92Ul6s8-31" value="" style="shape=tableRow;horizontal=0;startSize=0;swimlaneHead=0;swimlaneBody=0;top=0;left=0;bottom=0;right=0;collapsible=0;dropTarget=0;fillColor=none;points=[[0,0.5],[1,0.5]];portConstraint=eastwest;strokeColor=inherit;fontSize=16;" vertex="1" parent="HsxA0cAns8KoD92Ul6s8-30">
          <mxGeometry y="30" width="200" height="50" as="geometry" />
        </mxCell>
        <mxCell id="HsxA0cAns8KoD92Ul6s8-32" value="PK&lt;div&gt;FK, SK&lt;/div&gt;" style="shape=partialRectangle;html=1;whiteSpace=wrap;connectable=0;fillColor=none;top=0;left=0;bottom=0;right=0;overflow=hidden;pointerEvents=1;strokeColor=inherit;fontSize=16;" vertex="1" parent="HsxA0cAns8KoD92Ul6s8-31">
          <mxGeometry width="60" height="50" as="geometry">
            <mxRectangle width="60" height="50" as="alternateBounds" />
          </mxGeometry>
        </mxCell>
        <mxCell id="HsxA0cAns8KoD92Ul6s8-33" value="id_selo&lt;div&gt;id_item&lt;/div&gt;" style="shape=partialRectangle;html=1;whiteSpace=wrap;connectable=0;fillColor=none;top=0;left=0;bottom=0;right=0;align=left;spacingLeft=6;overflow=hidden;strokeColor=inherit;fontSize=16;horizontal=1;" vertex="1" parent="HsxA0cAns8KoD92Ul6s8-31">
          <mxGeometry x="60" width="140" height="50" as="geometry">
            <mxRectangle width="140" height="50" as="alternateBounds" />
          </mxGeometry>
        </mxCell>
        <mxCell id="HsxA0cAns8KoD92Ul6s8-34" value="" style="shape=tableRow;horizontal=0;startSize=0;swimlaneHead=0;swimlaneBody=0;top=0;left=0;bottom=0;right=0;collapsible=0;dropTarget=0;fillColor=none;points=[[0,0.5],[1,0.5]];portConstraint=eastwest;strokeColor=inherit;fontSize=16;verticalAlign=top;" vertex="1" parent="HsxA0cAns8KoD92Ul6s8-30">
          <mxGeometry y="80" width="200" height="190" as="geometry" />
        </mxCell>
        <mxCell id="HsxA0cAns8KoD92Ul6s8-35" value="" style="shape=partialRectangle;html=1;whiteSpace=wrap;connectable=0;fillColor=none;top=1;left=0;bottom=1;right=0;overflow=hidden;strokeColor=inherit;fontSize=16;noLabel=0;snapToPoint=0;" vertex="1" parent="HsxA0cAns8KoD92Ul6s8-34">
          <mxGeometry width="60" height="190" as="geometry">
            <mxRectangle width="60" height="190" as="alternateBounds" />
          </mxGeometry>
        </mxCell>
        <mxCell id="HsxA0cAns8KoD92Ul6s8-36" value="tipo&lt;div&gt;requisitos&lt;/div&gt;&lt;div&gt;melhoria&lt;/div&gt;&lt;div&gt;peso&lt;/div&gt;&lt;div&gt;custo_melhoria&lt;/div&gt;&lt;div&gt;dano&lt;/div&gt;&lt;div&gt;critico&lt;/div&gt;&lt;div&gt;habilidade&lt;/div&gt;&lt;div&gt;milagre&lt;/div&gt;" style="shape=partialRectangle;html=1;whiteSpace=wrap;connectable=0;fillColor=none;top=1;left=0;bottom=1;right=0;align=left;spacingLeft=6;overflow=hidden;strokeColor=inherit;fontSize=16;noLabel=0;snapToPoint=0;horizontal=1;verticalAlign=top;" vertex="1" parent="HsxA0cAns8KoD92Ul6s8-34">
          <mxGeometry x="60" width="140" height="190" as="geometry">
            <mxRectangle width="140" height="190" as="alternateBounds" />
          </mxGeometry>
        </mxCell>
        <mxCell id="HsxA0cAns8KoD92Ul6s8-37" value="Arma_Leve" style="shape=table;startSize=30;container=1;collapsible=0;childLayout=tableLayout;fixedRows=1;rowLines=0;fontStyle=0;strokeColor=default;fontSize=16;" vertex="1" parent="WIyWlLk6GJQsqaUBKTNV-1">
          <mxGeometry x="1180" y="140" width="200" height="270" as="geometry" />
        </mxCell>
        <mxCell id="HsxA0cAns8KoD92Ul6s8-38" value="" style="shape=tableRow;horizontal=0;startSize=0;swimlaneHead=0;swimlaneBody=0;top=0;left=0;bottom=0;right=0;collapsible=0;dropTarget=0;fillColor=none;points=[[0,0.5],[1,0.5]];portConstraint=eastwest;strokeColor=inherit;fontSize=16;" vertex="1" parent="HsxA0cAns8KoD92Ul6s8-37">
          <mxGeometry y="30" width="200" height="50" as="geometry" />
        </mxCell>
        <mxCell id="HsxA0cAns8KoD92Ul6s8-39" value="PK&lt;div&gt;FK, SK&lt;/div&gt;" style="shape=partialRectangle;html=1;whiteSpace=wrap;connectable=0;fillColor=none;top=0;left=0;bottom=0;right=0;overflow=hidden;pointerEvents=1;strokeColor=inherit;fontSize=16;" vertex="1" parent="HsxA0cAns8KoD92Ul6s8-38">
          <mxGeometry width="60" height="50" as="geometry">
            <mxRectangle width="60" height="50" as="alternateBounds" />
          </mxGeometry>
        </mxCell>
        <mxCell id="HsxA0cAns8KoD92Ul6s8-40" value="id_arma_leve&lt;div&gt;id_item&lt;/div&gt;" style="shape=partialRectangle;html=1;whiteSpace=wrap;connectable=0;fillColor=none;top=0;left=0;bottom=0;right=0;align=left;spacingLeft=6;overflow=hidden;strokeColor=inherit;fontSize=16;horizontal=1;" vertex="1" parent="HsxA0cAns8KoD92Ul6s8-38">
          <mxGeometry x="60" width="140" height="50" as="geometry">
            <mxRectangle width="140" height="50" as="alternateBounds" />
          </mxGeometry>
        </mxCell>
        <mxCell id="HsxA0cAns8KoD92Ul6s8-41" value="" style="shape=tableRow;horizontal=0;startSize=0;swimlaneHead=0;swimlaneBody=0;top=0;left=0;bottom=0;right=0;collapsible=0;dropTarget=0;fillColor=none;points=[[0,0.5],[1,0.5]];portConstraint=eastwest;strokeColor=inherit;fontSize=16;verticalAlign=top;" vertex="1" parent="HsxA0cAns8KoD92Ul6s8-37">
          <mxGeometry y="80" width="200" height="190" as="geometry" />
        </mxCell>
        <mxCell id="HsxA0cAns8KoD92Ul6s8-42" value="" style="shape=partialRectangle;html=1;whiteSpace=wrap;connectable=0;fillColor=none;top=1;left=0;bottom=1;right=0;overflow=hidden;strokeColor=inherit;fontSize=16;noLabel=0;snapToPoint=0;" vertex="1" parent="HsxA0cAns8KoD92Ul6s8-41">
          <mxGeometry width="60" height="190" as="geometry">
            <mxRectangle width="60" height="190" as="alternateBounds" />
          </mxGeometry>
        </mxCell>
        <mxCell id="HsxA0cAns8KoD92Ul6s8-43" value="tipo&lt;div&gt;requisitos&lt;/div&gt;&lt;div&gt;melhoria&lt;/div&gt;&lt;div&gt;peso&lt;/div&gt;&lt;div&gt;custo_melhoria&lt;/div&gt;&lt;div&gt;dano&lt;/div&gt;&lt;div&gt;critico&lt;/div&gt;&lt;div&gt;habilidade&lt;/div&gt;&lt;div&gt;destreza&lt;/div&gt;" style="shape=partialRectangle;html=1;whiteSpace=wrap;connectable=0;fillColor=none;top=1;left=0;bottom=1;right=0;align=left;spacingLeft=6;overflow=hidden;strokeColor=inherit;fontSize=16;noLabel=0;snapToPoint=0;horizontal=1;verticalAlign=top;" vertex="1" parent="HsxA0cAns8KoD92Ul6s8-41">
          <mxGeometry x="60" width="140" height="190" as="geometry">
            <mxRectangle width="140" height="190" as="alternateBounds" />
          </mxGeometry>
        </mxCell>
        <mxCell id="HsxA0cAns8KoD92Ul6s8-44" value="Arma_Pesada" style="shape=table;startSize=30;container=1;collapsible=0;childLayout=tableLayout;fixedRows=1;rowLines=0;fontStyle=0;strokeColor=default;fontSize=16;" vertex="1" parent="WIyWlLk6GJQsqaUBKTNV-1">
          <mxGeometry x="1180" y="500" width="200" height="270" as="geometry" />
        </mxCell>
        <mxCell id="HsxA0cAns8KoD92Ul6s8-45" value="" style="shape=tableRow;horizontal=0;startSize=0;swimlaneHead=0;swimlaneBody=0;top=0;left=0;bottom=0;right=0;collapsible=0;dropTarget=0;fillColor=none;points=[[0,0.5],[1,0.5]];portConstraint=eastwest;strokeColor=inherit;fontSize=16;" vertex="1" parent="HsxA0cAns8KoD92Ul6s8-44">
          <mxGeometry y="30" width="200" height="50" as="geometry" />
        </mxCell>
        <mxCell id="HsxA0cAns8KoD92Ul6s8-46" value="PK&lt;div&gt;FK, SK&lt;/div&gt;" style="shape=partialRectangle;html=1;whiteSpace=wrap;connectable=0;fillColor=none;top=0;left=0;bottom=0;right=0;overflow=hidden;pointerEvents=1;strokeColor=inherit;fontSize=16;" vertex="1" parent="HsxA0cAns8KoD92Ul6s8-45">
          <mxGeometry width="60" height="50" as="geometry">
            <mxRectangle width="60" height="50" as="alternateBounds" />
          </mxGeometry>
        </mxCell>
        <mxCell id="HsxA0cAns8KoD92Ul6s8-47" value="id_arma_pesada&lt;div&gt;id_item&lt;/div&gt;" style="shape=partialRectangle;html=1;whiteSpace=wrap;connectable=0;fillColor=none;top=0;left=0;bottom=0;right=0;align=left;spacingLeft=6;overflow=hidden;strokeColor=inherit;fontSize=16;horizontal=1;" vertex="1" parent="HsxA0cAns8KoD92Ul6s8-45">
          <mxGeometry x="60" width="140" height="50" as="geometry">
            <mxRectangle width="140" height="50" as="alternateBounds" />
          </mxGeometry>
        </mxCell>
        <mxCell id="HsxA0cAns8KoD92Ul6s8-48" value="" style="shape=tableRow;horizontal=0;startSize=0;swimlaneHead=0;swimlaneBody=0;top=0;left=0;bottom=0;right=0;collapsible=0;dropTarget=0;fillColor=none;points=[[0,0.5],[1,0.5]];portConstraint=eastwest;strokeColor=inherit;fontSize=16;verticalAlign=top;" vertex="1" parent="HsxA0cAns8KoD92Ul6s8-44">
          <mxGeometry y="80" width="200" height="190" as="geometry" />
        </mxCell>
        <mxCell id="HsxA0cAns8KoD92Ul6s8-49" value="" style="shape=partialRectangle;html=1;whiteSpace=wrap;connectable=0;fillColor=none;top=1;left=0;bottom=1;right=0;overflow=hidden;strokeColor=inherit;fontSize=16;noLabel=0;snapToPoint=0;" vertex="1" parent="HsxA0cAns8KoD92Ul6s8-48">
          <mxGeometry width="60" height="190" as="geometry">
            <mxRectangle width="60" height="190" as="alternateBounds" />
          </mxGeometry>
        </mxCell>
        <mxCell id="HsxA0cAns8KoD92Ul6s8-50" value="tipo&lt;div&gt;requisitos&lt;/div&gt;&lt;div&gt;melhoria&lt;/div&gt;&lt;div&gt;peso&lt;/div&gt;&lt;div&gt;custo_melhoria&lt;/div&gt;&lt;div&gt;dano&lt;/div&gt;&lt;div&gt;critico&lt;/div&gt;&lt;div&gt;habilidade&lt;/div&gt;&lt;div&gt;força&lt;/div&gt;" style="shape=partialRectangle;html=1;whiteSpace=wrap;connectable=0;fillColor=none;top=1;left=0;bottom=1;right=0;align=left;spacingLeft=6;overflow=hidden;strokeColor=inherit;fontSize=16;noLabel=0;snapToPoint=0;horizontal=1;verticalAlign=top;" vertex="1" parent="HsxA0cAns8KoD92Ul6s8-48">
          <mxGeometry x="60" width="140" height="190" as="geometry">
            <mxRectangle width="140" height="190" as="alternateBounds" />
          </mxGeometry>
        </mxCell>
        <mxCell id="HsxA0cAns8KoD92Ul6s8-51" value="Consumivel" style="shape=table;startSize=30;container=1;collapsible=0;childLayout=tableLayout;fixedRows=1;rowLines=0;fontStyle=0;strokeColor=default;fontSize=16;" vertex="1" parent="WIyWlLk6GJQsqaUBKTNV-1">
          <mxGeometry x="2810" y="140" width="180" height="170" as="geometry" />
        </mxCell>
        <mxCell id="HsxA0cAns8KoD92Ul6s8-52" value="" style="shape=tableRow;horizontal=0;startSize=0;swimlaneHead=0;swimlaneBody=0;top=0;left=0;bottom=0;right=0;collapsible=0;dropTarget=0;fillColor=none;points=[[0,0.5],[1,0.5]];portConstraint=eastwest;strokeColor=inherit;fontSize=16;" vertex="1" parent="HsxA0cAns8KoD92Ul6s8-51">
          <mxGeometry y="30" width="180" height="70" as="geometry" />
        </mxCell>
        <mxCell id="HsxA0cAns8KoD92Ul6s8-53" value="PK&lt;div&gt;FK, SK&lt;/div&gt;" style="shape=partialRectangle;html=1;whiteSpace=wrap;connectable=0;fillColor=none;top=0;left=0;bottom=0;right=0;overflow=hidden;pointerEvents=1;strokeColor=inherit;fontSize=16;" vertex="1" parent="HsxA0cAns8KoD92Ul6s8-52">
          <mxGeometry width="60" height="70" as="geometry">
            <mxRectangle width="60" height="70" as="alternateBounds" />
          </mxGeometry>
        </mxCell>
        <mxCell id="HsxA0cAns8KoD92Ul6s8-54" value="id_consumivel&lt;div&gt;id_item&lt;/div&gt;" style="shape=partialRectangle;html=1;whiteSpace=wrap;connectable=0;fillColor=none;top=0;left=0;bottom=0;right=0;align=left;spacingLeft=6;overflow=hidden;strokeColor=inherit;fontSize=16;horizontal=1;" vertex="1" parent="HsxA0cAns8KoD92Ul6s8-52">
          <mxGeometry x="60" width="120" height="70" as="geometry">
            <mxRectangle width="120" height="70" as="alternateBounds" />
          </mxGeometry>
        </mxCell>
        <mxCell id="HsxA0cAns8KoD92Ul6s8-55" value="" style="shape=tableRow;horizontal=0;startSize=0;swimlaneHead=0;swimlaneBody=0;top=0;left=0;bottom=0;right=0;collapsible=0;dropTarget=0;fillColor=none;points=[[0,0.5],[1,0.5]];portConstraint=eastwest;strokeColor=inherit;fontSize=16;verticalAlign=top;" vertex="1" parent="HsxA0cAns8KoD92Ul6s8-51">
          <mxGeometry y="100" width="180" height="70" as="geometry" />
        </mxCell>
        <mxCell id="HsxA0cAns8KoD92Ul6s8-56" value="" style="shape=partialRectangle;html=1;whiteSpace=wrap;connectable=0;fillColor=none;top=1;left=0;bottom=1;right=0;overflow=hidden;strokeColor=inherit;fontSize=16;noLabel=0;snapToPoint=0;" vertex="1" parent="HsxA0cAns8KoD92Ul6s8-55">
          <mxGeometry width="60" height="70" as="geometry">
            <mxRectangle width="60" height="70" as="alternateBounds" />
          </mxGeometry>
        </mxCell>
        <mxCell id="HsxA0cAns8KoD92Ul6s8-57" value="&lt;div&gt;efeito&lt;/div&gt;&lt;div&gt;descricao&lt;/div&gt;&lt;div&gt;duracao&lt;/div&gt;" style="shape=partialRectangle;html=1;whiteSpace=wrap;connectable=0;fillColor=none;top=1;left=0;bottom=1;right=0;align=left;spacingLeft=6;overflow=hidden;strokeColor=inherit;fontSize=16;noLabel=0;snapToPoint=0;horizontal=1;verticalAlign=top;" vertex="1" parent="HsxA0cAns8KoD92Ul6s8-55">
          <mxGeometry x="60" width="120" height="70" as="geometry">
            <mxRectangle width="120" height="70" as="alternateBounds" />
          </mxGeometry>
        </mxCell>
        <mxCell id="HsxA0cAns8KoD92Ul6s8-58" style="edgeStyle=none;curved=1;rounded=0;orthogonalLoop=1;jettySize=auto;html=1;exitX=1.009;exitY=0.455;exitDx=0;exitDy=0;entryX=0;entryY=0.5;entryDx=0;entryDy=0;fontSize=12;startSize=8;endSize=8;exitPerimeter=0;" edge="1" parent="WIyWlLk6GJQsqaUBKTNV-1" source="HsxA0cAns8KoD92Ul6s8-48" target="v2UdAhtHkne79LI9UoaM-149">
          <mxGeometry relative="1" as="geometry" />
        </mxCell>
        <mxCell id="HsxA0cAns8KoD92Ul6s8-63" style="edgeStyle=orthogonalEdgeStyle;rounded=0;orthogonalLoop=1;jettySize=auto;html=1;exitX=0.464;exitY=1.001;exitDx=0;exitDy=0;entryX=0.5;entryY=0;entryDx=0;entryDy=0;fontSize=12;startSize=8;endSize=8;exitPerimeter=0;" edge="1" parent="WIyWlLk6GJQsqaUBKTNV-1" source="HsxA0cAns8KoD92Ul6s8-5" target="v2UdAhtHkne79LI9UoaM-148">
          <mxGeometry relative="1" as="geometry">
            <Array as="points">
              <mxPoint x="1611" y="400" />
              <mxPoint x="1950" y="400" />
            </Array>
          </mxGeometry>
        </mxCell>
        <mxCell id="HsxA0cAns8KoD92Ul6s8-64" style="edgeStyle=orthogonalEdgeStyle;rounded=0;orthogonalLoop=1;jettySize=auto;html=1;exitX=0.549;exitY=1.001;exitDx=0;exitDy=0;entryX=0.5;entryY=0;entryDx=0;entryDy=0;fontSize=12;startSize=8;endSize=8;exitPerimeter=0;" edge="1" parent="WIyWlLk6GJQsqaUBKTNV-1" source="HsxA0cAns8KoD92Ul6s8-12" target="v2UdAhtHkne79LI9UoaM-148">
          <mxGeometry relative="1" as="geometry">
            <Array as="points">
              <mxPoint x="1950" y="350" />
            </Array>
          </mxGeometry>
        </mxCell>
        <mxCell id="HsxA0cAns8KoD92Ul6s8-66" style="edgeStyle=orthogonalEdgeStyle;rounded=0;orthogonalLoop=1;jettySize=auto;html=1;exitX=0.698;exitY=1.001;exitDx=0;exitDy=0;entryX=0.5;entryY=0;entryDx=0;entryDy=0;fontSize=12;startSize=8;endSize=8;exitPerimeter=0;" edge="1" parent="WIyWlLk6GJQsqaUBKTNV-1" source="HsxA0cAns8KoD92Ul6s8-27" target="v2UdAhtHkne79LI9UoaM-148">
          <mxGeometry relative="1" as="geometry">
            <Array as="points">
              <mxPoint x="2330" y="400" />
              <mxPoint x="1950" y="400" />
            </Array>
          </mxGeometry>
        </mxCell>
        <mxCell id="HsxA0cAns8KoD92Ul6s8-68" style="edgeStyle=orthogonalEdgeStyle;rounded=0;orthogonalLoop=1;jettySize=auto;html=1;entryX=0.5;entryY=0;entryDx=0;entryDy=0;fontSize=12;startSize=8;endSize=8;exitX=0.544;exitY=1.001;exitDx=0;exitDy=0;exitPerimeter=0;" edge="1" parent="WIyWlLk6GJQsqaUBKTNV-1" source="HsxA0cAns8KoD92Ul6s8-34" target="v2UdAhtHkne79LI9UoaM-148">
          <mxGeometry relative="1" as="geometry">
            <Array as="points">
              <mxPoint x="2629" y="450" />
              <mxPoint x="1950" y="450" />
            </Array>
          </mxGeometry>
        </mxCell>
        <mxCell id="HsxA0cAns8KoD92Ul6s8-69" style="edgeStyle=orthogonalEdgeStyle;rounded=0;orthogonalLoop=1;jettySize=auto;html=1;exitX=0.488;exitY=0.975;exitDx=0;exitDy=0;entryX=0.5;entryY=0;entryDx=0;entryDy=0;fontSize=12;startSize=8;endSize=8;exitPerimeter=0;" edge="1" parent="WIyWlLk6GJQsqaUBKTNV-1" source="HsxA0cAns8KoD92Ul6s8-19" target="HsxA0cAns8KoD92Ul6s8-8">
          <mxGeometry relative="1" as="geometry" />
        </mxCell>
        <mxCell id="HsxA0cAns8KoD92Ul6s8-70" style="edgeStyle=orthogonalEdgeStyle;rounded=0;orthogonalLoop=1;jettySize=auto;html=1;entryX=0.5;entryY=0;entryDx=0;entryDy=0;fontSize=12;startSize=8;endSize=8;exitX=0.542;exitY=0.994;exitDx=0;exitDy=0;exitPerimeter=0;" edge="1" parent="WIyWlLk6GJQsqaUBKTNV-1" source="HsxA0cAns8KoD92Ul6s8-55" target="v2UdAhtHkne79LI9UoaM-148">
          <mxGeometry relative="1" as="geometry">
            <Array as="points">
              <mxPoint x="2918" y="310" />
              <mxPoint x="2918" y="490" />
              <mxPoint x="1950" y="490" />
            </Array>
          </mxGeometry>
        </mxCell>
        <mxCell id="HsxA0cAns8KoD92Ul6s8-74" style="edgeStyle=orthogonalEdgeStyle;rounded=0;orthogonalLoop=1;jettySize=auto;html=1;entryX=0.5;entryY=0;entryDx=0;entryDy=0;fontSize=12;startSize=8;endSize=8;" edge="1" parent="WIyWlLk6GJQsqaUBKTNV-1" source="HsxA0cAns8KoD92Ul6s8-41" target="v2UdAhtHkne79LI9UoaM-148">
          <mxGeometry relative="1" as="geometry">
            <Array as="points">
              <mxPoint x="1280" y="450" />
              <mxPoint x="1950" y="450" />
            </Array>
          </mxGeometry>
        </mxCell>
      </root>
    </mxGraphModel>
  </diagram>
</mxfile>
